<svg
   xmlns="http://www.w3.org/2000/svg"
   width="10pt"
   height="6pt"
   viewBox="1 2.5 10 6" >
	  <path
		 d="M 6.9014354,2.6799347 C 6.0612858,2.6944777 5.3005052,3.1744944 4.9326856,3.9221221 l -0.0044,0.00879 C 4.8347246,3.9105641 4.7397197,3.8973421 4.6441114,3.8913601 3.6580232,3.8369761 2.7983013,4.5487128 2.6782913,5.5188014 l -0.02637,0.010254 c -0.815669,-0.082231 -1.547762,0.4967997 -1.646485,1.3022461 -0.09854,0.8060438 0.473532,1.541652 1.286133,1.6538085 0.101483,0.013222 0.255109,0.013942 0.255109,0.013942 L 8.984441,8.49975 V 8.49682 C 9.9364542,8.478592 10.726709,7.763601 10.830143,6.8269035 10.941123,5.8069376 10.202664,4.8882705 9.173405,4.7658721 H 9.165985 C 9.12106,3.9596309 8.6352575,3.2418777 7.898991,2.8938019 7.5876151,2.7472589 7.2461776,2.6740579 6.9014324,2.6799347 Z" fill="#FFF"
		 />
</svg>
