<svg width="515" height="299" viewBox="0 0 515 299" fill="none" xmlns="http://www.w3.org/2000/svg">
<g filter="url(#filter0_d_0_1)">
<rect width="495" height="279" rx="20" fill="white"/>
<rect x="1" y="1" width="493" height="277" rx="19" stroke="black" stroke-width="2"/>
</g>
<g clip-path="url(#clip0_0_1)">
<path d="M138.486 125.53C127.505 120.837 118.702 112.051 113.879 100.97C111.181 94.6926 109.864 87.8854 109.114 81.0768C108.378 74.397 108.228 67.3507 111.053 61.2748C112.6 57.9481 114.968 55.0858 117.925 52.9671C120.882 50.8483 124.329 49.5451 127.928 49.1847C131.528 48.8243 135.158 49.4188 138.465 50.9103C141.771 52.4019 144.642 54.7396 146.796 57.6957C148.651 60.24 149.955 63.2929 149.988 66.4604C150.058 73.1045 144.807 78.4365 142.504 84.6539C140.124 91.0789 140.981 98.1978 141.386 105.052C141.791 111.906 141.534 119.336 137.447 124.8" fill="#F2F2F2"/>
<path d="M335.43 209.543C347.027 206.779 357.147 199.61 363.718 189.502C367.407 183.771 369.822 177.283 371.677 170.697C373.498 164.235 374.801 157.313 373.011 150.843C372.031 147.3 370.166 144.076 367.597 141.485C365.029 138.894 361.844 137.025 358.354 136.058C354.864 135.092 351.187 135.062 347.683 135.972C344.178 136.881 340.964 138.699 338.355 141.248C336.11 143.442 334.324 146.231 333.772 149.349C332.614 155.888 336.917 162.036 338.169 168.557C339.463 175.296 337.45 182.17 335.927 188.859C334.405 195.548 333.44 202.918 336.574 208.999" fill="#F2F2F2"/>
<path d="M246.99 198.874C230.46 198.927 214.378 193.412 201.252 183.188C188.401 173.198 179.012 159.301 174.448 143.514L175.102 143.321C184.332 175.622 213.894 198.182 246.99 198.182C256.885 198.201 266.685 196.211 275.816 192.329L276.078 192.968C266.865 196.885 256.975 198.893 246.99 198.874Z" fill="#E6E6E6"/>
<path d="M318.445 99.2511C308.626 67.3102 279.911 45.8498 246.99 45.8498C237.234 45.8318 227.571 47.7652 218.548 51.5399L218.29 50.8996C230.359 45.8702 243.501 44.1011 256.44 45.7642C269.38 47.4273 281.677 52.4659 292.138 60.3911C304.869 70.0959 314.295 83.6124 319.094 99.0445L318.445 99.2511Z" fill="#E6E6E6"/>
<path d="M338.858 223.108C307.901 223.108 282.716 197.483 282.716 165.984C282.716 134.485 307.901 108.86 338.858 108.86C369.815 108.86 395 134.485 395 165.984C395 197.483 369.815 223.108 338.858 223.108ZM338.858 109.552C308.277 109.552 283.397 134.867 283.397 165.984C283.397 197.101 308.277 222.416 338.858 222.416C369.44 222.416 394.319 197.101 394.319 165.984C394.319 134.867 369.44 109.552 338.858 109.552Z" fill="#3F3D56"/>
<path d="M156.142 137.249C125.185 137.249 100 111.623 100 80.1244C100 48.6259 125.185 23 156.142 23C187.099 23 212.284 48.6259 212.284 80.1244C212.284 111.623 187.099 137.249 156.142 137.249ZM156.142 23.6924C125.56 23.6924 100.681 49.0077 100.681 80.1244C100.681 111.241 125.56 136.556 156.142 136.556C186.723 136.556 211.603 111.241 211.603 80.1244C211.603 49.0077 186.723 23.6924 156.142 23.6924Z" fill="#3F3D56"/>
<path d="M151.777 80.4456L146.819 90.2428L151.714 93.0981C151.714 93.0981 155.072 82.0933 155.171 81.6756C155.678 81.4651 156.109 81.1031 156.409 80.6375C156.709 80.1719 156.862 79.6247 156.85 79.0682C156.837 78.5118 156.659 77.9723 156.339 77.5212C156.018 77.0701 155.571 76.7286 155.055 76.5419C154.54 76.3551 153.981 76.332 153.453 76.4755C152.924 76.619 152.451 76.9224 152.096 77.3455C151.74 77.7686 151.519 78.2916 151.463 78.8451C151.406 79.3987 151.515 79.9568 151.777 80.4456Z" fill="#A0616A"/>
<path d="M126.334 81.7782C128.546 90.1151 136.494 95.4101 143.095 101.758C143.908 102.048 144.771 102.163 145.63 102.094C146.489 102.026 147.324 101.775 148.082 101.36C148.841 100.944 149.505 100.372 150.034 99.6795C150.562 98.9875 150.943 98.1908 151.152 97.3404L153.377 88.4816L147.722 88.3278L145.382 90.9156L137.811 85.4257L126.334 81.7782Z" fill="#3F3D56"/>
<path d="M330.512 174.86C331.472 174.924 332.369 175.367 333.014 176.094C333.658 176.821 333.998 177.775 333.961 178.753C333.951 178.952 333.924 179.149 333.882 179.344L344.784 186.332L338.757 189.045L329.328 181.992C328.55 181.751 327.872 181.253 327.401 180.579C326.93 179.904 326.692 179.089 326.723 178.262C326.746 177.792 326.859 177.331 327.057 176.905C327.255 176.479 327.533 176.097 327.876 175.78C328.218 175.464 328.619 175.219 329.055 175.06C329.491 174.901 329.953 174.831 330.415 174.854C330.447 174.856 330.48 174.858 330.512 174.86Z" fill="#FFB6B6"/>
<path d="M341.025 183.156L338.323 188.828L349.006 195.824C349.767 196.326 350.64 196.622 351.544 196.683C352.449 196.745 353.353 196.57 354.173 196.176C355.168 195.691 355.982 194.889 356.492 193.893C357.001 192.896 357.178 191.758 356.997 190.649L353.53 170.512C353.297 169.103 352.543 167.838 351.422 166.978C350.3 166.118 348.898 165.727 347.502 165.887C346.129 166.04 344.872 166.741 344.008 167.837C343.143 168.932 342.742 170.333 342.892 171.729C342.898 171.784 342.905 171.839 342.912 171.893C342.938 172.087 342.975 172.278 343.021 172.468L346.806 186.789L341.025 183.156Z" fill="#468335"/>
<path d="M331.315 185.456L327.292 174.893C327.155 174.531 327.164 174.129 327.318 173.775C327.472 173.42 327.757 173.142 328.112 173.002L330.375 172.11C330.73 171.97 331.126 171.979 331.474 172.136C331.822 172.292 332.096 172.583 332.234 172.944L336.257 183.507C336.394 183.868 336.385 184.271 336.231 184.625C336.077 184.98 335.791 185.258 335.436 185.398L333.174 186.29C332.819 186.43 332.423 186.421 332.075 186.264C331.726 186.108 331.453 185.817 331.315 185.456Z" fill="#3F3D56"/>
<path d="M328.582 173.436C328.391 173.512 328.237 173.662 328.154 173.853C328.071 174.044 328.066 174.26 328.14 174.455L332.163 185.018C332.238 185.212 332.385 185.369 332.573 185.454C332.761 185.538 332.974 185.543 333.165 185.468L335.428 184.576C335.619 184.5 335.773 184.35 335.856 184.159C335.939 183.968 335.944 183.751 335.87 183.556L331.847 172.994C331.772 172.799 331.625 172.642 331.437 172.558C331.249 172.474 331.036 172.469 330.845 172.544L328.582 173.436Z" fill="#468335"/>
<path d="M340.266 207.496H355.544V191.95H340.266V207.496Z" fill="#FFB8B8"/>
<path d="M304.033 237.733L298.198 235.736L294.948 251.897L298.902 253.25L304.033 237.733Z" fill="#FFB6B6"/>
<path d="M314.381 234.659L308.39 236.1L314.024 251.568L318.084 250.591L314.381 234.659Z" fill="#FFB6B6"/>
<path d="M354.996 211.557C358.058 232.329 317.279 220.048 317.279 220.048L304.492 237.996L297.007 236.611C297.007 236.611 300.375 225.837 306.39 211.393C309.062 204.979 339.395 206.546 339.395 206.546L340.025 201.517L357.378 201.171L354.996 211.557Z" fill="#2F2E41"/>
<path d="M315.991 215.592L304.885 215.852C306.666 231.434 308.235 237.649 308.235 237.649L314.7 235.572L315.991 215.592Z" fill="#2F2E41"/>
<path d="M346.268 166.688L349.343 162.665L353.73 162.472L354.168 166.255L356.341 167.275C358.512 175.664 358.847 184.437 357.323 192.973C357.032 193.252 356.819 193.605 356.707 193.995C356.594 194.386 356.586 194.8 356.684 195.195L356.825 195.767L356.811 195.788C356.349 196.53 356.192 197.428 356.375 198.288L357.413 200.164C357.785 200.839 358.009 201.589 358.068 202.36C358.127 203.132 358.02 203.908 357.755 204.633C357.489 205.359 357.072 206.017 356.531 206.561C355.991 207.106 355.34 207.524 354.624 207.787C348.244 210.14 342.262 211.017 337.837 204.413L336.446 181.401L346.268 166.688Z" fill="#468335"/>
<path d="M349.489 163.733C353.969 163.733 357.6 160.039 357.6 155.481C357.6 150.923 353.969 147.228 349.489 147.228C345.01 147.228 341.379 150.923 341.379 155.481C341.379 160.039 345.01 163.733 349.489 163.733Z" fill="#FFB8B8"/>
<path d="M353.561 145.532C356.995 145.599 359.719 148.84 359.645 152.772C362.186 155.47 361.346 158.771 359.223 162.302C355.338 162.761 354.431 162.952 351.025 164.366L350.576 162.232L349.558 165.011C348.693 165.417 347.833 165.863 346.981 166.348C346.368 163.488 346.52 160.708 348.167 158.287C349.63 156.136 346.069 153.582 343.523 153.943L343.56 151.968L342.921 153.931C341.928 154.674 340.83 154.405 339.704 153.869C337.878 144.213 352.014 141.572 353.561 145.532Z" fill="#2F2E41"/>
<path d="M300.699 255.984L298.1 255.638L297.956 253.079L296.447 255.418L289.552 254.502C289.222 254.458 288.914 254.308 288.673 254.073C288.432 253.839 288.272 253.532 288.215 253.198C288.157 252.863 288.207 252.52 288.355 252.216C288.504 251.912 288.744 251.665 289.041 251.51L295.043 248.373L295.368 245.848L301.114 246.969L300.699 255.984Z" fill="#2F2E41"/>
<path d="M319.575 254.527L316.975 254.867L316.195 252.43L315.322 255.084L308.425 255.987C308.095 256.03 307.759 255.965 307.468 255.8C307.176 255.636 306.944 255.381 306.805 255.073C306.666 254.764 306.628 254.419 306.695 254.087C306.763 253.755 306.933 253.453 307.181 253.227L312.199 248.635L311.88 246.11L317.717 245.703L319.575 254.527Z" fill="#2F2E41"/>
<path d="M331.49 176.791C332.45 176.855 333.348 177.298 333.992 178.025C334.636 178.752 334.976 179.706 334.94 180.684C334.929 180.883 334.902 181.08 334.86 181.275L345.762 188.263L339.735 190.976L330.306 183.923C329.528 183.681 328.85 183.184 328.379 182.51C327.908 181.835 327.67 181.02 327.702 180.193C327.724 179.723 327.837 179.262 328.035 178.836C328.233 178.41 328.511 178.028 328.854 177.711C329.196 177.395 329.597 177.15 330.033 176.991C330.469 176.832 330.931 176.762 331.393 176.785C331.425 176.787 331.458 176.789 331.49 176.791Z" fill="#FFB6B6"/>
<path d="M342.003 185.087L339.301 190.759L349.984 197.754C350.745 198.256 351.618 198.552 352.523 198.614C353.427 198.675 354.331 198.501 355.151 198.106C356.147 197.621 356.961 196.82 357.47 195.823C357.979 194.827 358.156 193.688 357.975 192.58L354.508 172.443C354.275 171.034 353.521 169.769 352.4 168.909C351.278 168.048 349.876 167.658 348.48 167.817C347.8 167.893 347.142 168.104 346.543 168.439C345.943 168.773 345.414 169.225 344.986 169.767C344.558 170.31 344.239 170.933 344.047 171.601C343.856 172.269 343.796 172.968 343.87 173.66C343.876 173.715 343.883 173.769 343.89 173.824C343.916 174.017 343.953 174.209 343.999 174.399L347.784 188.72L342.003 185.087Z" fill="#468335"/>
<path d="M137.569 183.993L140.996 185.565L148.59 172.864L143.532 170.543L137.569 183.993Z" fill="#A0616A"/>
<path d="M135.836 187.574L146.374 192.412L146.434 192.276C146.925 191.169 146.963 189.909 146.541 188.774C146.119 187.638 145.271 186.719 144.183 186.22L142.916 183.85L138.666 183.687L137.746 183.265L135.836 187.574Z" fill="#2F2E41"/>
<path d="M180.014 166.72L183.633 165.686L181.436 150.988L176.094 152.514L180.014 166.72Z" fill="#A0616A"/>
<path d="M180.946 170.598L192.077 167.419L192.037 167.276C191.715 166.107 190.949 165.116 189.908 164.521C188.868 163.927 187.638 163.777 186.489 164.105L184.022 163.116L180.662 165.769L179.69 166.047L180.946 170.598Z" fill="#2F2E41"/>
<path d="M125.233 123.773C125.325 126.498 131.02 133.849 134.016 134.903C134.525 135.082 134.822 135.181 134.822 135.181L135.865 134.86L148.489 130.974C150.7 132.297 157.294 132.97 162.705 133.306C167.011 133.573 169.412 135.864 169.412 135.864C170.682 145.696 174.345 152.863 178.569 161.672L183.638 160.775L178.849 127.962C178.746 127.254 178.44 126.592 177.97 126.058C177.5 125.525 176.886 125.144 176.205 124.963L141.756 115.794C141.756 115.794 139.856 115.444 135.849 117.411C129.253 120.649 125.167 121.791 125.233 123.773Z" fill="#2F2E41"/>
<path d="M131.815 123.246C130.66 125.706 132.372 134.903 134.55 137.246L135.128 137.646L135.323 137.749C136.629 142.245 150.647 155.395 150.647 155.395C145.912 161.532 141.692 169.02 139.81 177.409L145.285 179.445L160.696 156.035C161.1 155.421 161.312 154.698 161.304 153.96C161.296 153.222 161.069 152.504 160.652 151.9L154.365 142.787L144.12 122.596C136.799 122.366 132.657 121.457 131.815 123.246Z" fill="#2F2E41"/>
<path d="M125.439 124.844C125.422 124.844 125.02 123.775 125.012 123.773C124.876 123.734 123.029 123.549 123.444 120.437L123.976 117.013L123.457 113.989L122.584 113.101L123.987 111.674L123.127 105.201L122.797 92.2417C121.969 87.7902 122.185 83.7188 126.198 81.7582L130.798 77.4168L136.032 77.3523L141.971 80.9345L144.848 86.771L145.964 102.588L146.797 104.567L146.726 104.633C146.72 104.638 146.165 105.148 145.916 105.429C145.795 105.604 146.022 106.907 146.302 108.014L146.661 110.747L145.756 111.404L146.932 112.817L150.138 118.331L149.946 118.282C149.729 118.227 147.713 121.306 125.587 124.73C125.485 124.746 125.481 124.844 125.439 124.844Z" fill="#3F3D56"/>
<path d="M150.775 90.6118L148.943 89.6393C148.656 89.4863 148.44 89.2235 148.343 88.9087C148.245 88.5939 148.275 88.2526 148.425 87.9599L152.81 79.4083C152.96 79.1159 153.219 78.8961 153.528 78.7972C153.837 78.6982 154.173 78.7282 154.461 78.8806L156.292 79.8531C156.58 80.0061 156.796 80.2688 156.893 80.5837C156.99 80.8985 156.961 81.2397 156.811 81.5325L152.425 90.0841C152.275 90.3765 152.017 90.5963 151.707 90.6952C151.398 90.7941 151.063 90.7641 150.775 90.6118Z" fill="#3F3D56"/>
<path d="M154.023 79.203C153.867 79.1209 153.687 79.1048 153.52 79.1581C153.353 79.2114 153.214 79.3298 153.133 79.4874L148.748 88.039C148.667 88.1968 148.651 88.3806 148.703 88.5503C148.756 88.7199 148.872 88.8615 149.027 88.944L150.859 89.9165C151.014 89.9986 151.195 90.0148 151.361 89.9614C151.528 89.9081 151.667 89.7897 151.748 89.6321L156.134 81.0805C156.214 80.9228 156.23 80.7389 156.178 80.5692C156.125 80.3996 156.009 80.258 155.854 80.1755L154.023 79.203Z" fill="#468335"/>
<path d="M134.594 76.1849C138.728 76.1849 142.079 72.7755 142.079 68.5697C142.079 64.364 138.728 60.9546 134.594 60.9546C130.461 60.9546 127.11 64.364 127.11 68.5697C127.11 72.7755 130.461 76.1849 134.594 76.1849Z" fill="#A0616A"/>
<path d="M130.913 73.4745C130.585 73.209 130.176 73.0691 129.757 73.0793C129.627 73.1011 129.503 73.1507 129.393 73.2248C129.283 73.299 129.19 73.396 129.12 73.5095C129.081 73.5594 129.031 73.5986 128.973 73.6236C128.915 73.6485 128.852 73.6584 128.79 73.6524C127.992 73.682 126.289 72.1746 126.173 69.2661C126.118 67.8838 125.305 65.5448 126.599 64.278C126.686 63.7667 127.696 58.4827 132.251 58.3371C136.914 58.1863 140.018 59.1394 140.763 60.9476C141.281 62.3833 141.675 63.8622 141.94 65.3675L142.096 66.2625L141.731 65.433C141.724 65.4174 141.058 63.9321 139.822 63.4367C139.802 63.6784 139.741 63.9149 139.643 64.1359C139.24 65.0251 138.224 65.6053 137.054 65.6143C136.245 65.5889 135.448 65.4145 134.701 65.0995C134.786 65.2238 134.833 65.3702 134.838 65.5213C134.842 65.6723 134.804 65.8216 134.727 65.9509C134.65 66.0803 134.539 66.1843 134.405 66.2505C134.271 66.3166 134.122 66.342 133.974 66.3236L133.758 66.2962C133.69 66.2876 133.621 66.3035 133.563 66.3412C133.505 66.3788 133.462 66.4359 133.442 66.5025C133.421 66.5692 133.423 66.6411 133.449 66.7058C133.475 66.7706 133.523 66.824 133.583 66.857L133.774 66.9606L133.542 67.0744C132.612 67.4967 131.845 68.2209 131.362 69.1336C130.879 70.0464 130.707 71.0963 130.873 72.1191L131.142 73.6615L130.913 73.4745Z" fill="#2F2E41"/>
<path d="M249.409 191.146C249.204 191.156 249.002 191.101 248.828 190.99C248.655 190.878 248.52 190.715 248.441 190.523C248.362 190.331 248.343 190.118 248.387 189.914C248.43 189.711 248.534 189.526 248.685 189.384L248.753 189.107C248.744 189.085 248.735 189.063 248.726 189.041C248.52 188.545 248.174 188.123 247.733 187.826C247.291 187.53 246.774 187.373 246.245 187.375C245.716 187.377 245.199 187.538 244.76 187.837C244.321 188.137 243.979 188.562 243.776 189.059C242.966 191.043 241.936 193.031 241.682 195.128C241.57 196.056 241.617 196.996 241.821 197.906C239.92 193.686 238.932 189.099 238.926 184.456C238.926 183.291 238.989 182.127 239.117 180.969C239.222 180.02 239.368 179.077 239.555 178.142C240.574 173.065 242.762 168.306 245.939 164.257C247.477 163.403 248.721 162.09 249.503 160.495C249.786 159.922 249.986 159.31 250.097 158.678C249.924 158.701 249.748 158.716 249.574 158.727C249.52 158.73 249.463 158.733 249.409 158.736L249.389 158.737C249.198 158.745 249.009 158.698 248.844 158.6C248.68 158.502 248.546 158.357 248.46 158.184C248.374 158.01 248.34 157.815 248.36 157.622C248.38 157.429 248.455 157.246 248.576 157.096C248.651 157.002 248.725 156.908 248.8 156.814C248.914 156.67 249.031 156.528 249.145 156.383C249.158 156.369 249.17 156.355 249.182 156.34C249.312 156.175 249.443 156.013 249.574 155.848C249.335 155.471 249.014 155.155 248.636 154.925C247.324 154.143 245.516 154.684 244.569 155.891C243.619 157.098 243.439 158.791 243.769 160.298C244.094 161.581 244.63 162.799 245.356 163.898C245.285 163.991 245.211 164.081 245.14 164.173C243.84 165.874 242.708 167.7 241.758 169.625C241.989 167.468 241.713 165.286 240.954 163.259C240.184 161.369 238.741 159.778 237.471 158.144C235.944 156.182 232.815 157.039 232.546 159.526C232.543 159.55 232.541 159.574 232.538 159.598C232.727 159.706 232.912 159.821 233.092 159.943C233.32 160.097 233.496 160.318 233.597 160.576C233.699 160.834 233.722 161.117 233.663 161.388C233.604 161.659 233.466 161.906 233.266 162.096C233.067 162.286 232.816 162.411 232.546 162.453L232.518 162.457C232.586 163.149 232.704 163.835 232.874 164.509C233.365 166.39 234.232 168.147 235.422 169.671C236.612 171.195 238.098 172.452 239.788 173.364C239.899 173.422 240.007 173.48 240.118 173.535C239.164 176.286 238.565 179.152 238.337 182.06C238.208 183.776 238.216 185.499 238.36 187.214L238.352 187.153C237.987 185.246 236.988 183.526 235.522 182.283C233.344 180.462 230.267 179.792 227.918 178.329C227.668 178.166 227.378 178.079 227.081 178.078C226.785 178.077 226.494 178.163 226.243 178.325C225.993 178.487 225.793 178.718 225.668 178.992C225.542 179.265 225.496 179.57 225.535 179.869C225.538 179.89 225.542 179.912 225.545 179.933C225.895 180.078 226.236 180.245 226.566 180.434C226.755 180.542 226.939 180.657 227.12 180.779C227.347 180.933 227.523 181.153 227.625 181.411C227.727 181.669 227.749 181.952 227.69 182.224C227.631 182.495 227.493 182.742 227.294 182.932C227.095 183.122 226.843 183.246 226.574 183.288L226.546 183.293C226.526 183.296 226.509 183.298 226.489 183.301C227.087 184.755 227.927 186.093 228.972 187.257C230.262 188.666 231.822 189.792 233.555 190.566C235.288 191.339 237.158 191.745 239.051 191.757H239.054C239.568 194.029 240.312 196.24 241.275 198.355H249.21C249.238 198.265 249.264 198.173 249.29 198.083C248.555 198.13 247.818 198.085 247.094 197.95C247.683 197.215 248.271 196.474 248.86 195.739C248.873 195.725 248.886 195.711 248.897 195.696C249.196 195.319 249.497 194.946 249.796 194.57L249.796 194.569C249.812 193.416 249.682 192.266 249.409 191.146Z" fill="#E6E6E6"/>
<path d="M287.551 65.9532C287.704 66.0917 287.811 66.2747 287.859 66.4775C287.906 66.6803 287.892 66.8931 287.816 67.0869C287.741 67.2808 287.609 67.4464 287.438 67.5614C287.267 67.6763 287.065 67.735 286.861 67.7295L286.622 67.8792C286.613 67.9015 286.604 67.9238 286.595 67.9461C286.403 68.4475 286.361 68.9954 286.474 69.5211C286.586 70.0469 286.849 70.527 287.229 70.9012C287.61 71.2753 288.09 71.5269 288.61 71.6242C289.13 71.7215 289.667 71.6602 290.153 71.4481C292.094 70.6022 294.195 69.911 295.816 68.589C296.532 68.0044 297.143 67.2977 297.622 66.5006C296.088 70.8734 293.649 74.8596 290.469 78.189C289.67 79.0236 288.826 79.8122 287.94 80.5509C287.214 81.1559 286.463 81.7271 285.687 82.2645C281.475 85.1764 276.644 87.0301 271.591 87.6733C269.904 87.1925 268.112 87.2495 266.458 87.8366C265.862 88.046 265.299 88.3422 264.786 88.7159C264.926 88.8225 265.062 88.9373 265.194 89.0523C265.235 89.0886 265.278 89.1269 265.318 89.1632L265.334 89.177C265.476 89.3062 265.579 89.4745 265.63 89.6617C265.68 89.849 265.677 90.0471 265.619 90.2323C265.562 90.4175 265.453 90.5819 265.306 90.7056C265.159 90.8294 264.98 90.9072 264.79 90.9297C264.672 90.9437 264.554 90.9576 264.436 90.9715C264.255 90.9943 264.075 91.013 263.894 91.0359C263.875 91.0364 263.856 91.038 263.838 91.0407C263.631 91.0659 263.426 91.0891 263.219 91.1143C263.131 91.554 263.145 92.0083 263.258 92.4419C263.661 93.9325 265.328 94.8296 266.834 94.638C268.342 94.4484 269.631 93.3633 270.429 92.0494C271.077 90.9002 271.527 89.6473 271.762 88.3443C271.876 88.3285 271.991 88.3168 272.105 88.301C274.203 88.0062 276.266 87.503 278.267 86.7986C276.622 88.1793 275.323 89.9376 274.476 91.9289C273.731 93.8287 273.673 95.993 273.462 98.0652C273.209 100.554 276.038 102.163 277.937 100.573C277.955 100.558 277.973 100.542 277.992 100.527C277.931 100.315 277.877 100.102 277.831 99.8863C277.775 99.6145 277.8 99.3316 277.904 99.0747C278.008 98.8177 278.186 98.5988 278.414 98.4464C278.643 98.2941 278.911 98.2155 279.184 98.221C279.457 98.2265 279.722 98.3157 279.944 98.4771L279.967 98.4936C280.394 97.9502 280.779 97.3747 281.12 96.7718C282.059 95.0762 282.643 93.2016 282.836 91.2654C283.029 89.3293 282.827 87.3734 282.243 85.5204C282.203 85.4002 282.165 85.2819 282.124 85.1638C284.694 83.8711 287.089 82.2439 289.247 80.323C290.516 79.1859 291.693 77.9462 292.766 76.616L292.73 76.6656C291.683 78.2895 291.219 80.2312 291.416 82.163C291.727 85.0131 293.47 87.6781 294.149 90.3943C294.216 90.6885 294.364 90.957 294.576 91.1682C294.788 91.3795 295.055 91.5246 295.345 91.5866C295.636 91.6485 295.938 91.6247 296.215 91.5179C296.493 91.4111 296.734 91.2257 296.912 90.9837C296.924 90.9662 296.936 90.9487 296.949 90.9311C296.797 90.5785 296.668 90.2166 296.561 89.8475C296.5 89.6359 296.447 89.4224 296.401 89.2069C296.344 88.9351 296.369 88.6522 296.473 88.3952C296.577 88.1383 296.755 87.9193 296.984 87.767C297.212 87.6147 297.48 87.5361 297.753 87.5415C298.026 87.547 298.291 87.6363 298.514 87.7976L298.536 87.8142C298.553 87.8262 298.567 87.8363 298.583 87.8483C299.152 86.3822 299.468 84.8275 299.519 83.2522C299.561 81.3269 299.216 79.413 298.506 77.628C297.796 75.843 296.734 74.2245 295.387 72.8716L295.385 72.8696C296.576 70.8779 297.559 68.7658 298.32 66.5672L292.638 60.932C292.556 60.976 292.474 61.0242 292.394 61.0703C292.953 61.5582 293.45 62.1139 293.875 62.7248C292.95 62.8331 292.02 62.9456 291.094 63.0538C291.075 63.0544 291.056 63.056 291.038 63.0587C290.566 63.116 290.094 63.1692 289.622 63.2266L289.622 63.2268C288.819 64.0413 288.123 64.9578 287.551 65.9532Z" fill="#E6E6E6"/>
<path d="M150.753 88.5524L143.598 96.8242L147.661 100.808C147.661 100.808 153.555 90.9677 153.751 90.5872C154.292 90.5086 154.798 90.2646 155.2 89.8874C155.602 89.5102 155.882 89.0177 156.003 88.4749C156.125 87.9321 156.081 87.3647 155.878 86.8477C155.676 86.3307 155.324 85.8886 154.868 85.5796C154.413 85.2707 153.877 85.1096 153.33 85.1177C152.783 85.1258 152.251 85.3026 151.805 85.6248C151.359 85.9471 151.02 86.3994 150.832 86.9222C150.644 87.4449 150.617 88.0134 150.753 88.5524Z" fill="#A0616A"/>
<path d="M125.759 83.5339C125.906 92.1678 132.347 99.2748 137.227 107.069C137.946 107.552 138.756 107.877 139.605 108.023C140.455 108.17 141.325 108.134 142.16 107.919C142.995 107.704 143.776 107.314 144.455 106.774C145.133 106.234 145.694 105.556 146.1 104.783L150.38 96.743L144.933 95.1913L142.043 97.1205L136.015 89.9181L125.759 83.5339Z" fill="#3F3D56"/>
</g>
<defs>
<filter id="filter0_d_0_1" x="0" y="0" width="515" height="299" filterUnits="userSpaceOnUse" color-interpolation-filters="sRGB">
<feFlood flood-opacity="0" result="BackgroundImageFix"/>
<feColorMatrix in="SourceAlpha" type="matrix" values="0 0 0 0 0 0 0 0 0 0 0 0 0 0 0 0 0 0 127 0" result="hardAlpha"/>
<feOffset dx="10" dy="10"/>
<feGaussianBlur stdDeviation="5"/>
<feComposite in2="hardAlpha" operator="out"/>
<feColorMatrix type="matrix" values="0 0 0 0 0 0 0 0 0 0 0 0 0 0 0 0 0 0 0.15 0"/>
<feBlend mode="normal" in2="BackgroundImageFix" result="effect1_dropShadow_0_1"/>
<feBlend mode="normal" in="SourceGraphic" in2="effect1_dropShadow_0_1" result="shape"/>
</filter>
<clipPath id="clip0_0_1">
<rect width="295" height="233" fill="white" transform="translate(100 23)"/>
</clipPath>
</defs>
</svg>
