<svg width="515" height="299" viewBox="0 0 515 299" fill="none" xmlns="http://www.w3.org/2000/svg">
<g filter="url(#filter0_d_0_1)">
<rect width="495" height="279" rx="20" fill="white"/>
<rect x="1" y="1" width="493" height="277" rx="19" stroke="black" stroke-width="2"/>
</g>
<g clip-path="url(#clip0_0_1)">
<path d="M326.639 72.5344H169.323C167.731 72.5326 166.204 71.9286 165.078 70.8548C163.952 69.7811 163.318 68.3252 163.316 66.8067V23.7276C163.318 22.2091 163.952 20.7533 165.078 19.6795C166.204 18.6058 167.731 18.0018 169.323 18H339.954C341.546 18.0018 343.073 18.6058 344.199 19.6795C345.325 20.7533 345.959 22.2091 345.961 23.7276V54.1111C345.955 58.9956 343.917 63.6784 340.295 67.1322C336.673 70.5861 331.762 72.5289 326.639 72.5344Z" fill="#F2F2F2"/>
<path d="M272.374 33.321H200.536C200.126 33.321 199.732 33.1654 199.441 32.8883C199.151 32.6113 198.987 32.2356 198.987 31.8438C198.987 31.4521 199.151 31.0763 199.441 30.7993C199.732 30.5223 200.126 30.3667 200.536 30.3667H272.374C272.785 30.3667 273.179 30.5223 273.47 30.7993C273.76 31.0763 273.924 31.4521 273.924 31.8438C273.924 32.2356 273.76 32.6113 273.47 32.8883C273.179 33.1654 272.785 33.321 272.374 33.321Z" fill="white"/>
<path d="M308.74 39.3627H200.536C200.126 39.3627 199.732 39.207 199.441 38.93C199.151 38.653 198.987 38.2773 198.987 37.8855C198.987 37.4937 199.151 37.118 199.441 36.841C199.732 36.564 200.126 36.4083 200.536 36.4083H308.74C309.151 36.4083 309.545 36.564 309.835 36.841C310.126 37.118 310.289 37.4937 310.289 37.8855C310.289 38.2773 310.126 38.653 309.835 38.93C309.545 39.207 309.151 39.3627 308.74 39.3627Z" fill="white"/>
<path d="M308.74 46.2977H200.536C200.126 46.2977 199.732 46.1421 199.441 45.865C199.151 45.588 198.987 45.2123 198.987 44.8205C198.987 44.4288 199.151 44.053 199.441 43.776C199.732 43.499 200.126 43.3434 200.536 43.3434H308.74C309.151 43.3434 309.545 43.499 309.835 43.776C310.126 44.053 310.289 44.4288 310.289 44.8205C310.289 45.2123 310.126 45.588 309.835 45.865C309.545 46.1421 309.151 46.2977 308.74 46.2977Z" fill="white"/>
<path d="M308.74 53.2327H200.536C200.126 53.2327 199.732 53.0771 199.441 52.8C199.151 52.523 198.987 52.1473 198.987 51.7555C198.987 51.3637 199.151 50.988 199.441 50.711C199.732 50.434 200.126 50.2784 200.536 50.2784H308.74C309.151 50.2784 309.545 50.434 309.835 50.711C310.126 50.988 310.289 51.3637 310.289 51.7555C310.289 52.1473 310.126 52.523 309.835 52.8C309.545 53.0771 309.151 53.2327 308.74 53.2327Z" fill="white"/>
<path d="M308.74 60.1677H200.537C200.333 60.168 200.131 60.1301 199.943 60.056C199.755 59.9819 199.584 59.8731 199.439 59.7359C199.295 59.5987 199.181 59.4358 199.103 59.2564C199.025 59.077 198.985 58.8847 198.985 58.6905C198.985 58.4963 199.025 58.3041 199.103 58.1247C199.181 57.9453 199.295 57.7824 199.439 57.6452C199.584 57.508 199.755 57.3992 199.943 57.3251C200.131 57.251 200.333 57.2131 200.537 57.2134H308.74C309.15 57.214 309.544 57.37 309.834 57.6469C310.124 57.9239 310.286 58.2992 310.286 58.6905C310.286 59.0819 310.124 59.4572 309.834 59.7342C309.544 60.0111 309.15 60.1671 308.74 60.1677Z" fill="white"/>
<path d="M285.742 112.172H107.007C105.414 112.17 103.888 111.566 102.761 110.492C101.635 109.419 101.002 107.963 101 106.444V55.6353C101.002 54.1168 101.635 52.661 102.761 51.5872C103.888 50.5135 105.414 49.9094 107.007 49.9077H285.742C287.334 49.9094 288.861 50.5135 289.987 51.5872C291.114 52.661 291.747 54.1168 291.749 55.6353V106.444C291.747 107.963 291.114 109.419 289.987 110.492C288.861 111.566 287.334 112.17 285.742 112.172Z" fill="#E6E6E6"/>
<path d="M268.376 108.308H111.06C109.467 108.307 107.94 107.703 106.814 106.629C105.688 105.555 105.055 104.099 105.053 102.581V59.5018C105.055 57.9832 105.688 56.5274 106.814 55.4536C107.94 54.3799 109.467 53.7759 111.06 53.7741H281.69C283.283 53.7759 284.81 54.3799 285.936 55.4536C287.062 56.5274 287.695 57.9832 287.697 59.5018V89.8852C287.691 94.7697 285.654 99.4525 282.032 102.906C278.409 106.36 273.498 108.303 268.376 108.308Z" fill="white"/>
<path d="M214.111 69.0951H142.273C141.862 69.0951 141.468 68.9395 141.177 68.6625C140.887 68.3855 140.724 68.0098 140.724 67.618C140.724 67.2262 140.887 66.8505 141.177 66.5735C141.468 66.2964 141.862 66.1408 142.273 66.1408H214.111C214.522 66.1408 214.916 66.2964 215.206 66.5735C215.497 66.8505 215.66 67.2262 215.66 67.618C215.66 68.0098 215.497 68.3855 215.206 68.6625C214.916 68.9395 214.522 69.0951 214.111 69.0951Z" fill="#468335"/>
<path d="M250.476 75.1368H142.273C141.862 75.1368 141.468 74.9811 141.177 74.7041C140.887 74.4271 140.724 74.0514 140.724 73.6596C140.724 73.2678 140.887 72.8921 141.177 72.6151C141.468 72.3381 141.862 72.1824 142.273 72.1824H250.476C250.887 72.1824 251.281 72.3381 251.572 72.6151C251.862 72.8921 252.025 73.2678 252.025 73.6596C252.025 74.0514 251.862 74.4271 251.572 74.7041C251.281 74.9811 250.887 75.1368 250.476 75.1368Z" fill="#E6E6E6"/>
<path d="M250.476 82.0718H142.273C141.862 82.0718 141.468 81.9162 141.177 81.6392C140.887 81.3621 140.724 80.9864 140.724 80.5947C140.724 80.2029 140.887 79.8272 141.177 79.5501C141.468 79.2731 141.862 79.1175 142.273 79.1175H250.476C250.887 79.1175 251.281 79.2731 251.572 79.5501C251.862 79.8272 252.025 80.2029 252.025 80.5947C252.025 80.9864 251.862 81.3621 251.572 81.6392C251.281 81.9162 250.887 82.0718 250.476 82.0718Z" fill="#E6E6E6"/>
<path d="M250.476 89.0068H142.273C141.862 89.0068 141.468 88.8512 141.177 88.5742C140.887 88.2972 140.724 87.9214 140.724 87.5297C140.724 87.1379 140.887 86.7622 141.177 86.4851C141.468 86.2081 141.862 86.0525 142.273 86.0525H250.476C250.887 86.0525 251.281 86.2081 251.572 86.4851C251.862 86.7622 252.025 87.1379 252.025 87.5297C252.025 87.9214 251.862 88.2972 251.572 88.5742C251.281 88.8512 250.887 89.0068 250.476 89.0068Z" fill="#E6E6E6"/>
<path d="M250.476 95.9418H142.273C142.069 95.9422 141.867 95.9042 141.679 95.8301C141.491 95.756 141.32 95.6473 141.176 95.5101C141.032 95.3729 140.917 95.2099 140.839 95.0305C140.761 94.8511 140.721 94.6588 140.721 94.4647C140.721 94.2705 140.761 94.0782 140.839 93.8988C140.917 93.7194 141.032 93.5565 141.176 93.4193C141.32 93.2821 141.491 93.1733 141.679 93.0992C141.867 93.0251 142.069 92.9872 142.273 92.9875H250.476C250.887 92.9882 251.28 93.1441 251.57 93.421C251.86 93.698 252.023 94.0733 252.023 94.4647C252.023 94.856 251.86 95.2313 251.57 95.5083C251.28 95.7852 250.887 95.9412 250.476 95.9418Z" fill="#E6E6E6"/>
<path d="M162.587 151.525C160.303 151.525 158.07 150.879 156.171 149.669C154.272 148.459 152.792 146.739 151.918 144.727C151.044 142.715 150.815 140.501 151.26 138.365C151.706 136.229 152.806 134.267 154.421 132.727C156.036 131.187 158.094 130.138 160.334 129.713C162.574 129.288 164.896 129.506 167.006 130.34C169.117 131.173 170.92 132.585 172.189 134.395C173.458 136.206 174.136 138.335 174.136 140.513C174.136 143.434 172.919 146.234 170.753 148.299C168.587 150.365 165.65 151.525 162.587 151.525Z" fill="#E6E6E6"/>
<path d="M167.144 139.427H163.726V136.168C163.726 135.88 163.605 135.605 163.392 135.401C163.178 135.198 162.889 135.084 162.587 135.084C162.285 135.084 161.996 135.198 161.782 135.401C161.569 135.605 161.448 135.88 161.448 136.168V139.427H158.03C157.729 139.427 157.439 139.542 157.226 139.746C157.013 139.949 156.893 140.225 156.893 140.513C156.893 140.801 157.013 141.077 157.226 141.28C157.439 141.484 157.729 141.599 158.03 141.599H161.448V144.858C161.448 145.146 161.569 145.421 161.782 145.625C161.996 145.828 162.285 145.942 162.587 145.942C162.889 145.942 163.178 145.828 163.392 145.625C163.605 145.421 163.726 145.146 163.726 144.858V141.599H167.144C167.294 141.6 167.442 141.572 167.58 141.517C167.719 141.463 167.845 141.383 167.951 141.282C168.057 141.181 168.141 141.061 168.198 140.929C168.256 140.797 168.285 140.656 168.285 140.513C168.285 140.37 168.256 140.229 168.198 140.097C168.141 139.965 168.057 139.845 167.951 139.744C167.845 139.643 167.719 139.563 167.58 139.509C167.442 139.454 167.294 139.427 167.144 139.427Z" fill="white"/>
<path d="M196.374 151.525C194.09 151.525 191.858 150.879 189.958 149.669C188.059 148.459 186.579 146.739 185.705 144.727C184.831 142.715 184.602 140.501 185.048 138.365C185.493 136.229 186.593 134.267 188.208 132.727C189.823 131.187 191.881 130.138 194.121 129.713C196.362 129.288 198.684 129.506 200.794 130.34C202.904 131.173 204.708 132.585 205.977 134.395C207.246 136.206 207.923 138.335 207.923 140.513C207.923 143.434 206.706 146.234 204.54 148.299C202.375 150.365 199.437 151.525 196.374 151.525Z" fill="#E6E6E6"/>
<path d="M200.931 139.427H191.818C191.516 139.427 191.227 139.542 191.014 139.746C190.8 139.949 190.681 140.225 190.681 140.513C190.681 140.801 190.8 141.077 191.014 141.28C191.227 141.484 191.516 141.599 191.818 141.599H200.931C201.081 141.6 201.229 141.572 201.368 141.517C201.506 141.463 201.632 141.383 201.738 141.282C201.844 141.181 201.928 141.061 201.986 140.929C202.043 140.797 202.073 140.656 202.073 140.513C202.073 140.37 202.043 140.229 201.986 140.097C201.928 139.965 201.844 139.845 201.738 139.744C201.632 139.643 201.506 139.563 201.368 139.509C201.229 139.454 201.081 139.427 200.931 139.427Z" fill="white"/>
<path d="M230.162 151.525C227.878 151.525 225.645 150.879 223.746 149.669C221.847 148.459 220.366 146.739 219.492 144.727C218.618 142.715 218.39 140.501 218.835 138.365C219.281 136.229 220.381 134.267 221.996 132.727C223.611 131.187 225.669 130.138 227.909 129.713C230.149 129.288 232.471 129.506 234.581 130.34C236.691 131.173 238.495 132.585 239.764 134.395C241.033 136.206 241.71 138.335 241.71 140.513C241.71 143.434 240.494 146.234 238.328 148.299C236.162 150.365 233.225 151.525 230.162 151.525Z" fill="#468335"/>
<path d="M236.659 139.99L233.385 135.433C233.313 135.333 233.221 135.247 233.114 135.181C233.007 135.115 232.887 135.069 232.762 135.047C232.637 135.024 232.508 135.026 232.383 135.051C232.258 135.076 232.14 135.124 232.035 135.193C231.93 135.262 231.84 135.349 231.77 135.451C231.701 135.553 231.653 135.667 231.629 135.787C231.606 135.906 231.607 136.029 231.634 136.148C231.66 136.267 231.711 136.38 231.783 136.48L233.9 139.427H225.605C225.455 139.427 225.307 139.454 225.168 139.509C225.03 139.563 224.904 139.643 224.798 139.744C224.692 139.845 224.608 139.965 224.55 140.097C224.493 140.229 224.464 140.37 224.464 140.513C224.464 140.656 224.493 140.797 224.55 140.929C224.608 141.061 224.692 141.181 224.798 141.282C224.904 141.383 225.03 141.463 225.168 141.517C225.307 141.572 225.455 141.6 225.605 141.599H234.004L231.783 144.691C231.638 144.894 231.583 145.143 231.631 145.384C231.678 145.625 231.824 145.838 232.036 145.977C232.248 146.115 232.509 146.168 232.762 146.123C233.015 146.078 233.239 145.94 233.385 145.738L236.659 141.181C236.765 140.999 236.821 140.794 236.821 140.586C236.821 140.377 236.765 140.172 236.659 139.99Z" fill="white"/>
<path d="M304.246 255.925L298.912 255.924L296.374 236.304L304.247 236.304L304.246 255.925Z" fill="#A0616A"/>
<path d="M304.434 261.231L288.029 261.231V261.033C288.029 259.418 288.702 257.869 289.9 256.728C291.097 255.586 292.721 254.945 294.414 254.944L297.411 252.777L303.002 254.945L304.434 254.945L304.434 261.231Z" fill="#2F2E41"/>
<path d="M345.103 250.424L340.173 252.365L329.971 235.155L337.248 232.289L345.103 250.424Z" fill="#A0616A"/>
<path d="M347.402 255.259L332.239 261.231L332.16 261.048C331.514 259.556 331.516 257.88 332.165 256.389C332.815 254.897 334.059 253.713 335.624 253.097L337.526 250.002L343.561 249.97L344.885 249.449L347.402 255.259Z" fill="#2F2E41"/>
<path d="M330.177 151.002C330.177 151.002 326.044 138.573 327.757 133.486L337.286 132.934L338.376 151.274L332.93 172.478C333.142 173.083 333.183 173.731 333.048 174.356C332.913 174.982 332.606 175.561 332.16 176.037C331.714 176.513 331.144 176.867 330.507 177.065C329.871 177.263 329.191 177.296 328.537 177.162C327.882 177.028 327.277 176.732 326.781 176.303C326.286 175.873 325.919 175.327 325.716 174.718C325.514 174.11 325.485 173.461 325.63 172.839C325.776 172.216 326.092 171.641 326.546 171.172L330.177 151.002Z" fill="#A0616A"/>
<path d="M336.257 125.541L334.829 119.549C334.291 117.293 333.291 115.162 331.886 113.276C330.482 111.391 328.7 109.789 326.643 108.562C325.367 107.807 323.894 107.407 322.391 107.408C320.889 107.409 319.416 107.811 318.141 108.568C316.419 109.605 315.174 111.227 314.658 113.106C314.142 114.985 314.394 116.98 315.362 118.689C318.303 123.869 318.318 129.738 322.67 129.903L322.5 132.058L328.494 144.545L340.224 141.722L336.257 125.541Z" fill="#E6E6E6"/>
<path d="M328.406 152.626C328.406 152.626 331.458 162.304 329.052 170.567C326.645 178.829 324.705 198.758 324.705 198.758L342.669 241.056L334.312 243.11L307.61 201.517L305.092 245.141L297.036 245.456L290.955 201.769L295.778 157.831L328.406 152.626Z" fill="#2F2E41"/>
<path d="M329.756 161.072L329.805 161.007C332.41 157.529 328.491 149.17 327.9 147.958C328.602 147.741 329.203 147.298 329.602 146.706C330 146.114 330.17 145.408 330.084 144.709L329.829 142.644L329.564 140.618L331.467 138.804L331.472 138.758L332.567 129.622L334.159 123.554C334.759 121.26 334.708 118.855 334.011 116.586C333.314 114.317 331.996 112.266 330.193 110.643L326.513 110.086L322.041 105.977H314.828L312.355 108.23C307.738 109.002 308.711 108.75 304.745 113.287L299.758 126.89L300.208 128.831L300.207 131.463L300.914 139.229C300.503 139.665 300.204 140.187 300.041 140.753C299.878 141.319 299.856 141.913 299.977 142.488L300.127 143.205C298.949 143.687 297.824 152.246 297.555 153.442L297.154 155.228C296.81 155.66 294.544 158.541 294.544 159.329C294.544 159.447 294.635 159.562 294.832 159.689C296.376 160.686 305.707 161.711 309.486 160.269C313.511 158.735 329.512 161.037 329.673 161.06L329.756 161.072Z" fill="#E6E6E6"/>
<path d="M281.529 134.533C281.529 134.533 293.124 127.621 298.718 127.936L301.651 136.598L283.295 142.173L260.401 142.425C259.839 142.771 259.191 142.97 258.523 143.001C257.854 143.032 257.189 142.894 256.595 142.6C256.001 142.307 255.498 141.868 255.139 141.33C254.78 140.791 254.576 140.172 254.549 139.534C254.522 138.897 254.673 138.263 254.986 137.699C255.298 137.135 255.762 136.659 256.329 136.321C256.897 135.983 257.548 135.794 258.217 135.774C258.886 135.753 259.549 135.902 260.138 136.204L281.529 134.533Z" fill="#A0616A"/>
<path d="M308.904 133.807L314.635 130.995C316.792 129.937 318.708 128.483 320.273 126.716C321.838 124.949 323.022 122.905 323.755 120.701C324.205 119.333 324.244 117.874 323.869 116.486C323.493 115.099 322.719 113.839 321.632 112.85C320.15 111.518 318.192 110.772 316.155 110.764C314.119 110.756 312.154 111.485 310.66 112.805C306.131 116.811 300.174 118.286 301.09 122.347L298.858 122.726L287.669 131.371L293.458 141.5L308.904 133.807Z" fill="#E6E6E6"/>
<path d="M318.49 103.388C324.445 103.388 329.273 98.7849 329.273 93.1068C329.273 87.4286 324.445 82.8256 318.49 82.8256C312.535 82.8256 307.708 87.4286 307.708 93.1068C307.708 98.7849 312.535 103.388 318.49 103.388Z" fill="#A0616A"/>
<path d="M311.096 81.2364C311.869 81.2145 311.604 79.8256 312.227 79.3825C312.23 79.3959 312.233 79.4094 312.236 79.4227C312.318 79.7228 312.498 79.9899 312.751 80.1847C313.004 80.3796 313.315 80.4919 313.64 80.5051C313.965 80.5183 314.286 80.4317 314.555 80.2581C314.824 80.0845 315.028 79.833 315.136 79.5407C315.239 79.2026 315.426 78.8931 315.681 78.6381C315.936 78.3832 316.251 78.1904 316.6 78.0759C316.639 79.3632 317.66 80.4805 318.879 81.0365C320.097 81.5926 321.486 81.6851 322.837 81.7041C324.188 81.6521 325.54 81.7498 326.867 81.9952C328.177 82.3103 329.451 83.0512 330.01 84.2234C330.57 85.3956 330.17 87.0094 328.947 87.555C329.895 87.5598 330.699 88.3056 331.027 89.1537C331.295 90.0235 331.365 90.9382 331.232 91.836C330.966 95.1606 330.316 98.7399 327.778 101.033C325.843 102.78 323.073 103.484 320.408 103.474C317.743 103.464 318.211 103.23 315.635 102.581C318.285 102.865 317.562 91.576 313.183 91.1188C313.14 91.0189 313.102 90.9169 313.07 90.8133C312.908 90.2851 312.618 89.8009 312.222 89.4007C311.826 89.0004 311.336 88.6954 310.792 88.5108C310.243 88.3409 309.653 88.3353 309.101 88.4947C308.548 88.6541 308.06 88.971 307.702 89.4027C304.88 86.8794 306.631 81.3628 311.096 81.2364Z" fill="#2F2E41"/>
<path d="M378.775 261.569H364.126L364.064 261.46C363.876 261.136 363.695 260.793 363.526 260.44C362.018 257.36 361.38 253.837 360.817 250.729L360.393 248.386C360.342 248.103 360.381 247.811 360.504 247.548C360.628 247.285 360.831 247.064 361.088 246.912C361.344 246.76 361.642 246.684 361.944 246.695C362.246 246.706 362.537 246.802 362.781 246.971C365.008 248.516 367.235 250.059 369.462 251.6C370.306 252.186 371.269 252.863 372.192 253.595C372.281 253.183 372.374 252.769 372.467 252.362C372.531 252.08 372.682 251.823 372.9 251.624C373.119 251.425 373.394 251.292 373.692 251.243C373.99 251.194 374.296 251.231 374.572 251.348C374.847 251.466 375.08 251.66 375.239 251.905L376.953 254.53C378.203 256.447 379.307 258.337 379.082 260.375C379.083 260.399 379.081 260.424 379.076 260.449C379.031 260.783 378.948 261.112 378.827 261.43L378.775 261.569Z" fill="#F0F0F0"/>
<path d="M393.477 261.871L254.281 262C254.142 261.999 254.009 261.946 253.911 261.852C253.813 261.758 253.758 261.631 253.758 261.499C253.758 261.366 253.813 261.239 253.911 261.145C254.009 261.051 254.142 260.998 254.281 260.998L393.477 260.868C393.616 260.869 393.749 260.922 393.847 261.016C393.945 261.11 394 261.237 394 261.37C394 261.502 393.945 261.629 393.847 261.723C393.749 261.817 393.616 261.87 393.477 261.871Z" fill="#CACACA"/>
</g>
<defs>
<filter id="filter0_d_0_1" x="0" y="0" width="515" height="299" filterUnits="userSpaceOnUse" color-interpolation-filters="sRGB">
<feFlood flood-opacity="0" result="BackgroundImageFix"/>
<feColorMatrix in="SourceAlpha" type="matrix" values="0 0 0 0 0 0 0 0 0 0 0 0 0 0 0 0 0 0 127 0" result="hardAlpha"/>
<feOffset dx="10" dy="10"/>
<feGaussianBlur stdDeviation="5"/>
<feComposite in2="hardAlpha" operator="out"/>
<feColorMatrix type="matrix" values="0 0 0 0 0 0 0 0 0 0 0 0 0 0 0 0 0 0 0.15 0"/>
<feBlend mode="normal" in2="BackgroundImageFix" result="effect1_dropShadow_0_1"/>
<feBlend mode="normal" in="SourceGraphic" in2="effect1_dropShadow_0_1" result="shape"/>
</filter>
<clipPath id="clip0_0_1">
<rect width="293" height="244" fill="white" transform="translate(101 18)"/>
</clipPath>
</defs>
</svg>
