<svg width="515" height="299" viewBox="0 0 515 299" fill="none" xmlns="http://www.w3.org/2000/svg">
<g filter="url(#filter0_d_0_1)">
<rect width="495" height="279" rx="20" fill="white"/>
<rect x="1" y="1" width="493" height="277" rx="19" stroke="black" stroke-width="2"/>
</g>
<g clip-path="url(#clip0_0_1)">
<path d="M219.437 240.238L213.134 246.251L218.143 237.542C214.197 230.126 207.744 223.717 207.744 223.717C207.744 223.717 194.355 237.011 194.355 247.461C194.355 257.911 200.349 261.56 207.744 261.56C215.138 261.56 221.132 257.911 221.132 247.461C221.132 245.135 220.468 242.668 219.437 240.238Z" fill="#F2F2F2"/>
<path d="M211.514 246.577V247.092C211.484 253.08 210.51 257.751 208.598 261.041C208.571 261.089 208.542 261.135 208.514 261.184L208.3 261.048L208.096 260.916C210.217 257.364 210.968 252.343 210.995 247.12C210.997 246.952 211 246.781 210.997 246.61C210.99 244.399 210.859 242.163 210.65 239.99C210.635 239.822 210.618 239.651 210.601 239.48C210.311 236.614 209.892 233.875 209.464 231.496C209.435 231.328 209.403 231.16 209.371 230.994C208.63 226.97 207.875 224.055 207.703 223.41C207.683 223.331 207.671 223.288 207.668 223.277L207.902 223.209L207.904 223.206L208.141 223.137C208.143 223.147 208.185 223.293 208.254 223.563C208.517 224.573 209.201 227.314 209.873 230.93C209.902 231.093 209.934 231.262 209.964 231.43C210.313 233.36 210.655 235.518 210.926 237.782C210.995 238.351 211.056 238.912 211.11 239.465C211.13 239.636 211.147 239.807 211.162 239.975C211.388 242.324 211.506 244.524 211.514 246.577Z" fill="white"/>
<path d="M209.873 230.93C209.708 230.953 209.541 230.976 209.371 230.994C208.91 231.043 208.447 231.068 207.983 231.068C206.008 231.07 204.057 230.614 202.275 229.732C202.171 229.867 202.068 230.002 201.962 230.14C203.837 231.088 205.897 231.58 207.983 231.578C208.478 231.578 208.972 231.55 209.464 231.496C209.632 231.478 209.799 231.455 209.964 231.43C211.324 231.228 212.648 230.812 213.888 230.198C213.782 230.058 213.679 229.92 213.578 229.785C212.404 230.354 211.155 230.74 209.873 230.93Z" fill="white"/>
<path d="M211.11 239.465C210.941 239.475 210.771 239.48 210.601 239.48C210.549 239.483 210.495 239.483 210.444 239.483C208.303 239.483 206.195 238.946 204.298 237.919C202.401 236.892 200.771 235.405 199.549 233.585C199.45 233.735 199.352 233.885 199.256 234.038C200.53 235.881 202.21 237.382 204.155 238.417C206.101 239.453 208.256 239.993 210.444 239.993C210.512 239.993 210.581 239.993 210.65 239.99C210.822 239.988 210.992 239.983 211.162 239.975C213.789 239.835 216.322 238.915 218.457 237.323C218.378 237.172 218.3 237.022 218.219 236.872C216.143 238.434 213.673 239.336 211.11 239.465Z" fill="white"/>
<path d="M211.514 246.577C211.342 246.592 211.169 246.603 210.997 246.61C210.813 246.618 210.628 246.623 210.443 246.623C207.568 246.62 204.77 245.651 202.47 243.862C200.17 242.072 198.49 239.559 197.684 236.698C197.573 236.905 197.462 237.109 197.356 237.315C198.265 240.17 200.019 242.655 202.368 244.417C204.718 246.179 207.543 247.13 210.443 247.133C210.628 247.133 210.813 247.13 210.995 247.12C211.169 247.115 211.342 247.105 211.514 247.092C214.993 246.81 218.238 245.168 220.593 242.5C220.541 242.311 220.482 242.125 220.423 241.936C218.149 244.625 214.953 246.29 211.514 246.577Z" fill="white"/>
<path d="M367.65 31.0668H126.35C126.258 31.0664 126.169 31.028 126.103 30.96C126.038 30.892 126.001 30.7998 126.001 30.7038C126.001 30.6077 126.038 30.5156 126.103 30.4476C126.169 30.3795 126.258 30.3412 126.35 30.3408H367.65C367.742 30.3412 367.831 30.3795 367.897 30.4476C367.962 30.5156 367.999 30.6077 367.999 30.7038C367.999 30.7998 367.962 30.892 367.897 30.96C367.831 31.028 367.742 31.0664 367.65 31.0668Z" fill="#CACACA"/>
<path d="M134.233 25.9853C136.36 25.9853 138.085 24.1977 138.085 21.9926C138.085 19.7876 136.36 18 134.233 18C132.105 18 130.38 19.7876 130.38 21.9926C130.38 24.1977 132.105 25.9853 134.233 25.9853Z" fill="#3F3D56"/>
<path d="M147.541 25.9853C149.669 25.9853 151.393 24.1977 151.393 21.9926C151.393 19.7876 149.669 18 147.541 18C145.413 18 143.689 19.7876 143.689 21.9926C143.689 24.1977 145.413 25.9853 147.541 25.9853Z" fill="#3F3D56"/>
<path d="M160.849 25.9853C162.977 25.9853 164.702 24.1977 164.702 21.9926C164.702 19.7876 162.977 18 160.849 18C158.722 18 156.997 19.7876 156.997 21.9926C156.997 24.1977 158.722 25.9853 160.849 25.9853Z" fill="#3F3D56"/>
<path d="M359.676 20.4421H350.22C350.035 20.4414 349.857 20.3647 349.727 20.2286C349.596 20.0925 349.522 19.9083 349.522 19.7162C349.522 19.5241 349.596 19.3398 349.727 19.2037C349.857 19.0677 350.035 18.9909 350.22 18.9902H359.676C359.768 18.9899 359.86 19.0084 359.945 19.0448C360.03 19.0811 360.108 19.1345 360.173 19.202C360.238 19.2694 360.29 19.3495 360.325 19.4378C360.361 19.526 360.379 19.6206 360.379 19.7162C360.379 19.8117 360.361 19.9063 360.325 19.9946C360.29 20.0828 360.238 20.1629 360.173 20.2304C360.108 20.2978 360.03 20.3512 359.945 20.3876C359.86 20.4239 359.768 20.4424 359.676 20.4421Z" fill="#3F3D56"/>
<path d="M359.676 23.1644H350.22C350.035 23.1637 349.857 23.087 349.727 22.9509C349.596 22.8148 349.522 22.6306 349.522 22.4385C349.522 22.2464 349.596 22.0621 349.727 21.926C349.857 21.79 350.035 21.7132 350.22 21.7125H359.676C359.768 21.7122 359.86 21.7307 359.945 21.7671C360.03 21.8034 360.108 21.8568 360.173 21.9243C360.238 21.9917 360.29 22.0718 360.325 22.1601C360.361 22.2483 360.379 22.3429 360.379 22.4385C360.379 22.534 360.361 22.6286 360.325 22.7168C360.29 22.8051 360.238 22.8852 360.173 22.9527C360.108 23.0201 360.03 23.0735 359.945 23.1099C359.86 23.1462 359.768 23.1647 359.676 23.1644Z" fill="#3F3D56"/>
<path d="M359.676 25.8867H350.22C350.035 25.886 349.857 25.8092 349.727 25.6732C349.596 25.5371 349.522 25.3528 349.522 25.1607C349.522 24.9687 349.596 24.7844 349.727 24.6483C349.857 24.5123 350.035 24.4355 350.22 24.4348H359.676C359.768 24.4345 359.86 24.453 359.945 24.4894C360.03 24.5257 360.108 24.5791 360.173 24.6466C360.238 24.714 360.29 24.7941 360.325 24.8824C360.361 24.9706 360.379 25.0652 360.379 25.1607C360.379 25.2563 360.361 25.3509 360.325 25.4391C360.29 25.5274 360.238 25.6075 360.173 25.675C360.108 25.7424 360.03 25.7958 359.945 25.8321C359.86 25.8685 359.768 25.887 359.676 25.8867Z" fill="#3F3D56"/>
<path d="M354.399 47.4814H133.269V168.904H354.399V47.4814Z" fill="#F0F0F0"/>
<path d="M354.399 70.2098V69.019H311.354V47.4814H310.205V69.019H267.16V47.4814H266.011V69.019H222.966V47.4814H221.817V69.019H178.771V47.4814H177.622V69.019H133.269V70.2098H177.622V94.0033H133.269V95.1941H177.622V118.988H133.269V120.178H177.622V143.968H133.269V145.158H177.622V168.904H178.771V145.158H221.817V168.904H222.966V145.158H266.011V168.904H267.16V145.158H310.205V168.904H311.354V145.158H354.399V143.968H311.354V120.178H354.399V118.988H311.354V95.1941H354.399V94.0034H311.354V70.2098L354.399 70.2098ZM221.817 143.968H178.771V120.178H221.817V143.968ZM221.817 118.988H178.771V95.1941H221.817V118.988ZM221.817 94.0034H178.771V70.2098H221.817V94.0034ZM266.011 143.968H222.966V120.178H266.011V143.968ZM266.011 118.988H222.966V95.1941H266.011V118.988ZM266.011 94.0034H222.966V70.2098H266.011V94.0034ZM310.205 143.968H267.16V120.178H310.205V143.968ZM310.205 118.988H267.16V95.1941H310.205V118.988ZM310.205 94.0034H267.16V70.2099H310.205V94.0034Z" fill="white"/>
<path d="M202.128 75.9962H187.334V90.8397H202.128V75.9962Z" fill="#CACACA"/>
<path d="M338.329 124.06H323.535V138.903H338.329V124.06Z" fill="#CACACA"/>
<path d="M206.724 148.741H191.93V163.584H206.724V148.741Z" fill="#CACACA"/>
<path d="M211.096 73.2423H196.302V88.0858H211.096V73.2423Z" fill="#468335"/>
<path d="M280.638 134.944L298.194 118.734L303.373 121.393L282.317 144.281L280.638 134.944Z" fill="#FFB6B6"/>
<path d="M300.504 124.305C302.811 124.305 304.682 122.366 304.682 119.975C304.682 117.583 302.811 115.645 300.504 115.645C298.197 115.645 296.326 117.583 296.326 119.975C296.326 122.366 298.197 124.305 300.504 124.305Z" fill="#FFB6B6"/>
<path d="M264.206 256.956H260.052L258.076 240.35L264.206 240.35L264.206 256.956Z" fill="#FFB6B6"/>
<path d="M265.265 261.129L251.871 261.128V260.953C251.871 259.52 252.421 258.145 253.398 257.132C254.376 256.119 255.702 255.55 257.085 255.55L265.265 255.55L265.265 261.129Z" fill="#2F2E41"/>
<path d="M249.165 256.956H245.011L243.035 240.35L249.166 240.35L249.165 256.956Z" fill="#FFB6B6"/>
<path d="M250.225 261.129L236.831 261.128V260.953C236.831 259.52 237.38 258.145 238.358 257.132C239.335 256.119 240.661 255.55 242.044 255.55L250.225 255.55L250.225 261.129Z" fill="#2F2E41"/>
<path d="M267.695 162.034C267.695 162.034 278.14 161.168 274.797 180.22C271.455 199.272 264.532 251.389 264.532 251.389L258.255 252.283L254.547 182.76L251.741 252.283L243.758 251.389L235.942 176.756C235.942 176.756 233.433 170.755 235.941 166.611C238.449 162.467 267.695 162.034 267.695 162.034Z" fill="#2F2E41"/>
<path d="M261.01 114.837L263.91 113.226C263.91 113.226 271.055 112.595 273.97 121.293L281.703 133.398L294.237 122.14L299.668 126.037L283.872 145.576L277.304 146.446L263.099 127.394L261.01 114.837Z" fill="#3F3D56"/>
<path d="M250.487 79.7056C238.573 79.7056 235.238 93.2702 235.238 100.923C235.238 108.575 242.065 107.418 250.487 107.418C254.102 107.418 257.421 107.629 260.035 107.268L261.292 104.086L262.303 106.722C264.449 105.905 265.737 104.245 265.737 100.923C265.737 93.2702 262.812 79.7056 250.487 79.7056Z" fill="#2F2E41"/>
<path d="M250.436 107.405C256.103 107.405 260.698 102.644 260.698 96.77C260.698 90.8965 256.103 86.135 250.436 86.135C244.769 86.135 240.175 90.8965 240.175 96.77C240.175 102.644 244.769 107.405 250.436 107.405Z" fill="#FFB6B6"/>
<path d="M238.58 95.7266H242.639L244.429 90.5306L244.787 95.7266H246.727L247.771 92.6956L247.98 95.7266H262.394C262.394 92.7408 261.25 89.8772 259.213 87.7659C257.176 85.6546 254.413 84.4685 251.532 84.4685H249.443C246.562 84.4685 243.799 85.6546 241.762 87.7659C239.724 89.8772 238.58 92.7408 238.58 95.7266Z" fill="#2F2E41"/>
<path d="M307.189 103.553H292.395V118.396H307.189V103.553Z" fill="#468335"/>
<path d="M270.941 158.116C269.366 158.137 264.62 128.953 264.62 128.953L263.91 113.226L258.725 113.046V112.692C258.725 111.982 258.452 111.302 257.968 110.8C257.484 110.298 256.827 110.016 256.142 110.016H246.266C245.61 110.016 244.979 110.275 244.501 110.741C244.023 111.206 243.734 111.843 243.692 112.522L239.626 112.38L232.584 135.569C232.584 135.569 239.073 157.116 235.941 166.611C235.941 166.611 266.456 169.327 272.298 163.299C272.298 163.299 272.517 158.095 270.941 158.116Z" fill="#3F3D56"/>
<path d="M241.374 115.27L239.626 112.38C239.626 112.38 233.94 110.923 231.599 114.828C229.258 118.734 222.376 139.893 222.376 139.893L229.479 142.491L237.539 130.78L241.374 115.27Z" fill="#3F3D56"/>
<path d="M259.142 130.399H244.349V145.242H259.142V130.399Z" fill="#468335"/>
<path d="M232.998 135.764L227.852 135.199C227.527 135.918 227.363 136.704 227.375 137.497C227.386 138.291 227.571 139.071 227.917 139.78C228.262 140.488 228.758 141.106 229.368 141.586C229.977 142.066 230.684 142.397 231.435 142.552L251.8 146.764L249.676 139.984L232.998 135.764Z" fill="#FFB6B6"/>
<path d="M251.861 146.842C254.169 146.842 256.039 144.904 256.039 142.512C256.039 140.121 254.169 138.182 251.861 138.182C249.554 138.182 247.683 140.121 247.683 142.512C247.683 144.904 249.554 146.842 251.861 146.842Z" fill="#FFB6B6"/>
<path d="M246.646 146.974L231.131 143.3C230.007 143.031 228.969 142.465 228.117 141.658C227.266 140.85 226.63 139.829 226.271 138.693L225.644 136.689L229.671 133.405L248.117 138.748L246.646 146.974Z" fill="#3F3D56"/>
<path d="M333.827 262H174.648C174.537 262 174.43 261.954 174.352 261.873C174.274 261.792 174.23 261.682 174.23 261.567C174.23 261.452 174.274 261.342 174.352 261.261C174.43 261.18 174.537 261.134 174.648 261.134H333.827C333.938 261.134 334.044 261.18 334.123 261.261C334.201 261.342 334.245 261.452 334.245 261.567C334.245 261.682 334.201 261.792 334.123 261.873C334.044 261.954 333.938 262 333.827 262Z" fill="#CACACA"/>
</g>
<defs>
<filter id="filter0_d_0_1" x="0" y="0" width="515" height="299" filterUnits="userSpaceOnUse" color-interpolation-filters="sRGB">
<feFlood flood-opacity="0" result="BackgroundImageFix"/>
<feColorMatrix in="SourceAlpha" type="matrix" values="0 0 0 0 0 0 0 0 0 0 0 0 0 0 0 0 0 0 127 0" result="hardAlpha"/>
<feOffset dx="10" dy="10"/>
<feGaussianBlur stdDeviation="5"/>
<feComposite in2="hardAlpha" operator="out"/>
<feColorMatrix type="matrix" values="0 0 0 0 0 0 0 0 0 0 0 0 0 0 0 0 0 0 0.15 0"/>
<feBlend mode="normal" in2="BackgroundImageFix" result="effect1_dropShadow_0_1"/>
<feBlend mode="normal" in="SourceGraphic" in2="effect1_dropShadow_0_1" result="shape"/>
</filter>
<clipPath id="clip0_0_1">
<rect width="242" height="244" fill="white" transform="translate(126 18)"/>
</clipPath>
</defs>
</svg>
