<svg width="515" height="299" viewBox="0 0 515 299" fill="none" xmlns="http://www.w3.org/2000/svg">
<g clip-path="url(#clip0_2_575)">
<g filter="url(#filter0_d_2_575)">
<path d="M475 0H20C8.9543 0 0 8.9543 0 20V259C0 270.046 8.9543 279 20 279H475C486.046 279 495 270.046 495 259V20C495 8.9543 486.046 0 475 0Z" fill="white"/>
<path d="M475 1H20C9.50659 1 1 9.50659 1 20V259C1 269.493 9.50659 278 20 278H475C485.493 278 494 269.493 494 259V20C494 9.50659 485.493 1 475 1Z" stroke="black" stroke-width="2"/>
</g>
<mask id="mask0_2_575" style="mask-type:luminance" maskUnits="userSpaceOnUse" x="107" y="35" width="302" height="210">
<path d="M409 35H107V245H409V35Z" fill="white"/>
</mask>
<g mask="url(#mask0_2_575)">
<path d="M348.628 241.949L343.747 241.948L341.424 225.542H348.629L348.628 241.949Z" fill="#FFB6B6"/>
<path d="M331.903 241.852C331.751 242.075 331.671 242.795 331.671 243.054C331.671 243.852 332.413 244.498 333.328 244.498H348.446C349.07 244.498 349.576 244.057 349.576 243.513V242.965C349.576 242.965 350.324 241.316 348.784 239.285C348.784 239.285 346.87 240.876 344.011 238.384L343.168 237.053L337.064 240.943L333.68 241.305C332.94 241.385 332.284 241.293 331.903 241.852Z" fill="#2F2E41"/>
<path d="M326.433 241.949L321.552 241.948L319.23 225.542H326.434L326.433 241.949Z" fill="#FFB6B6"/>
<path d="M309.709 241.852C309.557 242.075 309.476 242.795 309.476 243.054C309.476 243.852 310.218 244.498 311.133 244.498H326.251C326.875 244.498 327.381 244.057 327.381 243.513V242.965C327.381 242.965 328.129 241.316 326.589 239.285C326.589 239.285 324.676 240.876 321.816 238.384L320.973 237.053L314.869 240.943L311.486 241.305C310.746 241.385 310.089 241.293 309.709 241.852Z" fill="#2F2E41"/>
<path d="M356.462 139.52L322.491 140.309L319.027 147.413L314.79 193.589L318.414 234.24H328.992V195.873L336.985 172.277L340.156 233.056L351.076 234.24L355.556 192.405L359.633 152.544L356.462 139.52Z" fill="#2F2E41"/>
<path d="M344.393 86.6345L332.616 87.0292L331.257 91.7652C331.257 91.7652 316.763 95.3172 317.669 100.053C318.574 104.789 323.104 125.707 323.104 125.707C323.104 125.707 318.122 139.125 321.292 140.704C324.463 142.283 357.136 140.704 357.136 140.704C357.136 140.704 359.793 134.784 358.434 133.995C357.075 133.205 362.511 95.3172 361.605 94.5279C360.699 93.7385 345.752 89.7919 345.752 89.7919L344.393 86.6345Z" fill="#0E7040"/>
<path d="M367.493 126.101L368.399 131.627L358.434 151.36L353.452 148.992L358.887 130.443L359.793 123.339L367.493 126.101Z" fill="#FFB6B6"/>
<path d="M357.981 94.9226C357.981 94.9226 362.964 92.9493 366.587 100.053C370.211 107.157 369.305 122.549 369.305 122.549C369.305 122.549 370.664 123.733 369.758 124.523C368.852 125.312 367.13 123.455 368.852 125.965C369.758 127.285 372.476 126.891 369.758 127.285C367.04 127.68 367.993 126.577 368.852 128.075C369.305 128.864 371.117 128.864 369.305 129.259C367.493 129.653 358.377 128.976 358.377 128.976C358.377 128.976 355.264 127.68 357.075 126.891C358.887 126.101 359.793 125.946 358.887 125.629C357.981 125.312 355.716 125.312 357.075 124.128C358.434 122.944 359.34 122.944 358.434 122.944C357.528 122.944 356.509 121.042 356.509 121.042L357.981 94.9226Z" fill="#0E7040"/>
<path d="M357.867 154.672C358.97 151.793 358.275 148.997 356.313 148.426C354.352 147.855 351.867 149.725 350.763 152.604C349.659 155.483 350.355 158.279 352.316 158.85C354.278 159.421 356.763 157.55 357.867 154.672Z" fill="#FFB6B6"/>
<path d="M304.394 124.232L300.791 128.846L278.168 137.578L276.318 132.903L294.678 122.387L300.841 117.67L304.394 124.232Z" fill="#FFB6B6"/>
<path d="M321.475 95.6084C321.475 95.6084 326.683 97.0753 323.867 104.452C321.052 111.829 308.48 122.671 308.48 122.671C308.48 122.671 308.568 124.343 307.289 124.395C306.009 124.446 306.173 122.063 305.504 124.928C305.152 126.436 307.466 127.74 305.152 126.436C302.839 125.132 304.396 124.876 303.873 126.488C303.597 127.337 304.936 128.4 303.292 127.628C301.648 126.856 295.435 121.004 295.435 121.004C295.435 121.004 294.137 118.218 296.086 118.699C298.035 119.179 298.825 119.596 298.4 118.83C297.976 118.064 296.302 116.735 298.222 116.657C300.142 116.58 300.811 117.112 300.142 116.58C299.472 116.048 300.19 114.045 300.19 114.045L321.475 95.6084Z" fill="#0E7040"/>
<path d="M275.188 139.692C278.23 138.213 279.878 135.738 278.87 134.164C277.862 132.591 274.579 132.514 271.538 133.994C268.496 135.473 266.848 137.947 267.856 139.521C268.864 141.095 272.146 141.171 275.188 139.692Z" fill="#FFB6B6"/>
<path d="M339.018 84.7053C345.026 84.7053 349.896 80.4618 349.896 75.2272C349.896 69.9925 345.026 65.749 339.018 65.749C333.01 65.749 328.14 69.9925 328.14 75.2272C328.14 80.4618 333.01 84.7053 339.018 84.7053Z" fill="#FFB6B6"/>
<path d="M330.329 67.6037C330.883 66.2359 332.418 65.406 334.082 65.4384C334.153 65.4397 334.223 65.4392 334.293 65.4367C335.131 65.4068 335.936 65.1574 336.757 65.0111C338.289 64.7384 339.904 64.8297 341.382 65.2725C341.842 65.4102 342.302 65.5833 342.788 65.5834C343.274 65.5834 343.803 65.3513 343.921 64.9407C343.949 65.3124 343.977 65.6841 344.006 66.0558C344.164 65.755 344.322 65.4541 344.48 65.1532L344.797 66.3531L345.811 65.3503C345.72 65.7923 346.016 66.2377 346.416 66.5203C346.817 66.8029 347.311 66.9592 347.785 67.1353C349.831 67.8952 351.752 69.2405 352.342 71.1091C352.714 72.2897 352.52 73.5426 352.322 74.7548C352.148 75.8265 351.958 76.9352 351.29 77.8474C350.861 78.4322 350.243 78.9243 349.982 79.5799C349.739 80.1909 349.831 80.8905 349.485 81.4627C349.138 82.0374 348.42 82.3625 347.718 82.5809C347.016 82.7993 346.27 82.9538 345.665 83.3338C345.06 83.7139 344.359 84.8087 343.041 84.7498L342.616 84.0537C342.179 83.7432 343.797 83.9894 343.814 83.498C343.831 83.0067 341.867 82.7031 342.145 82.2755C342.572 81.6198 343.15 81.0492 343.631 80.4226C344.194 79.6898 344.636 78.8336 344.442 77.9393C344.366 77.5914 344.179 77.2627 343.895 77.01C343.074 76.2814 342.159 76.6017 341.27 76.7059C340.657 76.7778 339.925 76.6948 339.607 76.2327C339.235 75.6922 339.65 75.0045 339.599 74.3757C339.545 73.7094 338.966 73.163 338.335 72.7831C337.705 72.4032 336.989 72.1265 336.421 71.6772C335.854 71.2278 335.944 71.4609 336.191 70.8286C331.974 73.5847 332.597 68.826 329.766 69.4208C329.9 68.8038 330.089 68.196 330.329 67.6037Z" fill="#2F2E41"/>
<path d="M278.599 237.075C277.49 237.58 276.381 238.262 275.541 239.47C275.383 239.698 275.242 239.946 275.11 240.203C275.482 237.893 276.225 235.719 277.296 233.909C277.691 233.241 277.028 232.262 276.63 232.934C274.932 233.703 274.217 235.5 273.944 237.627C273.606 236.865 273.191 236.178 272.707 235.605C272.51 235.372 272.234 235.323 272.041 235.605C271.876 235.847 271.842 236.345 272.041 236.58C271.311 239.923 273.196 240.959 273.847 242.624C273.862 242.993 273.877 243.357 273.892 243.713C273.906 244.066 274.06 244.276 274.239 244.348C274.326 244.545 274.482 244.681 274.641 244.681C274.908 244.681 275.098 244.365 275.113 243.992C275.165 242.623 275.326 240.247 276.258 240.373C278.245 240.641 278.337 239.241 278.849 238.404C279.252 237.745 279.18 236.811 278.599 237.075Z" fill="#E6E6E6"/>
<path d="M378.496 237.075C379.604 237.58 380.713 238.262 381.553 239.47C381.711 239.698 381.852 239.946 381.984 240.203C381.612 237.893 380.869 235.719 379.798 233.909C379.403 233.241 380.067 232.262 380.464 232.934C382.162 233.703 382.877 235.5 383.15 237.627C383.488 236.865 383.903 236.178 384.387 235.605C384.585 235.372 384.86 235.323 385.053 235.605C385.219 235.847 385.252 236.345 385.053 236.58C385.784 239.923 383.898 240.959 383.247 242.624C383.232 242.993 383.217 243.357 383.202 243.713C383.188 244.066 383.034 244.276 382.855 244.348C382.769 244.545 382.612 244.681 382.453 244.681C382.186 244.681 381.996 244.365 381.982 243.992C381.929 242.623 381.768 240.247 380.836 240.373C378.849 240.641 378.758 239.241 378.245 238.404C377.842 237.745 377.914 236.811 378.496 237.075Z" fill="#E6E6E6"/>
<path d="M195.14 244.453C195.14 244.757 195.419 245 195.767 245H408.373C408.721 245 409 244.757 409 244.453C409 244.15 408.721 243.907 408.373 243.907H195.767C195.419 243.907 195.14 244.15 195.14 244.453Z" fill="#CCCCCC"/>
<path d="M221.879 245H128.872C117.531 245 108.305 236.961 108.305 227.079V52.9204C108.305 43.0391 117.531 35 128.872 35H221.879C233.22 35 242.446 43.0391 242.446 52.9204V227.079C242.446 236.961 233.22 245 221.879 245Z" fill="#3F3D56"/>
<path d="M242.446 99.0613C241.966 99.0613 241.576 99.4013 241.576 99.8194V124.079C241.576 124.497 241.966 124.837 242.446 124.837C242.926 124.837 243.316 124.497 243.316 124.079V99.8194C243.316 99.4013 242.926 99.0613 242.446 99.0613Z" fill="#3F3D56"/>
<path d="M240.488 52.9206V227.076C240.488 235.677 232.806 242.713 223.091 243.259H223.087C222.943 243.266 222.8 243.274 222.652 243.277C222.395 243.289 222.138 243.293 221.877 243.293C221.877 243.293 220.92 243.232 219.171 243.118C217.405 243.005 214.834 242.834 211.628 242.61C210.666 242.546 209.653 242.474 208.583 242.398C206.451 242.246 204.11 242.08 201.6 241.89C200.6 241.818 199.564 241.738 198.507 241.659C193.104 241.253 187.052 240.779 180.67 240.241C179.591 240.154 178.504 240.063 177.407 239.968C177.12 239.942 176.829 239.919 176.537 239.892C171.987 239.502 110.263 229.108 110.263 227.076V52.9206C110.263 43.9634 118.594 36.7043 128.874 36.7043H139.985C141.76 36.7043 143.187 37.9098 143.339 39.4525C143.352 39.5549 143.365 39.6572 143.387 39.7596C143.709 41.3099 145.34 42.3903 147.15 42.3903H203.601C205.411 42.3903 207.042 41.3099 207.364 39.7596C207.386 39.6572 207.399 39.5549 207.412 39.4525C207.565 37.9098 208.991 36.7043 210.766 36.7043H221.877C232.157 36.7043 240.488 43.9634 240.488 52.9206Z" fill="white"/>
<path d="M107.87 80.8665C107.39 80.8665 107 81.2065 107 81.6246V87.6896C107 88.1077 107.39 88.4477 107.87 88.4477C108.35 88.4477 108.74 88.1077 108.74 87.6896V81.6246C108.74 81.2065 108.35 80.8665 107.87 80.8665Z" fill="#3F3D56"/>
<path d="M107.87 99.0613C107.39 99.0613 107 99.4013 107 99.8194V111.57C107 111.988 107.39 112.328 107.87 112.328C108.35 112.328 108.74 111.988 108.74 111.57V99.8194C108.74 99.4013 108.35 99.0613 107.87 99.0613Z" fill="#3F3D56"/>
<path d="M107.87 115.74C107.39 115.74 107 116.08 107 116.498V128.249C107 128.667 107.39 129.007 107.87 129.007C108.35 129.007 108.74 128.667 108.74 128.249V116.498C108.74 116.08 108.35 115.74 107.87 115.74Z" fill="#3F3D56"/>
<path d="M139.682 39.3594H123.043C122.952 39.3594 122.879 39.4231 122.879 39.5018V41.1122C122.879 41.1909 122.952 41.2547 123.043 41.2547H139.682C139.772 41.2547 139.846 41.1909 139.846 41.1122V39.5018C139.846 39.4231 139.772 39.3594 139.682 39.3594Z" fill="#E6E6E6"/>
<path d="M213.516 41.2544C214.477 41.2544 215.256 40.5756 215.256 39.7382C215.256 38.9008 214.477 38.2219 213.516 38.2219C212.555 38.2219 211.776 38.9008 211.776 39.7382C211.776 40.5756 212.555 41.2544 213.516 41.2544Z" fill="#E6E6E6"/>
<path d="M218.301 41.2544C219.262 41.2544 220.041 40.5756 220.041 39.7382C220.041 38.9008 219.262 38.2219 218.301 38.2219C217.34 38.2219 216.561 38.9008 216.561 39.7382C216.561 40.5756 217.34 41.2544 218.301 41.2544Z" fill="#E6E6E6"/>
<path d="M223.087 41.2544C224.048 41.2544 224.827 40.5756 224.827 39.7382C224.827 38.9008 224.048 38.2219 223.087 38.2219C222.126 38.2219 221.347 38.9008 221.347 39.7382C221.347 40.5756 222.126 41.2544 223.087 41.2544Z" fill="#E6E6E6"/>
<path d="M235.784 235.078L239.799 234.197L237.057 218.043L231.131 219.343L235.784 235.078Z" fill="#FFB6B6"/>
<path d="M251.777 239.026C251.963 239.613 251.636 240.204 251.046 240.347L243.128 242.258C243.128 242.258 241.481 239.717 237.93 239.31L238.952 243.266L234.867 244.253L233.366 237.856C233.366 237.856 231.206 234.761 232.929 232.497C234.652 230.232 232.89 230.915 232.89 230.915L232.548 226.814L238.921 225.957L240.906 232.044L245.827 237.375L250.822 238.205C251.267 238.279 251.642 238.601 251.777 239.026Z" fill="#2F2E41"/>
<path d="M197.325 232.271L201.196 233.551L209.56 218.939L203.847 217.049L197.325 232.271Z" fill="#FFB6B6"/>
<path d="M207.845 243.485C207.612 244.06 206.956 244.381 206.378 244.204L198.63 241.822C198.63 241.822 198.949 238.917 196.305 236.812L194.543 240.566L190.546 239.337L193.518 233.343C193.518 233.343 193.779 229.728 196.68 228.731C199.581 227.734 197.688 227.415 197.688 227.415L200.101 223.881L205.89 226.357L203.518 232.339L204.051 239.164L207.601 242.336C207.917 242.618 208.013 243.07 207.845 243.485Z" fill="#2F2E41"/>
<path d="M214.133 87.8043H193.588C193.618 86.9644 193.412 86.1244 192.991 85.3719C192.981 86.2075 192.765 87.0431 192.368 87.8043H191.434C190.008 87.8043 188.848 86.7937 188.848 85.5513V73.9188C188.848 68.2229 193.985 63.5288 200.512 63.2575C200.708 63.2488 200.898 63.2444 201.094 63.2444C206.411 63.2444 211.161 66.2498 212.778 70.7033C215.153 69.7497 216.574 75.17 217.517 83.7796C218.235 85.7744 216.528 87.8043 214.133 87.8043Z" fill="#2F2E41"/>
<path d="M254.45 154.31C255.468 156.414 255.048 158.577 253.512 159.142C251.975 159.707 249.904 158.459 248.886 156.355C248.44 155.434 248.27 154.502 248.348 153.697L244.161 144.736L249.029 143.113L252.64 152.12C253.356 152.633 254.004 153.389 254.45 154.31Z" fill="#FFB6B6"/>
<path d="M209.434 83.8672L199.613 85.6571L201.12 89.5944L198.107 119.708L203.128 129.405L233.755 127.217L226.224 114.093C226.224 114.093 229.236 103.156 225.22 100.969C221.203 98.7815 214.676 87.8445 214.676 87.8445L209.434 83.8672Z" fill="#0E7040"/>
<path d="M200.28 87.3984L191.58 90.4694L194.593 128.967L188.066 162.216L209.153 165.278C209.153 165.278 206.643 91.7818 205.136 90.4694C203.63 89.157 200.28 87.3984 200.28 87.3984Z" fill="#2F2E41"/>
<path d="M217.318 92.201C217.318 92.201 222.979 89.0803 226.037 91.3909C229.096 93.7015 252.643 149.556 252.643 149.556L246.291 151.96L231.726 125.35L217.318 92.201Z" fill="#2F2E41"/>
<path d="M233.534 186.307L239.278 224.775L231.245 225.212C231.245 225.212 227.067 215.281 222.303 203.583C221.288 201.103 220.249 198.544 219.22 195.98C218.105 193.198 216.996 190.415 215.941 187.729C213.335 181.106 211.051 175.077 209.746 171.14C209.52 170.449 209.319 169.823 209.153 169.272C205.639 157.513 203.63 126.78 203.63 126.78L232.751 124.593L233.062 124.929L239.278 131.697L238.987 133.128L231.245 170.965L233.534 186.307Z" fill="#2F2E41"/>
<path d="M231.245 170.965L233.534 186.307L223.237 202.105L222.303 203.583L208.124 226.035L201.12 222.574C201.12 222.574 210.233 204.327 215.941 187.729C216.574 185.905 217.161 184.098 217.689 182.339C219.24 177.19 216.699 167.793 217.694 165.203C221.052 156.463 231.998 138.977 237.079 131.054L238.987 133.128L231.245 170.965Z" fill="#2F2E41"/>
<path d="M214.549 87.5117L224.718 90.9068L251.328 158.716L235.261 160.903L227.73 121.53L214.549 87.5117Z" fill="#2F2E41"/>
<path d="M189.124 160.706C188.865 162.978 187.31 164.704 185.651 164.56C183.991 164.417 182.856 162.459 183.115 160.186C183.228 159.192 183.59 158.302 184.1 157.628L185.335 148.012L190.502 148.613L188.736 158.029C189.084 158.777 189.238 159.711 189.124 160.706Z" fill="#FFB6B6"/>
<path d="M195.095 90.4693C195.095 90.4693 188.568 89.1568 186.559 92.2192C184.551 95.2815 183.547 154.778 183.547 154.778L190.453 155.216L194.091 125.905L195.095 90.4693Z" fill="#2F2E41"/>
<path d="M203.425 82.8062C209.189 82.8062 213.862 78.7347 213.862 73.7122C213.862 68.6897 209.189 64.6182 203.425 64.6182C197.661 64.6182 192.988 68.6897 192.988 73.7122C192.988 78.7347 197.661 82.8062 203.425 82.8062Z" fill="#FFB6B6"/>
<path d="M216.527 72.9301C216.527 72.9301 211.442 71.6176 208.398 72.9301C204.168 74.7539 193.367 72.9301 193.367 72.9301V68.819C193.367 66.419 195.418 64.3946 198.151 64.0969L205.945 63.248C212.063 62.5817 217.467 66.7382 217.467 72.1104C217.467 72.5631 217.046 72.9301 216.527 72.9301Z" fill="#2F2E41"/>
<path d="M205.417 87.8042H193.588C193.618 86.9643 193.412 86.1243 192.991 85.3718C192.981 86.2074 192.765 87.043 192.368 87.8042H191.861V69.4302H200.898L205.417 87.8042Z" fill="#2F2E41"/>
</g>
</g>
<defs>
<filter id="filter0_d_2_575" x="0" y="0" width="515" height="299" filterUnits="userSpaceOnUse" color-interpolation-filters="sRGB">
<feFlood flood-opacity="0" result="BackgroundImageFix"/>
<feColorMatrix in="SourceAlpha" type="matrix" values="0 0 0 0 0 0 0 0 0 0 0 0 0 0 0 0 0 0 127 0" result="hardAlpha"/>
<feOffset dx="10" dy="10"/>
<feGaussianBlur stdDeviation="5"/>
<feComposite in2="hardAlpha" operator="out"/>
<feColorMatrix type="matrix" values="0 0 0 0 0 0 0 0 0 0 0 0 0 0 0 0 0 0 0.15 0"/>
<feBlend mode="normal" in2="BackgroundImageFix" result="effect1_dropShadow_2_575"/>
<feBlend mode="normal" in="SourceGraphic" in2="effect1_dropShadow_2_575" result="shape"/>
</filter>
<clipPath id="clip0_2_575">
<rect width="515" height="299" fill="white"/>
</clipPath>
</defs>
</svg>
