<svg width="515" height="299" viewBox="0 0 515 299" fill="none" xmlns="http://www.w3.org/2000/svg">
<g clip-path="url(#clip0_2_631)">
<g filter="url(#filter0_d_2_631)">
<path d="M475 0H20C8.9543 0 0 8.9543 0 20V259C0 270.046 8.9543 279 20 279H475C486.046 279 495 270.046 495 259V20C495 8.9543 486.046 0 475 0Z" fill="white"/>
<path d="M475 1H20C9.50659 1 1 9.50659 1 20V259C1 269.493 9.50659 278 20 278H475C485.493 278 494 269.493 494 259V20C494 9.50659 485.493 1 475 1Z" stroke="black" stroke-width="2"/>
</g>
<mask id="mask0_2_631" style="mask-type:luminance" maskUnits="userSpaceOnUse" x="90" y="22" width="315" height="235">
<path d="M405 22H90V257H405V22Z" fill="white"/>
</mask>
<g mask="url(#mask0_2_631)">
<path d="M237.956 257C306.662 257 362.36 254.459 362.36 251.324C362.36 248.189 306.662 245.647 237.956 245.647C169.25 245.647 113.553 248.189 113.553 251.324C113.553 254.459 169.25 257 237.956 257Z" fill="#F2F2F2"/>
<path d="M310.638 76.5396H309.225V41.9941C309.225 36.6913 306.864 31.6057 302.662 27.8561C298.46 24.1065 292.76 22 286.817 22H204.794C198.851 22 193.152 24.1065 188.949 27.8561C184.747 31.6057 182.386 36.6912 182.386 41.994V231.514C182.386 236.816 184.747 241.902 188.949 245.652C193.151 249.401 198.851 251.508 204.794 251.508H286.817C292.76 251.508 298.46 249.401 302.662 245.652C306.864 241.902 309.225 236.816 309.225 231.514V101.13H310.638V76.5396Z" fill="#3F3D56"/>
<path d="M304.455 42.1335V231.374C304.455 235.335 302.692 239.132 299.554 241.933C296.416 244.733 292.159 246.306 287.721 246.306H205.304C200.866 246.306 196.609 244.733 193.471 241.933C190.333 239.132 188.57 235.335 188.57 231.374V42.1335C188.57 38.1734 190.333 34.3754 193.471 31.5751C196.609 28.7748 200.866 27.2016 205.304 27.2015H215.302C214.811 28.2788 214.624 29.4472 214.757 30.6041C214.891 31.761 215.341 32.8709 216.068 33.8362C216.795 34.8014 217.777 35.5924 218.927 36.1396C220.077 36.6869 221.36 36.9735 222.664 36.9744H269.654C270.958 36.9735 272.241 36.6868 273.391 36.1396C274.541 35.5924 275.523 34.8014 276.25 33.8361C276.977 32.8709 277.427 31.761 277.561 30.6041C277.694 29.4472 277.507 28.2788 277.016 27.2015H287.721C292.159 27.2016 296.416 28.7748 299.554 31.5751C302.692 34.3754 304.455 38.1734 304.455 42.1335Z" fill="white"/>
<path d="M277.905 123.733C277.357 123.989 276.8 124.231 276.233 124.459C275.717 124.667 275.193 124.862 274.66 125.045C274.466 125.111 274.268 125.178 274.07 125.244C272.505 125.75 270.898 126.146 269.264 126.426C268.454 126.568 267.634 126.68 266.804 126.761C266.118 126.83 265.425 126.88 264.726 126.909C264.227 126.931 263.729 126.94 263.227 126.94C261.24 126.941 259.257 126.775 257.304 126.445C256.795 126.363 256.297 126.266 255.798 126.158C253.388 125.643 251.054 124.874 248.847 123.869C248.649 123.781 248.451 123.686 248.253 123.595C247.959 123.456 247.673 123.311 247.387 123.159C247.525 122.989 247.673 122.822 247.825 122.658C249.479 120.829 251.546 119.332 253.892 118.264C256.237 117.196 258.809 116.581 261.439 116.459C264.069 116.337 266.698 116.71 269.155 117.556C271.612 118.401 273.842 119.699 275.699 121.365C276.344 121.942 276.942 122.56 277.488 123.213C277.632 123.383 277.77 123.557 277.905 123.733Z" fill="#0E7040"/>
<path d="M263.932 109.881C272.503 109.881 279.451 103.681 279.451 96.0336C279.451 88.3861 272.503 82.1865 263.932 82.1865C255.362 82.1865 248.414 88.3861 248.414 96.0336C248.414 103.681 255.362 109.881 263.932 109.881Z" fill="#2F2E41"/>
<path d="M268.06 109.9C273.657 107.17 275.714 100.908 272.654 95.9138C269.595 90.9194 262.577 89.0839 256.98 91.8141C251.383 94.5442 249.326 100.806 252.385 105.801C255.445 110.795 262.463 112.63 268.06 109.9Z" fill="#A0616A"/>
<path d="M274.656 94.3747C272.017 95.9979 268.884 96.8617 265.679 96.8503C266.822 97.5578 268.124 98.0356 269.494 98.251C265.232 99.0667 260.828 99.0888 256.556 98.3158C255.606 98.18 254.69 97.8992 253.847 97.4858C253.427 97.2765 253.061 96.9907 252.773 96.6469C252.485 96.3032 252.281 95.9092 252.175 95.4906C251.891 94.0436 253.155 92.7289 254.468 91.8429C256.479 90.5071 258.797 89.5867 261.255 89.1484C263.713 88.7101 266.25 88.7648 268.681 89.3086C270.269 89.6748 271.86 90.2936 272.891 91.4313C273.922 92.569 274.228 94.323 273.245 95.4946L274.656 94.3747Z" fill="#2F2E41"/>
<path d="M263.227 70.1768C256.29 70.1758 249.543 72.1987 244.015 75.9371C238.486 79.6755 234.479 84.9243 232.603 90.8836C230.728 96.8429 231.088 103.186 233.628 108.946C236.168 114.705 240.749 119.566 246.673 122.787L246.878 122.894C247.048 122.986 247.217 123.074 247.387 123.159C247.673 123.311 247.959 123.456 248.253 123.595C248.451 123.686 248.649 123.781 248.847 123.869C251.054 124.874 253.388 125.643 255.798 126.158C256.297 126.266 256.795 126.363 257.304 126.445C259.257 126.775 261.24 126.941 263.227 126.94C263.729 126.94 264.227 126.931 264.726 126.909C265.425 126.881 266.118 126.831 266.804 126.761C267.634 126.679 268.454 126.567 269.264 126.426C270.898 126.146 272.505 125.75 274.07 125.244C274.268 125.178 274.466 125.111 274.66 125.045C275.194 124.862 275.718 124.667 276.233 124.459C276.798 124.232 277.356 123.99 277.905 123.733C283.406 121.162 287.954 117.222 290.995 112.39C291.009 112.365 291.027 112.34 291.041 112.314C292.664 109.716 293.815 106.905 294.452 103.986C295.346 99.876 295.21 95.6406 294.055 91.5829C292.9 87.5251 290.754 83.7455 287.77 80.5147C284.786 77.2838 281.038 74.6816 276.795 72.8944C272.552 71.1072 267.919 70.1791 263.227 70.1768ZM290.462 111.945C290.433 111.99 290.409 112.034 290.38 112.075C287.4 116.835 282.916 120.709 277.488 123.213C276.947 123.465 276.397 123.702 275.837 123.923C275.374 124.109 274.901 124.285 274.423 124.449C274.222 124.519 274.017 124.588 273.812 124.651C272.46 125.092 271.075 125.446 269.666 125.711C268.622 125.909 267.566 126.057 266.503 126.155C265.849 126.218 265.185 126.262 264.517 126.285C264.089 126.3 263.658 126.31 263.227 126.31C261.304 126.312 259.385 126.152 257.495 125.834C256.345 125.644 255.209 125.396 254.091 125.089C252.389 124.62 250.735 124.022 249.147 123.301C248.963 123.216 248.779 123.131 248.599 123.043C248.341 122.92 248.08 122.794 247.825 122.658C247.634 122.563 247.443 122.462 247.256 122.362C247.147 122.305 247.037 122.245 246.927 122.185C241.734 119.339 237.591 115.195 235.013 110.267C232.434 105.339 231.534 99.8446 232.424 94.4645C233.314 89.0844 235.954 84.0557 240.017 80.0024C244.081 75.9491 249.389 73.0494 255.282 71.6632C261.176 70.2771 267.395 70.4653 273.17 72.2046C278.945 73.944 284.02 77.1578 287.766 81.4475C291.513 85.7372 293.765 90.914 294.244 96.3355C294.723 101.757 293.408 107.185 290.462 111.945Z" fill="#3F3D56"/>
<path d="M256.074 82.3775C255.907 80.8108 253.756 79.8463 252.074 80.3196C250.392 80.7928 249.287 82.3041 248.954 83.8494C248.793 84.5001 248.778 85.1728 248.909 85.8288C249.041 86.4848 249.316 87.1113 249.719 87.6722C250.569 88.764 252.132 89.4454 253.589 89.1683C255.252 88.8518 256.405 87.4024 256.735 85.9135C257.064 84.4245 256.737 82.8894 256.41 81.4L256.074 82.3775Z" fill="#2F2E41"/>
<path d="M279.747 84.6157C279.58 83.049 277.429 82.0845 275.747 82.5577C274.065 83.031 272.96 84.5422 272.626 86.0875C272.466 86.7383 272.451 87.411 272.582 88.067C272.713 88.723 272.988 89.3494 273.392 89.9103C274.242 91.0022 275.804 91.6836 277.262 91.4064C278.925 91.09 280.078 89.6406 280.407 88.1516C280.737 86.6627 280.41 85.1276 280.083 83.6382L279.747 84.6157Z" fill="#2F2E41"/>
<path d="M208.248 109.901C208.028 109.901 207.81 109.86 207.609 109.781C207.408 109.701 207.228 109.585 207.079 109.44L189.542 92.3685C189.343 92.1752 189.101 92.0208 188.832 91.9151C188.563 91.8094 188.272 91.7547 187.978 91.7544H95.3046C93.8982 91.753 92.5499 91.2539 91.5554 90.3665C90.561 89.4792 90.0016 88.2761 90 87.0212V57.2005C90.0016 55.9456 90.561 54.7425 91.5554 53.8552C92.5499 52.9678 93.8982 52.4687 95.3046 52.4673H215.37C216.776 52.4687 218.124 52.9678 219.119 53.8552C220.113 54.7425 220.673 55.9456 220.674 57.2005V87.0212C220.673 88.2761 220.113 89.4792 219.119 90.3665C218.124 91.2539 216.776 91.753 215.37 91.7544H211.966C211.403 91.755 210.864 91.9547 210.466 92.3097C210.068 92.6647 209.844 93.146 209.844 93.6481V108.48C209.845 108.767 209.749 109.046 209.568 109.283C209.386 109.519 209.129 109.701 208.829 109.803C208.644 109.868 208.447 109.901 208.248 109.901Z" fill="white"/>
<path d="M208.248 109.901C208.028 109.901 207.81 109.86 207.609 109.781C207.408 109.701 207.228 109.585 207.079 109.44L189.542 92.3685C189.343 92.1752 189.101 92.0208 188.832 91.9151C188.563 91.8094 188.272 91.7547 187.978 91.7544H95.3046C93.8982 91.753 92.5499 91.2539 91.5554 90.3665C90.561 89.4792 90.0016 88.2761 90 87.0212V57.2005C90.0016 55.9456 90.561 54.7425 91.5554 53.8552C92.5499 52.9678 93.8982 52.4687 95.3046 52.4673H215.37C216.776 52.4687 218.124 52.9678 219.119 53.8552C220.113 54.7425 220.673 55.9456 220.674 57.2005V87.0212C220.673 88.2761 220.113 89.4792 219.119 90.3665C218.124 91.2539 216.776 91.753 215.37 91.7544H211.966C211.403 91.755 210.864 91.9547 210.466 92.3097C210.068 92.6647 209.844 93.146 209.844 93.6481V108.48C209.845 108.767 209.749 109.046 209.568 109.283C209.386 109.519 209.129 109.701 208.829 109.803C208.644 109.868 208.447 109.901 208.248 109.901ZM95.3046 53.098C94.0856 53.0992 92.9169 53.5318 92.055 54.301C91.1931 55.0701 90.7082 56.1128 90.7068 57.2005V87.0212C90.7082 88.1089 91.1931 89.1516 92.055 89.9207C92.9169 90.6899 94.0856 91.1225 95.3046 91.1237H187.978C188.37 91.1241 188.758 91.197 189.117 91.3379C189.476 91.4788 189.798 91.6846 190.063 91.9423L207.6 109.013C207.721 109.131 207.878 109.213 208.052 109.249C208.225 109.285 208.407 109.273 208.573 109.216C208.739 109.158 208.882 109.057 208.982 108.926C209.083 108.794 209.137 108.639 209.137 108.48V93.6481C209.138 92.9788 209.436 92.3372 209.966 91.8639C210.497 91.3907 211.216 91.1245 211.966 91.1237H215.37C216.589 91.1225 217.757 90.6899 218.619 89.9207C219.481 89.1516 219.966 88.1089 219.967 87.0212V57.2005C219.966 56.1128 219.481 55.0701 218.619 54.301C217.757 53.5318 216.589 53.0992 215.37 53.098H95.3046Z" fill="#3F3D56"/>
<path d="M103.011 65.622C105.575 65.622 107.653 63.7677 107.653 61.4803C107.653 59.1928 105.575 57.3385 103.011 57.3385C100.448 57.3385 98.3698 59.1928 98.3698 61.4803C98.3698 63.7677 100.448 65.622 103.011 65.622Z" fill="#0E7040"/>
<path d="M209.954 84.398H100.72C100.395 84.3983 100.072 84.3415 99.7716 84.2306C99.4709 84.1197 99.1977 83.9571 98.9675 83.7519C98.7373 83.5468 98.5547 83.3032 98.4301 83.035C98.3055 82.7668 98.2413 82.4793 98.2413 82.189C98.2413 81.8987 98.3055 81.6113 98.4301 81.3431C98.5547 81.0749 98.7373 80.8313 98.9675 80.6262C99.1977 80.421 99.4709 80.2583 99.7716 80.1475C100.072 80.0366 100.395 79.9798 100.72 79.9801H209.954C210.61 79.9808 211.239 80.2138 211.703 80.628C212.167 81.0422 212.427 81.6037 212.427 82.189C212.427 82.7744 212.167 83.3359 211.703 83.7501C211.239 84.1643 210.61 84.3973 209.954 84.398Z" fill="#E6E6E6"/>
<path d="M174.368 75.0101H100.72C100.395 75.0104 100.072 74.9535 99.7716 74.8427C99.4709 74.7318 99.1977 74.5692 98.9675 74.364C98.7373 74.1588 98.5547 73.9152 98.4301 73.647C98.3055 73.3789 98.2413 73.0914 98.2413 72.8011C98.2413 72.5108 98.3055 72.2233 98.4301 71.9552C98.5547 71.687 98.7373 71.4434 98.9675 71.2382C99.1977 71.0331 99.4709 70.8704 99.7716 70.7596C100.072 70.6487 100.395 70.5918 100.72 70.5922H174.368C175.025 70.5922 175.654 70.8249 176.119 71.2392C176.583 71.6534 176.844 72.2153 176.844 72.8011C176.844 73.387 176.583 73.9488 176.119 74.3631C175.654 74.7773 175.025 75.0101 174.368 75.0101Z" fill="#E6E6E6"/>
<path d="M286.171 211.032C285.871 210.929 285.614 210.748 285.432 210.511C285.251 210.275 285.155 209.995 285.156 209.709V194.877C285.156 194.375 284.932 193.893 284.534 193.538C284.136 193.183 283.597 192.984 283.034 192.983H279.63C278.224 192.982 276.876 192.483 275.881 191.595C274.887 190.708 274.327 189.505 274.326 188.25V158.429C274.327 157.174 274.887 155.971 275.881 155.084C276.876 154.196 278.224 153.697 279.63 153.696H399.695C401.102 153.697 402.45 154.196 403.445 155.084C404.439 155.971 404.998 157.174 405 158.429V188.25C404.998 189.505 404.439 190.708 403.445 191.595C402.45 192.483 401.102 192.982 399.695 192.983H307.022C306.728 192.983 306.437 193.038 306.168 193.144C305.899 193.249 305.657 193.404 305.458 193.597L287.921 210.668C287.772 210.814 287.592 210.93 287.391 211.009C287.19 211.089 286.972 211.13 286.752 211.13C286.553 211.13 286.356 211.097 286.171 211.032Z" fill="white"/>
<path d="M286.171 211.032C285.871 210.929 285.614 210.748 285.432 210.511C285.251 210.275 285.155 209.995 285.156 209.709V194.877C285.156 194.375 284.932 193.893 284.534 193.538C284.136 193.183 283.597 192.984 283.034 192.983H279.63C278.224 192.982 276.876 192.483 275.881 191.595C274.887 190.708 274.327 189.505 274.326 188.25V158.429C274.327 157.174 274.887 155.971 275.881 155.084C276.876 154.196 278.224 153.697 279.63 153.696H399.695C401.102 153.697 402.45 154.196 403.445 155.084C404.439 155.971 404.998 157.174 405 158.429V188.25C404.998 189.505 404.439 190.708 403.445 191.595C402.45 192.483 401.102 192.982 399.695 192.983H307.022C306.728 192.983 306.437 193.038 306.168 193.144C305.899 193.249 305.657 193.404 305.458 193.597L287.921 210.668C287.772 210.814 287.592 210.93 287.391 211.009C287.19 211.089 286.972 211.13 286.752 211.13C286.553 211.13 286.356 211.097 286.171 211.032ZM279.63 154.327C278.411 154.328 277.243 154.76 276.381 155.53C275.519 156.299 275.034 157.341 275.033 158.429V188.25C275.034 189.338 275.519 190.38 276.381 191.149C277.243 191.918 278.411 192.351 279.63 192.352H283.034C283.784 192.353 284.503 192.619 285.034 193.093C285.564 193.566 285.862 194.207 285.863 194.877V209.709C285.863 209.868 285.917 210.023 286.018 210.154C286.118 210.286 286.261 210.387 286.427 210.444C286.593 210.502 286.775 210.513 286.948 210.477C287.122 210.441 287.279 210.359 287.4 210.242L304.937 193.171C305.202 192.913 305.524 192.707 305.883 192.567C306.242 192.426 306.63 192.353 307.022 192.352H399.695C400.914 192.351 402.083 191.918 402.945 191.149C403.807 190.38 404.292 189.337 404.293 188.25V158.429C404.292 157.341 403.807 156.299 402.945 155.53C402.083 154.76 400.914 154.328 399.695 154.327H279.63Z" fill="#3F3D56"/>
<path d="M248.748 220.266C243.824 223.08 238.119 224.614 232.274 224.697C226.428 224.78 220.671 223.408 215.65 220.736C216.533 219.269 217.653 217.925 218.972 216.747C221.008 214.921 223.486 213.537 226.216 212.699C228.945 211.862 231.853 211.593 234.717 211.915C237.581 212.237 240.324 213.141 242.735 214.556C245.147 215.971 247.162 217.861 248.627 220.08C248.666 220.14 248.709 220.203 248.748 220.266Z" fill="#0E7040"/>
<path d="M230.817 205.186C239.444 205.186 246.439 198.945 246.439 191.247C246.439 183.549 239.444 177.308 230.817 177.308C222.189 177.308 215.195 183.549 215.195 191.247C215.195 198.945 222.189 205.186 230.817 205.186Z" fill="#2F2E41"/>
<path d="M242.441 201.079C245.521 196.051 243.45 189.748 237.816 186.999C232.181 184.251 225.117 186.099 222.037 191.126C218.957 196.154 221.028 202.457 226.662 205.206C232.296 207.954 239.361 206.106 242.441 201.079Z" fill="#FFB8B8"/>
<path d="M220.022 189.577C222.679 191.211 225.832 192.08 229.059 192.069C227.908 192.781 226.598 193.262 225.218 193.479C229.508 194.3 233.943 194.322 238.243 193.544C239.199 193.407 240.121 193.125 240.969 192.709C241.392 192.498 241.761 192.21 242.05 191.864C242.34 191.518 242.546 191.122 242.652 190.7C242.938 189.244 241.666 187.92 240.344 187.028C238.32 185.684 235.987 184.757 233.512 184.316C231.038 183.875 228.484 183.93 226.036 184.477C224.438 184.846 222.837 185.469 221.799 186.614C220.761 187.759 220.453 189.525 221.442 190.704L220.022 189.577Z" fill="#2F2E41"/>
<path d="M231.773 225.016C224.122 225.013 216.729 222.55 210.949 218.077C205.169 213.605 201.391 207.422 200.306 200.665C199.222 193.907 200.904 187.027 205.045 181.286C209.185 175.546 215.507 171.33 222.849 169.412C230.192 167.494 238.063 168.003 245.019 170.845C251.975 173.686 257.55 178.671 260.721 184.883C263.892 191.096 264.446 198.121 262.282 204.668C260.118 211.216 255.38 216.848 248.939 220.532C243.816 223.463 237.858 225.019 231.773 225.016ZM231.773 168.883C225.621 168.882 219.607 170.509 214.491 173.559C209.376 176.608 205.389 180.943 203.034 186.014C200.68 191.086 200.064 196.666 201.264 202.05C202.464 207.434 205.426 212.38 209.776 216.261C214.126 220.143 219.669 222.786 225.703 223.857C231.736 224.928 237.991 224.378 243.674 222.277C249.358 220.176 254.215 216.618 257.633 212.054C261.05 207.489 262.874 202.123 262.874 196.634C262.864 189.276 259.585 182.222 253.754 177.02C247.924 171.817 240.018 168.891 231.773 168.883Z" fill="#3F3D56"/>
<path d="M289.263 166.535C291.826 166.535 293.905 164.681 293.905 162.393C293.905 160.106 291.826 158.252 289.263 158.252C286.699 158.252 284.621 160.106 284.621 162.393C284.621 164.681 286.699 166.535 289.263 166.535Z" fill="#0E7040"/>
<path d="M396.206 185.311H286.971C286.646 185.312 286.324 185.255 286.023 185.144C285.722 185.033 285.449 184.87 285.219 184.665C284.989 184.46 284.806 184.216 284.682 183.948C284.557 183.68 284.493 183.393 284.493 183.102C284.493 182.812 284.557 182.525 284.682 182.256C284.806 181.988 284.989 181.745 285.219 181.539C285.449 181.334 285.722 181.172 286.023 181.061C286.324 180.95 286.646 180.893 286.971 180.893H396.206C396.862 180.893 397.492 181.126 397.956 181.54C398.421 181.955 398.681 182.517 398.681 183.102C398.681 183.688 398.421 184.25 397.956 184.664C397.492 185.079 396.862 185.311 396.206 185.311Z" fill="#E6E6E6"/>
<path d="M360.62 175.923H286.971C286.646 175.924 286.324 175.867 286.023 175.756C285.722 175.645 285.449 175.482 285.219 175.277C284.989 175.072 284.806 174.828 284.682 174.56C284.557 174.292 284.493 174.005 284.493 173.714C284.493 173.424 284.557 173.137 284.682 172.868C284.806 172.6 284.989 172.357 285.219 172.151C285.449 171.946 285.722 171.784 286.023 171.673C286.324 171.562 286.646 171.505 286.971 171.505H360.62C361.276 171.506 361.904 171.739 362.368 172.153C362.832 172.567 363.092 173.129 363.092 173.714C363.092 174.3 362.832 174.861 362.368 175.275C361.904 175.69 361.276 175.923 360.62 175.923Z" fill="#E6E6E6"/>
<path d="M286.021 213.855C290.804 213.855 294.681 213.471 294.681 212.998C294.681 212.524 290.804 212.14 286.021 212.14C281.238 212.14 277.361 212.524 277.361 212.998C277.361 213.471 281.238 213.855 286.021 213.855Z" fill="#F2F2F2"/>
<path d="M208.623 112.942C213.405 112.942 217.283 112.558 217.283 112.084C217.283 111.611 213.405 111.227 208.623 111.227C203.84 111.227 199.962 111.611 199.962 112.084C199.962 112.558 203.84 112.942 208.623 112.942Z" fill="#F2F2F2"/>
</g>
</g>
<defs>
<filter id="filter0_d_2_631" x="0" y="0" width="515" height="299" filterUnits="userSpaceOnUse" color-interpolation-filters="sRGB">
<feFlood flood-opacity="0" result="BackgroundImageFix"/>
<feColorMatrix in="SourceAlpha" type="matrix" values="0 0 0 0 0 0 0 0 0 0 0 0 0 0 0 0 0 0 127 0" result="hardAlpha"/>
<feOffset dx="10" dy="10"/>
<feGaussianBlur stdDeviation="5"/>
<feComposite in2="hardAlpha" operator="out"/>
<feColorMatrix type="matrix" values="0 0 0 0 0 0 0 0 0 0 0 0 0 0 0 0 0 0 0.15 0"/>
<feBlend mode="normal" in2="BackgroundImageFix" result="effect1_dropShadow_2_631"/>
<feBlend mode="normal" in="SourceGraphic" in2="effect1_dropShadow_2_631" result="shape"/>
</filter>
<clipPath id="clip0_2_631">
<rect width="515" height="299" fill="white"/>
</clipPath>
</defs>
</svg>
