<svg width="515" height="299" viewBox="0 0 515 299" fill="none" xmlns="http://www.w3.org/2000/svg">
<g clip-path="url(#clip0_12_235)">
<g filter="url(#filter0_d_12_235)">
<path d="M475 0H20C8.9543 0 0 8.9543 0 20V259C0 270.046 8.9543 279 20 279H475C486.046 279 495 270.046 495 259V20C495 8.9543 486.046 0 475 0Z" fill="white"/>
<path d="M475 1H20C9.50659 1 1 9.50659 1 20V259C1 269.493 9.50659 278 20 278H475C485.493 278 494 269.493 494 259V20C494 9.50659 485.493 1 475 1Z" stroke="black" stroke-width="2"/>
</g>
<mask id="mask0_12_235" style="mask-type:luminance" maskUnits="userSpaceOnUse" x="56" y="21" width="381" height="237">
<path d="M437 21H56V258H437V21Z" fill="white"/>
</mask>
<g mask="url(#mask0_12_235)">
<path d="M399.828 62.8929H390.786C391.202 63.8418 391.361 64.8712 391.248 65.8907C391.136 66.9101 390.756 67.8881 390.142 68.7387C389.528 69.5892 388.699 70.2861 387.727 70.768C386.756 71.2499 385.672 71.502 384.571 71.5021H344.89C343.789 71.502 342.705 71.2499 341.734 70.768C340.762 70.2861 339.933 69.5892 339.319 68.7387C338.705 67.8881 338.325 66.9101 338.212 65.8907C338.1 64.8712 338.259 63.8418 338.675 62.8929H330.23C326.482 62.8929 322.888 64.2787 320.238 66.7454C317.588 69.2121 316.1 72.5577 316.1 76.0462V242.753C316.1 246.241 317.588 249.587 320.238 252.053C322.888 254.52 326.482 255.906 330.23 255.906H399.828C403.575 255.906 407.169 254.52 409.819 252.053C412.469 249.587 413.958 246.241 413.958 242.753V76.0462C413.958 72.5577 412.469 69.2121 409.819 66.7454C407.169 64.2787 403.575 62.8929 399.828 62.8929Z" fill="#F0F0F0"/>
<path d="M399.909 126.736C398.143 122.014 395.292 117.707 391.554 114.115C387.816 110.524 383.281 107.735 378.267 105.943C373.252 104.151 367.877 103.398 362.518 103.738C357.159 104.078 351.943 105.502 347.236 107.91C342.529 110.319 338.442 113.655 335.262 117.684C332.082 121.714 329.884 126.341 328.822 131.243C327.761 136.145 327.86 141.203 329.115 146.065C330.369 150.927 332.747 155.476 336.084 159.394C336.416 159.783 336.76 160.172 337.112 160.548C337.138 160.573 337.158 160.598 337.185 160.622C338.049 161.549 338.967 162.431 339.936 163.264C340.188 163.48 340.453 163.702 340.718 163.912C341.222 164.331 341.739 164.732 342.276 165.115C342.489 165.269 342.694 165.424 342.913 165.572C343.761 166.17 344.643 166.726 345.552 167.256L345.591 167.275C345.85 167.423 346.115 167.571 346.38 167.713C346.857 167.979 347.348 168.232 347.839 168.472L348.15 168.62C348.866 168.966 349.596 169.293 350.345 169.595C350.497 169.657 350.663 169.719 350.816 169.781C350.829 169.787 350.835 169.787 350.849 169.793C351.2 169.929 351.551 170.058 351.909 170.182C353.085 170.6 354.285 170.958 355.503 171.255C358.611 172.027 361.813 172.417 365.03 172.416C366.203 172.416 367.363 172.366 368.51 172.261C371.131 172.036 373.718 171.55 376.227 170.811C376.234 170.811 376.241 170.805 376.247 170.805C377.832 170.335 379.381 169.764 380.882 169.096C380.888 169.089 380.901 169.089 380.908 169.083C381.246 168.935 381.571 168.775 381.903 168.62C381.956 168.596 382.008 168.571 382.062 168.546C382.327 168.417 382.592 168.287 382.857 168.151C383.52 167.812 384.17 167.454 384.813 167.071C384.992 166.973 385.164 166.868 385.343 166.757C385.595 166.602 385.847 166.442 386.092 166.275C386.417 166.065 386.742 165.849 387.06 165.627C387.16 165.559 387.266 165.492 387.365 165.418C393.577 161.029 398.136 154.923 400.389 147.974C402.642 141.025 402.474 133.59 399.909 126.736Z" fill="white"/>
<path d="M351.372 166.72L350.278 162.122H347.421C347.392 162.122 347.363 162.124 347.335 162.128H347.328C346.301 162.209 345.312 162.527 344.451 163.054C343.867 163.401 343.347 163.835 342.913 164.338C343.761 164.936 344.643 165.492 345.552 166.022L345.591 166.041C345.85 166.189 346.115 166.337 346.38 166.479C346.857 166.744 347.348 166.997 347.839 167.238L348.15 167.386C348.866 167.732 349.596 168.059 350.345 168.361C350.497 168.423 350.663 168.485 350.816 168.546C350.829 168.552 350.835 168.552 350.849 168.559C351.2 168.694 351.551 168.824 351.909 168.947L351.372 166.72Z" fill="#E4E4E4"/>
<path d="M399.909 126.736C398.143 122.014 395.292 117.707 391.554 114.115C387.816 110.524 383.281 107.735 378.267 105.943C373.252 104.151 367.877 103.398 362.518 103.738C357.159 104.078 351.943 105.502 347.236 107.91C342.529 110.319 338.442 113.655 335.262 117.684C332.082 121.714 329.884 126.341 328.822 131.243C327.761 136.145 327.86 141.203 329.115 146.065C330.369 150.927 332.747 155.476 336.084 159.394C336.416 159.783 336.76 160.172 337.112 160.548C337.138 160.573 337.158 160.598 337.185 160.622C338.049 161.549 338.967 162.431 339.936 163.264C340.188 163.48 340.453 163.702 340.718 163.912C341.222 164.331 341.739 164.732 342.276 165.115C342.489 165.269 342.694 165.424 342.913 165.572C343.761 166.17 344.643 166.726 345.552 167.256L345.591 167.275C345.85 167.423 346.115 167.571 346.38 167.713C346.857 167.979 347.348 168.232 347.839 168.472L348.15 168.62C348.866 168.966 349.596 169.293 350.345 169.595C350.497 169.657 350.663 169.719 350.816 169.781C350.829 169.787 350.835 169.787 350.849 169.793C351.2 169.929 351.551 170.058 351.909 170.182C353.085 170.6 354.285 170.958 355.503 171.255C358.611 172.027 361.813 172.417 365.03 172.416C366.203 172.416 367.363 172.366 368.51 172.261C371.131 172.036 373.718 171.55 376.227 170.811C376.234 170.811 376.241 170.805 376.247 170.805C377.832 170.335 379.381 169.764 380.882 169.096C380.888 169.089 380.901 169.089 380.908 169.083C381.246 168.935 381.571 168.775 381.903 168.62C381.956 168.596 382.008 168.571 382.062 168.546C382.327 168.417 382.592 168.287 382.857 168.151C383.52 167.812 384.17 167.454 384.813 167.071C384.992 166.973 385.164 166.868 385.343 166.757C385.595 166.602 385.847 166.442 386.092 166.275C386.417 166.065 386.742 165.849 387.06 165.627C387.16 165.559 387.266 165.492 387.365 165.418C393.577 161.029 398.136 154.923 400.389 147.974C402.642 141.025 402.474 133.59 399.909 126.736ZM386.146 163.918C385.927 164.078 385.701 164.233 385.476 164.375C385.257 164.529 385.038 164.677 384.813 164.813C384.62 164.942 384.428 165.066 384.229 165.183L384.17 165.22C384.024 165.313 383.878 165.399 383.732 165.485C383.182 165.806 382.625 166.115 382.062 166.411C382.002 166.442 381.942 166.473 381.883 166.504C381.631 166.633 381.379 166.757 381.127 166.88C381.094 166.899 381.054 166.911 381.021 166.929L380.981 166.948C380.663 167.102 380.338 167.25 380.013 167.392C378.759 167.954 377.468 168.441 376.148 168.849C375.975 168.904 375.803 168.96 375.631 169.009C373.256 169.712 370.806 170.176 368.325 170.391C367.237 170.484 366.137 170.533 365.03 170.533C361.988 170.539 358.958 170.17 356.02 169.435C354.512 169.069 353.034 168.602 351.598 168.04C351.525 168.009 351.445 167.985 351.372 167.954C351.293 167.923 351.22 167.898 351.147 167.867C351.067 167.837 350.995 167.806 350.915 167.769C350.292 167.516 349.675 167.238 349.072 166.948L348.78 166.806C348.044 166.448 347.322 166.065 346.619 165.658C346.413 165.541 346.201 165.417 346.002 165.288C345.949 165.257 345.903 165.226 345.85 165.195C345.379 164.905 344.908 164.603 344.451 164.288C344.14 164.072 343.828 163.856 343.523 163.634C343.012 163.276 342.522 162.893 342.044 162.498C341.793 162.301 341.547 162.085 341.309 161.881C340.369 161.073 339.479 160.216 338.643 159.314C338.365 159.018 338.093 158.722 337.834 158.413C337.776 158.352 337.72 158.288 337.669 158.222C333.361 153.162 330.77 147.023 330.226 140.587C329.682 134.151 331.21 127.71 334.615 122.085C338.019 116.461 343.146 111.908 349.342 109.007C355.538 106.106 362.522 104.988 369.403 105.797C376.284 106.605 382.75 109.303 387.977 113.546C393.204 117.789 396.955 123.386 398.751 129.621C400.547 135.857 400.308 142.449 398.062 148.557C395.817 154.666 391.669 160.013 386.146 163.918Z" fill="#E4E4E4"/>
<path d="M390.584 199.368H339.582C337.96 199.367 336.405 198.766 335.258 197.698C334.111 196.629 333.467 195.181 333.467 193.671C333.467 192.161 334.111 190.713 335.258 189.645C336.405 188.576 337.96 187.976 339.582 187.974H390.584C392.207 187.974 393.764 188.574 394.912 189.643C396.059 190.711 396.704 192.16 396.704 193.671C396.704 195.182 396.059 196.631 394.912 197.7C393.764 198.768 392.207 199.368 390.584 199.368Z" fill="white"/>
<path d="M390.584 216.934H339.582C337.96 216.933 336.405 216.332 335.258 215.263C334.111 214.195 333.467 212.747 333.467 211.237C333.467 209.727 334.111 208.279 335.258 207.21C336.405 206.142 337.96 205.541 339.582 205.54H390.584C392.207 205.54 393.764 206.14 394.912 207.209C396.059 208.277 396.704 209.726 396.704 211.237C396.704 212.748 396.059 214.197 394.912 215.265C393.764 216.334 392.207 216.934 390.584 216.934Z" fill="white"/>
<path d="M173.109 63.8672H164.068C164.484 64.8161 164.643 65.8455 164.53 66.865C164.418 67.8844 164.038 68.8625 163.424 69.713C162.81 70.5635 161.98 71.2604 161.009 71.7423C160.037 72.2242 158.953 72.4763 157.852 72.4764H118.172C117.071 72.4763 115.987 72.2242 115.015 71.7424C114.044 71.2605 113.214 70.5635 112.6 69.713C111.986 68.8624 111.606 67.8844 111.494 66.865C111.382 65.8455 111.54 64.8161 111.956 63.8672H103.512C99.7641 63.8672 96.1699 65.253 93.5199 67.7197C90.87 70.1864 89.3812 73.532 89.3812 77.0205V243.727C89.3812 247.215 90.87 250.561 93.5199 253.028C96.1699 255.494 99.7641 256.88 103.512 256.88H173.109C176.857 256.88 180.451 255.494 183.101 253.028C185.751 250.561 187.24 247.215 187.24 243.727V77.0205C187.24 73.532 185.751 70.1864 183.101 67.7197C180.451 65.253 176.857 63.8672 173.109 63.8672Z" fill="#F0F0F0"/>
<path d="M173.19 127.71C171.424 122.988 168.573 118.681 164.835 115.09C161.097 111.499 156.563 108.71 151.548 106.917C146.533 105.125 141.159 104.372 135.8 104.712C130.44 105.052 125.225 106.476 120.518 108.885C115.81 111.293 111.724 114.629 108.544 118.659C105.363 122.689 103.166 127.316 102.104 132.217C101.042 137.119 101.142 142.177 102.396 147.039C103.65 151.901 106.029 156.45 109.366 160.369C109.697 160.757 110.042 161.146 110.394 161.523C110.42 161.547 110.44 161.572 110.466 161.597C111.331 162.524 112.249 163.405 113.218 164.238C113.47 164.454 113.735 164.676 114 164.886C114.504 165.306 115.021 165.707 115.558 166.089C115.77 166.244 115.976 166.398 116.195 166.546C117.043 167.145 117.925 167.7 118.833 168.231L118.873 168.249C119.131 168.397 119.397 168.546 119.662 168.687C120.139 168.953 120.63 169.206 121.12 169.447L121.432 169.595C122.148 169.94 122.877 170.267 123.626 170.57C123.779 170.631 123.945 170.693 124.097 170.755C124.11 170.761 124.117 170.761 124.13 170.767C124.482 170.903 124.833 171.033 125.191 171.156C126.367 171.574 127.567 171.933 128.784 172.23C131.892 173.001 135.095 173.391 138.311 173.39C139.485 173.39 140.645 173.341 141.792 173.236C144.413 173.01 147 172.524 149.509 171.785C149.516 171.785 149.522 171.779 149.529 171.779C151.114 171.309 152.662 170.738 154.163 170.07C154.17 170.064 154.183 170.064 154.19 170.058C154.528 169.909 154.853 169.749 155.184 169.595C155.237 169.57 155.29 169.545 155.343 169.521C155.608 169.391 155.874 169.261 156.139 169.126C156.802 168.786 157.452 168.428 158.094 168.046C158.273 167.947 158.446 167.842 158.625 167.731C158.877 167.577 159.129 167.416 159.374 167.25C159.699 167.04 160.024 166.824 160.342 166.602C160.441 166.534 160.548 166.466 160.647 166.392C166.858 162.003 171.417 155.897 173.671 148.948C175.924 141.999 175.756 134.565 173.19 127.71Z" fill="white"/>
<path d="M163.866 200.342H112.864C111.24 200.342 109.684 199.742 108.536 198.674C107.388 197.605 106.743 196.156 106.743 194.645C106.743 193.134 107.388 191.685 108.536 190.617C109.684 189.549 111.24 188.948 112.864 188.948H163.866C165.488 188.95 167.043 189.551 168.19 190.619C169.336 191.687 169.98 193.135 169.98 194.645C169.98 196.155 169.336 197.604 168.19 198.672C167.043 199.74 165.488 200.341 163.866 200.342Z" fill="white"/>
<path d="M163.866 217.908H112.864C112.059 217.909 111.263 217.762 110.52 217.476C109.777 217.19 109.101 216.771 108.532 216.241C107.963 215.712 107.512 215.084 107.204 214.393C106.896 213.701 106.738 212.96 106.738 212.211C106.738 211.463 106.896 210.721 107.204 210.03C107.512 209.338 107.963 208.71 108.532 208.181C109.101 207.652 109.777 207.232 110.52 206.946C111.263 206.66 112.059 206.514 112.864 206.514H163.866C165.489 206.514 167.046 207.114 168.193 208.183C169.341 209.251 169.986 210.7 169.986 212.211C169.986 213.722 169.341 215.171 168.193 216.24C167.046 217.308 165.489 217.908 163.866 217.908Z" fill="white"/>
<path d="M173.19 127.71C171.424 122.988 168.573 118.681 164.835 115.09C161.097 111.499 156.563 108.71 151.548 106.917C146.533 105.125 141.159 104.372 135.8 104.712C130.44 105.052 125.225 106.476 120.518 108.885C115.81 111.293 111.724 114.629 108.544 118.659C105.363 122.689 103.166 127.316 102.104 132.217C101.042 137.119 101.142 142.177 102.396 147.039C103.65 151.901 106.029 156.45 109.366 160.369C109.697 160.757 110.042 161.146 110.394 161.523C110.42 161.547 110.44 161.572 110.466 161.597C111.331 162.524 112.249 163.405 113.218 164.238C113.47 164.454 113.735 164.676 114 164.886C114.504 165.306 115.021 165.707 115.558 166.089C115.77 166.244 115.976 166.398 116.195 166.546C117.043 167.145 117.925 167.7 118.833 168.231L118.873 168.249C119.131 168.397 119.397 168.546 119.662 168.687C120.139 168.953 120.63 169.206 121.12 169.447L121.432 169.595C122.148 169.94 122.877 170.267 123.626 170.57C123.779 170.631 123.945 170.693 124.097 170.755C124.11 170.761 124.117 170.761 124.13 170.767C124.482 170.903 124.833 171.033 125.191 171.156C126.367 171.574 127.567 171.933 128.784 172.23C131.892 173.001 135.095 173.391 138.311 173.39C139.485 173.39 140.645 173.341 141.792 173.236C144.413 173.01 147 172.524 149.509 171.785C149.516 171.785 149.522 171.779 149.529 171.779C151.114 171.309 152.662 170.738 154.163 170.07C154.17 170.064 154.183 170.064 154.19 170.058C154.528 169.909 154.853 169.749 155.184 169.595C155.237 169.57 155.29 169.545 155.343 169.521C155.608 169.391 155.874 169.261 156.139 169.126C156.802 168.786 157.452 168.428 158.094 168.046C158.273 167.947 158.446 167.842 158.625 167.731C158.877 167.577 159.129 167.416 159.374 167.25C159.699 167.04 160.024 166.824 160.342 166.602C160.441 166.534 160.548 166.466 160.647 166.392C166.858 162.003 171.417 155.897 173.671 148.948C175.924 141.999 175.756 134.565 173.19 127.71ZM159.427 164.892C159.208 165.053 158.983 165.207 158.757 165.349C158.539 165.503 158.32 165.651 158.094 165.787C157.902 165.917 157.71 166.04 157.511 166.157L157.452 166.194C157.306 166.287 157.16 166.373 157.014 166.46C156.464 166.781 155.907 167.089 155.343 167.385C155.284 167.416 155.224 167.447 155.164 167.478C154.912 167.607 154.66 167.731 154.409 167.854C154.375 167.873 154.335 167.885 154.302 167.904L154.263 167.922C153.944 168.076 153.619 168.225 153.295 168.367C152.041 168.928 150.75 169.415 149.429 169.823C149.257 169.878 149.085 169.934 148.912 169.983C146.537 170.687 144.088 171.15 141.607 171.366C140.519 171.458 139.418 171.508 138.311 171.508C135.269 171.514 132.24 171.144 129.302 170.409C127.794 170.043 126.316 169.577 124.88 169.015C124.806 168.984 124.727 168.959 124.654 168.928C124.575 168.897 124.502 168.873 124.429 168.842C124.349 168.811 124.276 168.78 124.197 168.743C123.573 168.49 122.957 168.212 122.354 167.922L122.062 167.78C121.326 167.422 120.603 167.04 119.901 166.632C119.695 166.515 119.483 166.392 119.284 166.262C119.231 166.231 119.184 166.2 119.131 166.17C118.661 165.88 118.19 165.577 117.733 165.262C117.421 165.046 117.109 164.83 116.804 164.608C116.294 164.25 115.803 163.868 115.326 163.473C115.074 163.275 114.829 163.059 114.59 162.856C113.65 162.048 112.76 161.191 111.925 160.288C111.647 159.992 111.375 159.696 111.116 159.387C111.057 159.326 111.002 159.262 110.95 159.196C106.643 154.136 104.052 147.997 103.508 141.561C102.964 135.125 104.492 128.684 107.896 123.06C111.301 117.435 116.428 112.882 122.624 109.981C128.82 107.08 135.803 105.962 142.684 106.771C149.565 107.579 156.031 110.277 161.258 114.521C166.485 118.764 170.236 124.36 172.033 130.596C173.829 136.831 173.589 143.423 171.344 149.532C169.099 155.64 164.95 160.987 159.427 164.892Z" fill="#E4E4E4"/>
<path d="M282.524 156.117C283.043 156.214 283.578 156.204 284.093 156.088C284.607 155.972 285.087 155.752 285.5 155.444C285.913 155.136 286.249 154.748 286.483 154.306C286.717 153.864 286.845 153.38 286.856 152.888L314.204 128.928L308.05 124.359L283.057 149.408C282.167 149.445 281.323 149.784 280.684 150.362C280.044 150.939 279.655 151.715 279.589 152.542C279.524 153.369 279.786 154.19 280.327 154.849C280.868 155.508 281.65 155.959 282.524 156.117Z" fill="#FFB7B7"/>
<path d="M310.329 132.801L305.008 126.997C304.857 126.832 304.745 126.638 304.682 126.429C304.618 126.221 304.603 126.001 304.639 125.787C304.674 125.572 304.759 125.367 304.887 125.186C305.015 125.005 305.184 124.851 305.381 124.736L312.308 120.7C313.22 119.983 314.4 119.633 315.589 119.725C316.779 119.817 317.88 120.345 318.652 121.192C319.424 122.039 319.804 123.137 319.707 124.244C319.611 125.351 319.047 126.378 318.139 127.099L312.786 132.813C312.633 132.977 312.443 133.108 312.231 133.197C312.018 133.286 311.787 133.332 311.554 133.331C311.321 133.33 311.091 133.282 310.879 133.19C310.668 133.099 310.48 132.966 310.329 132.801Z" fill="#0E7040"/>
<path d="M296.022 251.031L289.335 251.03L286.154 227.023L296.023 227.024L296.022 251.031Z" fill="#FFB7B7"/>
<path d="M297.727 257.064L276.167 257.063V256.809C276.167 254.737 277.051 252.751 278.625 251.286C280.199 249.821 282.333 248.998 284.559 248.998H297.727V257.064Z" fill="#2F2E41"/>
<path d="M349.47 251.031L342.784 251.03L339.603 227.023L349.471 227.024L349.47 251.031Z" fill="#FFB7B7"/>
<path d="M351.175 257.064L329.615 257.063V256.809C329.615 254.737 330.5 252.751 332.073 251.286C333.647 249.821 335.781 248.998 338.007 248.998H351.175V257.064Z" fill="#2F2E41"/>
<path d="M331.484 145.526L338.224 122.347L329.481 117.772H317.276L312.529 122.5C312.529 122.5 304.598 127.636 306.518 133.327L309.615 146.289L304.878 166.876L281.016 197.68L275.367 227.938L297.603 233.364L321.648 189.293L333.306 238.091L354.994 237.076L347.521 177.908C347.521 177.908 345.39 159.883 334.223 148.628L331.484 145.526Z" fill="#2F2E41"/>
<path d="M345.403 166.035C345.779 165.689 346.069 165.269 346.252 164.807C346.435 164.345 346.507 163.851 346.463 163.36C346.418 162.87 346.259 162.394 345.996 161.966C345.733 161.539 345.372 161.171 344.94 160.887L339.71 128.047L332.204 130.253L339.718 161.882C339.254 162.59 339.086 163.432 339.244 164.248C339.403 165.064 339.878 165.797 340.579 166.309C341.279 166.821 342.158 167.076 343.047 167.026C343.936 166.975 344.775 166.623 345.403 166.035Z" fill="#FFB7B7"/>
<path d="M341.003 133.201L332.86 134.075C332.628 134.1 332.394 134.078 332.172 134.011C331.95 133.944 331.747 133.833 331.575 133.686C331.403 133.539 331.268 133.359 331.178 133.159C331.087 132.959 331.045 132.743 331.052 132.526L331.316 124.923C331.186 123.819 331.531 122.712 332.277 121.844C333.022 120.977 334.107 120.42 335.293 120.296C336.479 120.172 337.669 120.491 338.603 121.183C339.537 121.874 340.138 122.883 340.274 123.986L342.384 131.309C342.445 131.519 342.456 131.738 342.417 131.952C342.378 132.167 342.29 132.37 342.159 132.55C342.028 132.729 341.857 132.88 341.657 132.993C341.457 133.105 341.234 133.176 341.003 133.201Z" fill="#0E7040"/>
<path d="M309.73 111.181V101.414C309.732 97.9447 311.214 94.6181 313.851 92.1655C316.487 89.713 320.062 88.3353 323.789 88.3353C327.516 88.3353 331.091 89.713 333.728 92.1655C336.364 94.6181 337.846 97.9447 337.848 101.414V111.181C337.848 111.647 337.649 112.094 337.295 112.423C336.941 112.753 336.461 112.938 335.96 112.939H311.619C311.118 112.938 310.638 112.753 310.284 112.423C309.93 112.094 309.731 111.647 309.73 111.181Z" fill="#2F2E41"/>
<path d="M320.9 112.711C326.593 112.711 331.208 108.415 331.208 103.116C331.208 97.8172 326.593 93.5214 320.9 93.5214C315.207 93.5214 310.592 97.8172 310.592 103.116C310.592 108.415 315.207 112.711 320.9 112.711Z" fill="#FFB7B7"/>
<path d="M306.404 102.196C306.407 99.4509 307.58 96.8195 309.665 94.8787C311.75 92.938 314.577 91.8463 317.525 91.8432H319.624C322.572 91.8463 325.399 92.938 327.484 94.8788C329.569 96.8195 330.742 99.4509 330.745 102.196V102.391H326.311L324.798 98.4485L324.496 102.391H322.204L321.441 100.402L321.288 102.391H306.404V102.196Z" fill="#2F2E41"/>
<path d="M319.886 114.037C319.678 113.774 319.553 113.463 319.527 113.137C319.501 112.812 319.574 112.486 319.738 112.198C321.962 108.261 325.075 100.986 320.942 96.4997L320.645 96.1773H332.643V112.944L321.744 114.734C321.634 114.752 321.522 114.762 321.41 114.762C321.112 114.762 320.819 114.696 320.554 114.57C320.289 114.444 320.06 114.261 319.886 114.037Z" fill="#2F2E41"/>
<path d="M271.444 256.961H186.887C182.127 256.956 177.564 255.194 174.198 252.061C170.833 248.928 168.94 244.68 168.934 240.25V37.7114C168.94 33.2808 170.833 29.0331 174.198 25.9002C177.564 22.7673 182.127 21.005 186.887 21H198.315L197.874 22.0067C197.417 23.0485 197.243 24.1789 197.366 25.2983C197.489 26.4176 197.907 27.4916 198.581 28.4255C199.255 29.3594 200.166 30.1247 201.232 30.6538C202.299 31.183 203.49 31.4598 204.698 31.4599H252.907C254.116 31.4598 255.307 31.183 256.373 30.6538C257.44 30.1247 258.351 29.3594 259.025 28.4255C259.699 27.4916 260.117 26.4177 260.24 25.2983C260.363 24.179 260.189 23.0486 259.733 22.0067L259.291 21H271.444C276.204 21.005 280.767 22.7673 284.133 25.9002C287.498 29.0331 289.392 33.2808 289.397 37.7114V240.25C289.392 244.68 287.498 248.928 284.133 252.061C280.767 255.194 276.204 256.956 271.444 256.961Z" fill="white"/>
<path d="M271.444 256.961H186.887C182.127 256.956 177.564 255.194 174.198 252.061C170.833 248.928 168.94 244.68 168.934 240.25V37.7114C168.94 33.2808 170.833 29.0331 174.198 25.9002C177.564 22.7673 182.127 21.005 186.887 21H198.315L197.874 22.0067C197.417 23.0485 197.243 24.1789 197.366 25.2983C197.489 26.4176 197.907 27.4916 198.581 28.4255C199.255 29.3594 200.166 30.1247 201.232 30.6538C202.299 31.183 203.49 31.4598 204.698 31.4599H252.907C254.116 31.4598 255.307 31.183 256.373 30.6538C257.44 30.1247 258.351 29.3594 259.025 28.4255C259.699 27.4916 260.117 26.4177 260.24 25.2983C260.363 24.179 260.189 23.0486 259.733 22.0067L259.291 21H271.444C276.204 21.005 280.767 22.7673 284.133 25.9002C287.498 29.0331 289.392 33.2808 289.397 37.7114V240.25C289.392 244.68 287.498 248.928 284.133 252.061C280.767 255.194 276.204 256.956 271.444 256.961ZM186.887 22.4615C182.544 22.4661 178.379 24.0743 175.308 26.9332C172.237 29.7921 170.509 33.6683 170.504 37.7114V240.25C170.509 244.293 172.237 248.169 175.308 251.028C178.379 253.887 182.544 255.495 186.887 255.5H271.444C275.788 255.495 279.952 253.887 283.023 251.028C286.094 248.169 287.822 244.293 287.827 240.25V37.7114C287.822 33.6682 286.094 29.7921 283.023 26.9331C279.952 24.0742 275.788 22.4661 271.444 22.4615H261.55C261.902 23.694 261.944 24.9851 261.675 26.2353C261.405 27.4855 260.831 28.6613 259.995 29.6721C259.16 30.6828 258.087 31.5014 256.858 32.0648C255.629 32.6282 254.277 32.9212 252.907 32.9213H204.698C203.329 32.9209 201.977 32.6276 200.749 32.0641C199.52 31.5006 198.447 30.682 197.612 29.6713C196.777 28.6606 196.202 27.4849 195.933 26.2349C195.663 24.9848 195.705 23.6938 196.057 22.4615H186.887Z" fill="#3F3D56"/>
<path d="M273.911 92.6473C271.766 86.9099 268.301 81.6772 263.76 77.3141C259.219 72.951 253.71 69.5625 247.617 67.3849C241.524 65.2074 234.995 64.2931 228.483 64.7059C221.972 65.1188 215.636 66.8487 209.917 69.7752C204.198 72.7016 199.233 76.7542 195.369 81.6501C191.505 86.5461 188.835 92.1677 187.545 98.1229C186.255 104.078 186.377 110.224 187.9 116.131C189.424 122.038 192.314 127.564 196.368 132.325C196.771 132.798 197.189 133.27 197.616 133.727C197.648 133.757 197.672 133.787 197.705 133.817C198.755 134.943 199.871 136.015 201.048 137.026C201.354 137.289 201.676 137.559 201.998 137.814C202.61 138.323 203.238 138.811 203.891 139.276C205.165 140.21 206.493 141.079 207.87 141.877L207.918 141.9C208.812 142.417 209.722 142.897 210.649 143.354L211.027 143.534C211.897 143.954 212.783 144.352 213.693 144.719C213.879 144.794 214.08 144.869 214.265 144.944C214.281 144.951 214.29 144.951 214.306 144.959C216.145 145.671 218.034 146.264 219.96 146.736C223.736 147.673 227.627 148.147 231.535 148.145C232.96 148.145 234.37 148.086 235.763 147.958C238.947 147.684 242.091 147.094 245.139 146.196C245.148 146.196 245.155 146.189 245.163 146.189C247.089 145.617 248.97 144.924 250.794 144.112C250.802 144.104 250.818 144.104 250.826 144.097C251.237 143.917 251.632 143.722 252.034 143.534C252.099 143.504 252.163 143.474 252.228 143.444C252.55 143.287 252.872 143.129 253.194 142.965C254 142.552 254.789 142.117 255.57 141.652C255.788 141.532 255.997 141.405 256.215 141.27C256.923 140.835 257.624 140.37 258.301 139.898C258.422 139.815 258.55 139.733 258.672 139.643C266.218 134.311 271.756 126.892 274.494 118.45C277.232 110.008 277.028 100.975 273.911 92.6473Z" fill="white"/>
<path d="M273.911 92.6473C271.766 86.9099 268.301 81.6772 263.76 77.3141C259.219 72.951 253.71 69.5625 247.617 67.3849C241.524 65.2074 234.995 64.2931 228.483 64.7059C221.972 65.1188 215.636 66.8487 209.917 69.7752C204.198 72.7016 199.233 76.7542 195.369 81.6501C191.505 86.5461 188.835 92.1677 187.545 98.1229C186.255 104.078 186.377 110.224 187.9 116.131C189.424 122.038 192.314 127.564 196.368 132.325C196.771 132.798 197.189 133.27 197.616 133.727C197.648 133.757 197.672 133.787 197.705 133.817C198.755 134.943 199.871 136.015 201.048 137.026C201.354 137.289 201.676 137.559 201.998 137.814C202.61 138.323 203.238 138.811 203.891 139.276C205.165 140.21 206.493 141.079 207.87 141.877L207.918 141.9C208.812 142.417 209.722 142.897 210.649 143.354L211.027 143.534C211.897 143.954 212.783 144.352 213.693 144.719C213.879 144.794 214.08 144.869 214.265 144.944C214.281 144.951 214.29 144.951 214.306 144.959C216.145 145.671 218.034 146.264 219.96 146.736C223.736 147.673 227.627 148.147 231.535 148.145C232.96 148.145 234.37 148.086 235.763 147.958C238.947 147.684 242.091 147.094 245.139 146.196C245.148 146.196 245.155 146.189 245.163 146.189C247.089 145.617 248.97 144.924 250.794 144.112C250.802 144.104 250.818 144.104 250.826 144.097C251.237 143.917 251.632 143.722 252.034 143.534C252.099 143.504 252.163 143.474 252.228 143.444C252.55 143.287 252.872 143.129 253.194 142.965C254 142.552 254.789 142.117 255.57 141.652C255.788 141.532 255.997 141.405 256.215 141.27C256.923 140.835 257.624 140.37 258.301 139.898C258.422 139.815 258.55 139.733 258.672 139.643C266.218 134.311 271.756 126.892 274.494 118.45C277.232 110.008 277.028 100.975 273.911 92.6473ZM257.189 137.821C256.923 138.016 256.65 138.203 256.376 138.376C256.11 138.563 255.844 138.743 255.57 138.908C255.337 139.066 255.103 139.216 254.861 139.358C254.66 139.486 254.459 139.606 254.257 139.726C253.589 140.115 252.912 140.49 252.228 140.85C252.155 140.888 252.083 140.925 252.01 140.963C251.704 141.12 251.398 141.27 251.092 141.42C251.051 141.442 251.003 141.457 250.963 141.48L250.915 141.502C250.528 141.69 250.133 141.87 249.739 142.042C248.216 142.725 246.647 143.316 245.043 143.812C244.833 143.879 244.624 143.947 244.414 144.007C241.529 144.861 238.553 145.424 235.538 145.686C234.217 145.799 232.88 145.859 231.535 145.859C227.839 145.866 224.158 145.417 220.588 144.524C218.757 144.079 216.961 143.513 215.216 142.83C215.031 142.762 214.845 142.687 214.668 142.62C214.572 142.582 214.483 142.545 214.386 142.5C213.629 142.192 212.88 141.855 212.147 141.502L211.793 141.33C210.899 140.895 210.02 140.43 209.167 139.935C208.853 139.755 208.538 139.568 208.232 139.373C207.266 138.781 206.323 138.144 205.405 137.476C204.785 137.041 204.189 136.576 203.609 136.097C203.303 135.857 203.005 135.594 202.715 135.347C201.573 134.365 200.492 133.324 199.477 132.228C199.139 131.868 198.808 131.508 198.494 131.133C198.423 131.059 198.355 130.981 198.293 130.901C193.059 124.753 189.911 117.294 189.251 109.475C188.59 101.656 190.446 93.8304 194.582 86.997C198.719 80.1636 204.948 74.6319 212.475 71.1072C220.003 67.5826 228.488 66.2249 236.848 67.2072C245.208 68.1895 253.064 71.4673 259.414 76.6226C265.765 81.7779 270.322 88.577 272.504 96.1529C274.686 103.729 274.395 111.738 271.668 119.159C268.94 126.58 263.9 133.077 257.189 137.821Z" fill="#3F3D56"/>
<path d="M262.502 180.83H200.537C198.566 180.828 196.677 180.099 195.284 178.801C193.89 177.503 193.108 175.743 193.108 173.908C193.108 172.074 193.89 170.314 195.284 169.016C196.677 167.718 198.566 166.988 200.537 166.987H262.502C263.479 166.986 264.447 167.165 265.349 167.512C266.252 167.86 267.073 168.369 267.764 169.012C268.455 169.655 269.003 170.418 269.377 171.258C269.751 172.099 269.944 172.999 269.944 173.908C269.944 174.818 269.751 175.718 269.377 176.559C269.003 177.399 268.455 178.162 267.764 178.805C267.073 179.448 266.252 179.957 265.349 180.305C264.447 180.652 263.479 180.831 262.502 180.83Z" fill="#0E7040"/>
<path d="M262.502 202.171H200.537C198.566 202.17 196.677 201.44 195.284 200.142C193.89 198.844 193.108 197.084 193.108 195.25C193.108 193.415 193.89 191.655 195.284 190.358C196.677 189.06 198.566 188.33 200.537 188.328H262.502C263.479 188.327 264.447 188.506 265.349 188.853C266.252 189.201 267.073 189.711 267.764 190.353C268.455 190.996 269.003 191.76 269.377 192.6C269.751 193.44 269.944 194.34 269.944 195.25C269.944 196.159 269.751 197.06 269.377 197.9C269.003 198.74 268.455 199.503 267.764 200.146C267.073 200.789 266.252 201.299 265.349 201.646C264.447 201.994 263.479 202.172 262.502 202.171Z" fill="#0E7040"/>
<path d="M229.351 232.453C233.458 232.453 236.787 229.354 236.787 225.531C236.787 221.709 233.458 218.61 229.351 218.61C225.244 218.61 221.915 221.709 221.915 225.531C221.915 229.354 225.244 232.453 229.351 232.453Z" fill="#3F3D56"/>
<path d="M265.788 225.531C262.269 224.316 257.902 222.242 255.195 220.046L257.103 224.954H243.603V226.108H257.103L255.195 231.017C257.902 228.82 262.269 226.746 265.788 225.531Z" fill="#3F3D56"/>
<path d="M192.914 225.531C196.433 224.316 200.8 222.242 203.506 220.046L201.599 224.954H215.099V226.108H201.599L203.506 231.017C200.8 228.82 196.433 226.746 192.914 225.531Z" fill="#3F3D56"/>
<path d="M436.477 257.513L56.5234 258C56.3846 258 56.2514 257.949 56.1533 257.857C56.0551 257.766 56 257.642 56 257.513C56 257.384 56.0551 257.26 56.1533 257.168C56.2514 257.077 56.3846 257.026 56.5234 257.026L436.477 256.539C436.615 256.539 436.749 256.59 436.847 256.681C436.945 256.773 437 256.896 437 257.026C437 257.155 436.945 257.279 436.847 257.37C436.749 257.462 436.615 257.513 436.477 257.513Z" fill="#3F3D56"/>
<path d="M382.409 121H347V155.28H382.409V121Z" fill="#CACACA"/>
<path d="M244.409 98H209V132.28H244.409V98Z" fill="#CACACA"/>
<path d="M261.409 88H226V122.28H261.409V88Z" fill="#0E7040"/>
<path d="M155.409 123H120V157.28H155.409V123Z" fill="#CACACA"/>
</g>
</g>
<defs>
<filter id="filter0_d_12_235" x="0" y="0" width="515" height="299" filterUnits="userSpaceOnUse" color-interpolation-filters="sRGB">
<feFlood flood-opacity="0" result="BackgroundImageFix"/>
<feColorMatrix in="SourceAlpha" type="matrix" values="0 0 0 0 0 0 0 0 0 0 0 0 0 0 0 0 0 0 127 0" result="hardAlpha"/>
<feOffset dx="10" dy="10"/>
<feGaussianBlur stdDeviation="5"/>
<feComposite in2="hardAlpha" operator="out"/>
<feColorMatrix type="matrix" values="0 0 0 0 0 0 0 0 0 0 0 0 0 0 0 0 0 0 0.15 0"/>
<feBlend mode="normal" in2="BackgroundImageFix" result="effect1_dropShadow_12_235"/>
<feBlend mode="normal" in="SourceGraphic" in2="effect1_dropShadow_12_235" result="shape"/>
</filter>
<clipPath id="clip0_12_235">
<rect width="515" height="299" fill="white"/>
</clipPath>
</defs>
</svg>
