<?xml version="1.0" standalone="no"?>
<!DOCTYPE svg PUBLIC "-//W3C//DTD SVG 20010904//EN"
 "http://www.w3.org/TR/2001/REC-SVG-20010904/DTD/svg10.dtd">
<svg version="1.0" xmlns="http://www.w3.org/2000/svg"
 width="1032.000000pt" height="1032.000000pt" viewBox="0 0 1032.000000 1032.000000"
 preserveAspectRatio="xMidYMid meet">
<metadata>
Created by potrace 1.14, written by Peter Selinger 2001-2017
</metadata>
<g transform="translate(0.000000,1032.000000) scale(0.100000,-0.100000)"
fill="#000000" stroke="none">
<path d="M329 8136 c-3 -3 -18 -7 -34 -10 -83 -15 -203 -109 -244 -192 -13
-27 -29 -58 -35 -69 -8 -14 -12 -713 -14 -2486 -2 -2675 -6 -2487 49 -2596 25
-50 101 -128 141 -145 15 -7 28 -16 28 -20 0 -5 8 -8 19 -8 10 0 31 -6 46 -14
15 -8 34 -12 41 -9 8 3 14 1 14 -3 0 -5 1066 -8 2388 -7 1313 2 2394 3 2402 3
8 0 64 -1 123 -3 60 -1 111 1 113 5 3 4 15 4 27 -1 25 -9 124 -8 133 2 3 3 17
1 31 -4 15 -5 31 -6 41 0 9 5 25 6 36 2 25 -9 123 -7 132 2 3 3 16 2 28 -2 25
-9 203 -8 212 1 3 4 16 3 28 -1 24 -9 123 -8 132 2 3 3 17 1 31 -4 15 -5 31
-6 41 0 9 5 25 6 36 2 25 -9 123 -7 132 2 3 3 16 2 28 -2 25 -9 203 -8 212 1
3 4 16 3 28 -1 24 -9 123 -8 132 2 3 3 17 1 31 -4 15 -5 31 -6 41 0 9 5 25 6
36 2 25 -9 123 -7 132 2 3 3 16 2 28 -2 25 -9 203 -8 212 1 3 4 16 3 28 -1 24
-9 123 -8 132 2 3 3 17 1 31 -4 15 -5 31 -6 41 0 9 5 25 6 36 2 16 -5 1922 -5
2016 0 28 1 150 43 150 51 0 4 4 8 10 8 23 0 114 91 132 130 7 17 17 30 21 30
5 0 6 4 2 9 -3 6 0 13 7 18 7 4 14 17 15 28 2 11 5 43 9 70 3 28 5 59 4 70 -1
22 -1 22 3 83 2 23 -1 42 -6 42 -6 0 -6 5 0 13 11 14 11 77 0 94 -4 6 -4 14 1
17 5 3 7 25 6 51 -2 32 1 43 9 39 7 -3 4 1 -6 9 -11 9 -14 18 -8 21 9 6 9 35
-1 76 -2 9 3 14 11 12 11 -2 12 0 3 11 -6 7 -10 23 -7 35 2 12 0 24 -5 27 -5
3 -6 16 -2 28 10 28 9 108 -2 125 -4 6 -3 12 2 12 11 0 10 59 -2 78 -4 6 -3
12 1 12 11 0 10 70 0 87 -4 6 -4 14 1 17 5 3 7 25 6 51 -2 32 1 43 9 39 7 -3
4 1 -6 9 -11 9 -14 18 -8 21 9 6 9 35 -1 76 -2 9 3 14 11 12 11 -2 12 0 3 11
-6 7 -10 23 -7 35 2 12 -1 24 -6 27 -5 4 -6 11 -3 17 10 15 11 128 1 128 -4 0
-5 6 0 13 11 17 11 77 0 77 -6 0 -6 5 0 13 11 14 11 77 0 94 -4 6 -4 14 1 17
5 3 7 25 6 51 -2 32 1 43 9 39 7 -3 4 1 -6 9 -11 9 -14 18 -8 21 9 6 9 35 -1
76 -2 9 3 14 11 12 11 -2 12 0 3 11 -6 7 -10 23 -7 35 2 12 0 24 -5 27 -5 3
-6 16 -2 28 10 28 9 108 -2 125 -4 6 -3 12 2 12 11 0 10 59 -2 78 -4 6 -3 12
1 12 11 0 10 70 0 87 -4 6 -4 14 1 17 5 3 7 25 6 51 -2 32 1 43 9 39 7 -3 4 1
-6 9 -11 9 -14 18 -8 21 9 6 9 35 -1 76 -2 9 3 14 11 12 11 -2 12 0 3 11 -6 7
-10 23 -7 35 2 12 -1 24 -6 27 -5 4 -6 11 -3 17 10 15 11 128 1 128 -4 0 -5 6
0 13 11 17 11 77 0 77 -6 0 -6 5 0 13 11 14 11 77 0 94 -4 6 -4 14 1 17 5 3 7
25 6 51 -2 32 1 43 9 39 7 -3 4 1 -6 9 -11 9 -14 18 -8 21 9 6 9 35 -1 76 -2
9 3 14 11 12 11 -2 12 0 3 11 -6 7 -10 23 -7 35 2 12 0 24 -5 27 -5 3 -6 16
-2 28 10 28 9 108 -2 125 -4 6 -3 12 2 12 11 0 10 59 -2 78 -4 6 -3 12 1 12
11 0 10 70 0 87 -4 6 -4 14 1 17 5 3 7 25 6 51 -2 32 1 43 9 39 7 -3 4 1 -6 9
-11 9 -14 18 -8 21 9 6 9 35 -1 76 -2 9 3 14 11 12 11 -2 12 0 3 11 -6 7 -10
23 -7 35 2 12 0 24 -5 27 -5 3 -6 16 -2 28 10 28 9 108 -2 125 -4 6 -3 12 2
12 11 0 10 59 -2 78 -4 6 -3 12 1 12 10 0 10 70 0 86 -3 6 -4 14 0 18 10 10
10 119 0 140 -8 16 -6 18 8 12 14 -5 15 -3 7 6 -5 7 -9 30 -8 51 2 22 -2 37
-8 37 -7 0 -7 3 -1 8 12 8 13 62 2 80 -5 7 -3 12 4 12 7 0 9 3 6 7 -4 3 -1 13
6 21 9 13 9 14 0 8 -9 -5 -13 0 -13 16 0 13 0 30 -1 38 0 8 1 30 4 48 2 18 0
35 -5 38 -5 3 -1 15 9 27 10 11 12 17 5 13 -9 -5 -12 0 -10 21 1 16 -2 35 -7
42 -5 9 -4 12 2 8 13 -8 6 67 -12 138 -9 34 -44 104 -62 123 -7 7 -18 21 -25
30 -34 46 -124 100 -203 121 -29 8 -1358 11 -4661 11 -2541 0 -4623 -2 -4625
-4z"/>
<path d="M10080 7300 c-9 -6 -10 -10 -3 -10 6 0 15 5 18 10 8 12 4 12 -15 0z"/>
<path d="M9906 2718 c3 -5 10 -6 15 -3 13 9 11 12 -6 12 -8 0 -12 -4 -9 -9z"/>
<path d="M9756 2633 c-6 -14 -5 -15 5 -6 7 7 10 15 7 18 -3 3 -9 -2 -12 -12z"/>
<path d="M1473 2405 c0 -8 4 -12 9 -9 5 3 6 10 3 15 -9 13 -12 11 -12 -6z"/>
<path d="M2433 2405 c0 -8 4 -12 9 -9 5 3 6 10 3 15 -9 13 -12 11 -12 -6z"/>
<path d="M3393 2405 c0 -8 4 -12 9 -9 5 3 6 10 3 15 -9 13 -12 11 -12 -6z"/>
<path d="M4353 2405 c0 -8 4 -12 9 -9 5 3 6 10 3 15 -9 13 -12 11 -12 -6z"/>
<path d="M8193 2405 c0 -8 4 -12 9 -9 5 3 6 10 3 15 -9 13 -12 11 -12 -6z"/>
<path d="M9153 2405 c0 -8 4 -12 9 -9 5 3 6 10 3 15 -9 13 -12 11 -12 -6z"/>
</g>
</svg>
