<svg width="33" height="32" viewBox="0 0 33 32" fill="none" xmlns="http://www.w3.org/2000/svg">
<path d="M23.7333 31H9.26667C4.72 31 1 27.4 1 23V9C1 4.6 4.72 1 9.26667 1H23.7333C28.28 1 32 4.6 32 9V23C32 27.4 28.28 31 23.7333 31Z" stroke="white" stroke-width="2" stroke-miterlimit="10" stroke-linecap="round" stroke-linejoin="round"/>
<path d="M24 15H19V12.2C19 11.5 19.5 11 20.2 11H23V6H19C16.2 6 14 8.2 14 11V15H10V20H14V30H19V20H22L24 15Z" stroke="white" stroke-width="2" stroke-miterlimit="10" stroke-linecap="round" stroke-linejoin="round"/>
</svg>
