<svg width="31" height="31" viewBox="0 0 31 31" fill="none" xmlns="http://www.w3.org/2000/svg">
<rect width="31" height="31" fill="#F5F5F5"/>
<rect width="1440" height="3642" transform="translate(-223 -3041)" fill="white"/>
<rect x="-223" y="-42" width="1440" height="219" fill="black"/>
<mask id="path-2-inside-1_0_1" fill="white">
<path fill-rule="evenodd" clip-rule="evenodd" d="M9.09797 0.19023C6.57475 0.304078 4.38776 0.920973 2.62182 2.67946C0.849702 4.44719 0.240469 6.64284 0.126338 9.13982C0.0553914 10.6983 -0.359467 22.4724 0.843535 25.5601C1.65479 27.6432 3.25258 29.2449 5.35475 30.0588C6.33566 30.4403 7.45541 30.6986 9.09797 30.774C22.8322 31.3955 27.9234 31.0571 30.0703 25.5601C30.4512 24.5816 30.7134 23.4629 30.7859 21.8244C31.4136 8.0549 30.6841 5.07028 28.2905 2.67946C26.3919 0.785581 24.1586 -0.503627 9.09797 0.19023ZM9.22441 28.0047C7.72065 27.937 6.90478 27.6864 6.36035 27.4757C4.99078 26.9434 3.96206 25.9189 3.43305 24.5573C2.51692 22.2111 2.82077 11.0678 2.90251 9.26469C2.98271 7.4985 3.34052 5.88432 4.5867 4.63816C6.12901 3.09966 8.12166 2.34565 21.6894 2.95798C23.4599 3.03797 25.0778 3.39506 26.3271 4.63816C27.8694 6.17664 28.6344 8.18462 28.0113 21.7003C27.9434 23.2003 27.6921 24.0142 27.4808 24.5573C26.085 28.1343 22.8738 28.6309 9.22441 28.0047ZM21.839 7.26892C21.839 8.28741 22.6672 9.1156 23.6898 9.1156C24.7123 9.1156 25.5421 8.28741 25.5421 7.26892C25.5421 6.25044 24.7123 5.42299 23.6898 5.42299C22.6672 5.42299 21.839 6.25044 21.839 7.26892ZM7.53713 15.4813C7.53713 19.8445 11.0829 23.382 15.4569 23.382C19.8309 23.382 23.3767 19.8445 23.3767 15.4813C23.3767 11.1182 19.8309 7.583 15.4569 7.583C11.0829 7.583 7.53713 11.1182 7.53713 15.4813ZM10.3164 15.4813C10.3164 12.6505 12.6175 10.3538 15.4569 10.3538C18.2963 10.3538 20.5974 12.6505 20.5974 15.4813C20.5974 18.3137 18.2963 20.6112 15.4569 20.6112C12.6175 20.6112 10.3164 18.3137 10.3164 15.4813Z"/>
</mask>
<path fill-rule="evenodd" clip-rule="evenodd" d="M9.09797 0.19023C6.57475 0.304078 4.38776 0.920973 2.62182 2.67946C0.849702 4.44719 0.240469 6.64284 0.126338 9.13982C0.0553914 10.6983 -0.359467 22.4724 0.843535 25.5601C1.65479 27.6432 3.25258 29.2449 5.35475 30.0588C6.33566 30.4403 7.45541 30.6986 9.09797 30.774C22.8322 31.3955 27.9234 31.0571 30.0703 25.5601C30.4512 24.5816 30.7134 23.4629 30.7859 21.8244C31.4136 8.0549 30.6841 5.07028 28.2905 2.67946C26.3919 0.785581 24.1586 -0.503627 9.09797 0.19023ZM9.22441 28.0047C7.72065 27.937 6.90478 27.6864 6.36035 27.4757C4.99078 26.9434 3.96206 25.9189 3.43305 24.5573C2.51692 22.2111 2.82077 11.0678 2.90251 9.26469C2.98271 7.4985 3.34052 5.88432 4.5867 4.63816C6.12901 3.09966 8.12166 2.34565 21.6894 2.95798C23.4599 3.03797 25.0778 3.39506 26.3271 4.63816C27.8694 6.17664 28.6344 8.18462 28.0113 21.7003C27.9434 23.2003 27.6921 24.0142 27.4808 24.5573C26.085 28.1343 22.8738 28.6309 9.22441 28.0047ZM21.839 7.26892C21.839 8.28741 22.6672 9.1156 23.6898 9.1156C24.7123 9.1156 25.5421 8.28741 25.5421 7.26892C25.5421 6.25044 24.7123 5.42299 23.6898 5.42299C22.6672 5.42299 21.839 6.25044 21.839 7.26892ZM7.53713 15.4813C7.53713 19.8445 11.0829 23.382 15.4569 23.382C19.8309 23.382 23.3767 19.8445 23.3767 15.4813C23.3767 11.1182 19.8309 7.583 15.4569 7.583C11.0829 7.583 7.53713 11.1182 7.53713 15.4813ZM10.3164 15.4813C10.3164 12.6505 12.6175 10.3538 15.4569 10.3538C18.2963 10.3538 20.5974 12.6505 20.5974 15.4813C20.5974 18.3137 18.2963 20.6112 15.4569 20.6112C12.6175 20.6112 10.3164 18.3137 10.3164 15.4813Z" fill="white" stroke="white" stroke-width="2" mask="url(#path-2-inside-1_0_1)"/>
</svg>
