<svg width="31" height="31" viewBox="0 0 31 31" fill="none" xmlns="http://www.w3.org/2000/svg">
<path d="M3.22917 0.5H27.7708C29.2753 0.5 30.5 1.72475 30.5 3.22917V27.7708C30.5 29.2753 29.2753 30.5 27.7708 30.5H3.22917C1.72475 30.5 0.5 29.2753 0.5 27.7708V3.22917C0.5 1.72475 1.72475 0.5 3.22917 0.5ZM27.7708 30.2083C29.1152 30.2083 30.2083 29.1152 30.2083 27.7708V3.22917C30.2083 1.88482 29.1152 0.791667 27.7708 0.791667H3.22917C1.88482 0.791667 0.791667 1.88482 0.791667 3.22917V27.7708C0.791667 29.1152 1.88482 30.2083 3.22917 30.2083H27.7708Z" fill="white" stroke="white"/>
<path d="M5.81251 12.4167H5.31251V12.9167V25.1875V25.6875H5.81251H8.39584H8.89584V25.1875V12.9167V12.4167H8.39584H5.81251ZM9.18751 12.125V25.9792H5.02084V12.125H9.18751Z" fill="white" stroke="white"/>
<path d="M4.375 7.10417C4.375 5.59975 5.59975 4.375 7.10417 4.375C8.60859 4.375 9.83333 5.59975 9.83333 7.10417C9.83333 8.60859 8.60859 9.83333 7.10417 9.83333C5.59975 9.83333 4.375 8.60859 4.375 7.10417ZM4.66667 7.10417C4.66667 8.44852 5.75982 9.54167 7.10417 9.54167C8.44852 9.54167 9.54167 8.44852 9.54167 7.10417C9.54167 5.75982 8.44852 4.66667 7.10417 4.66667C5.75982 4.66667 4.66667 5.75982 4.66667 7.10417Z" fill="white" stroke="white"/>
<path d="M16.2917 12.2166V13.0032L17.0039 12.6693C17.779 12.306 18.5722 12.125 19.375 12.125C23.3723 12.125 26.625 15.3777 26.625 19.375V25.9792H22.4583V19.375C22.4583 17.6741 21.0759 16.2917 19.375 16.2917C17.6741 16.2917 16.2917 17.6741 16.2917 19.375V25.9792H12.125V12.125H16.2917V12.2166ZM25.8333 25.6875H26.3333V25.1875V19.375C26.3333 15.5377 23.2123 12.4167 19.375 12.4167C18.285 12.4167 17.2248 12.7736 16.2279 13.4481L16.2278 13.4482L16 13.6024V12.9167V12.4167H15.5H12.9167H12.4167V12.9167V25.1875V25.6875H12.9167H15.5H16V25.1875V19.375C16 17.5141 17.5141 16 19.375 16C21.2359 16 22.75 17.5141 22.75 19.375V25.1875V25.6875H23.25H25.8333Z" fill="white" stroke="white"/>
</svg>
