<svg width="456" height="352" viewBox="0 0 456 352" fill="none" xmlns="http://www.w3.org/2000/svg">
<g clip-path="url(#clip0_88_72)">
<path d="M417.909 252.205L432.162 250.578C435.251 243.661 436.615 236.089 436.138 228.521C428.39 239.517 411.999 239.341 401.108 247.186C397.729 249.659 394.947 252.865 392.967 256.568C390.987 260.27 389.86 264.374 389.669 268.574L384.963 277.654C391.666 278.393 398.448 277.66 404.843 275.505C411.237 273.351 417.092 269.827 422.003 265.176C424.733 262.539 427.122 259.567 429.114 256.329C423.505 254.62 417.909 252.205 417.909 252.205Z" fill="#F2F2F2"/>
<path d="M407.058 231.542L419.094 223.687C418.794 216.109 416.661 208.72 412.88 202.16C410.818 215.481 396.069 222.682 389.796 234.593C387.868 238.323 386.798 242.442 386.666 246.645C386.534 250.848 387.344 255.027 389.034 258.872L388.844 269.111C395.171 266.763 400.917 263.062 405.686 258.263C410.455 253.464 414.134 247.682 416.469 241.314C417.744 237.728 418.565 233.996 418.914 230.203C413.136 231.191 407.058 231.542 407.058 231.542Z" fill="#F2F2F2"/>
<path d="M354.805 327.674C378.659 327.674 397.996 308.207 397.996 284.194C397.996 260.181 378.659 240.715 354.805 240.715C330.951 240.715 311.613 260.181 311.613 284.194C311.613 308.207 330.951 327.674 354.805 327.674Z" fill="white"/>
<path d="M354.805 328.205C346.158 328.205 337.705 325.624 330.516 320.788C323.326 315.952 317.723 309.078 314.414 301.036C311.105 292.995 310.239 284.146 311.926 275.608C313.613 267.071 317.777 259.229 323.891 253.074C330.005 246.919 337.795 242.728 346.275 241.03C354.756 239.332 363.546 240.203 371.535 243.534C379.524 246.865 386.352 252.506 391.155 259.743C395.959 266.981 398.523 275.49 398.524 284.194C398.51 295.862 393.9 307.049 385.704 315.3C377.508 323.55 366.396 328.191 354.805 328.205ZM354.805 241.246C346.367 241.246 338.118 243.765 331.102 248.484C324.086 253.203 318.617 259.911 315.388 267.759C312.159 275.607 311.314 284.242 312.96 292.573C314.607 300.905 318.67 308.557 324.637 314.564C330.603 320.57 338.205 324.661 346.482 326.318C354.758 327.975 363.336 327.124 371.132 323.874C378.928 320.623 385.591 315.118 390.279 308.055C394.967 300.992 397.469 292.689 397.469 284.194C397.456 272.807 392.957 261.891 384.959 253.839C376.96 245.787 366.116 241.258 354.805 241.246Z" fill="#3F3D56"/>
<path d="M351.57 301.571C351.478 301.571 351.386 301.568 351.294 301.564C350.48 301.524 349.685 301.308 348.962 300.93C348.239 300.552 347.606 300.021 347.107 299.374L339.889 290.032C339.433 289.442 339.097 288.768 338.9 288.048C338.703 287.327 338.649 286.575 338.741 285.834C338.833 285.092 339.069 284.376 339.436 283.727C339.803 283.077 340.293 282.507 340.879 282.048L341.139 281.845C341.724 281.386 342.394 281.047 343.11 280.849C343.826 280.651 344.574 280.596 345.31 280.689C346.047 280.782 346.758 281.019 347.403 281.389C348.049 281.759 348.615 282.253 349.071 282.843C349.436 283.314 349.897 283.7 350.423 283.975C350.95 284.251 351.529 284.408 352.122 284.437C352.715 284.466 353.307 284.366 353.857 284.144C354.408 283.921 354.904 283.582 355.313 283.149L369.968 267.573C371 266.479 372.42 265.842 373.918 265.801C375.416 265.76 376.869 266.319 377.958 267.355L378.198 267.585C378.737 268.099 379.17 268.715 379.473 269.397C379.775 270.079 379.941 270.815 379.961 271.562C379.981 272.308 379.855 273.052 379.59 273.75C379.324 274.447 378.925 275.085 378.414 275.628L355.671 299.794C355.143 300.355 354.507 300.803 353.802 301.108C353.097 301.414 352.337 301.571 351.57 301.571Z" fill="#468335"/>
<path d="M332.209 339.758L326.218 340.43L320.543 317.035L329.383 316.043L332.209 339.758Z" fill="#A0616A"/>
<path d="M371.674 234.581C371.488 234.394 371.286 234.213 371.085 234.04C369.54 232.749 367.924 231.545 366.247 230.433C364.349 229.16 362.213 227.861 359.798 226.519C358.629 225.869 357.393 225.206 356.091 224.529C355.439 224.189 354.768 223.847 354.078 223.503C354.049 223.486 354.018 223.47 353.987 223.456L353.788 223.354L339.251 235.433L338.218 236.25L340.896 239.574C340.896 239.574 340.663 242.217 340.668 242.218L338.01 248.896L337.981 248.91L328.51 253.261L318.751 257.746L313.509 260.157C312.293 260.714 311.2 261.509 310.293 262.496C309.386 263.483 308.682 264.642 308.224 265.905C307.742 267.216 307.525 268.612 307.584 270.009C307.643 271.406 307.978 272.778 308.569 274.044C308.686 274.302 308.818 274.56 308.958 274.809L311.136 288.596C312.437 296.842 314.967 304.843 318.64 312.329L321.967 325.234L322.472 324.979L329.996 321.185L331.984 320.185L332.36 311.514C332.402 310.525 332.408 309.532 332.373 308.54C332.322 306.917 332.168 305.298 331.912 303.695L327.598 276.654C328.363 276.34 329.119 276.024 329.863 275.707C333.316 274.253 336.585 272.783 339.67 271.297C349.702 266.47 357.875 261.459 364.553 256.031C366.43 254.509 368.19 252.95 369.834 251.356C370.438 250.773 371.026 250.185 371.598 249.591C371.734 249.454 371.867 249.319 371.997 249.18C373.173 247.938 374.021 246.418 374.463 244.761C374.905 243.104 374.927 241.361 374.527 239.693C374.079 237.75 373.089 235.977 371.674 234.581Z" fill="#2F2E41"/>
<path d="M331.721 335.663L325.237 336.384L324.22 336.496L324.882 340.373L317.346 347.783C316.973 348.149 316.727 348.626 316.642 349.143C316.557 349.66 316.639 350.191 316.875 350.658C317.112 351.125 317.491 351.504 317.956 351.739C318.422 351.974 318.95 352.053 319.463 351.965L330.164 350.119L331.355 345.967L332.728 349.677L336.759 348.983L333.298 335.489L331.721 335.663Z" fill="#2F2E41"/>
<path d="M337.894 201.435L343.446 195.507L335.614 178.257L334.449 172.197C334.298 171.41 333.944 170.677 333.422 170.07C332.901 169.464 332.231 169.006 331.479 168.742C330.727 168.478 329.919 168.417 329.137 168.566C328.354 168.715 327.624 169.068 327.019 169.59C326.123 170.363 325.56 171.456 325.45 172.639C325.339 173.822 325.69 175.002 326.427 175.93L330.751 181.372L337.894 201.435Z" fill="#A0616A"/>
<path d="M343.445 192.853L337.117 199.223L338.328 208.537C338.713 209.752 339.404 210.847 340.334 211.715C341.263 212.583 342.4 213.194 343.633 213.49C345.154 213.854 346.75 213.722 348.191 213.112C349.632 212.501 350.842 211.445 351.646 210.095L365.879 185.537C366.888 183.845 367.199 181.822 366.747 179.902C366.294 177.982 365.114 176.316 363.458 175.26C362.567 174.692 361.567 174.319 360.524 174.166C359.481 174.013 358.417 174.082 357.402 174.37C356.387 174.658 355.444 175.158 354.634 175.837C353.823 176.516 353.164 177.36 352.699 178.312L344.012 196.946L343.445 192.853Z" fill="#E6E6E6"/>
<path d="M337.071 286.851C336.745 287.186 336.417 287.517 336.085 287.849C335.425 288.512 334.756 289.169 334.085 289.818C333.747 290.144 333.406 290.47 333.067 290.791L333.07 290.803L333.048 290.812L333.041 290.818L332.478 291.11L331.077 289.033L330.431 288.077L329.518 286.722L327.845 284.243L319.037 271.192L326.936 267.087L327.558 268.306L327.562 268.305L327.87 268.909L333.646 280.176L334.826 282.48L334.863 282.55L335.572 283.925L336.183 285.117L336.865 286.45L337.071 286.851Z" fill="#A0616A"/>
<path d="M335.438 282.62L329.939 286.155L329.076 286.708L331.373 289.89L327.87 299.891C327.696 300.386 327.684 300.923 327.836 301.424C327.987 301.926 328.294 302.366 328.711 302.679C329.128 302.993 329.634 303.164 330.155 303.168C330.676 303.171 331.184 303.007 331.606 302.699L340.393 296.28L339.636 292.026L342.498 294.742L345.808 292.324L336.776 281.762L335.438 282.62Z" fill="#2F2E41"/>
<path d="M144.52 86.9153L148.731 73.1113C143.665 67.4985 137.314 63.2154 130.23 60.6339C137.151 72.1759 130.445 87.2326 133.24 100.417C134.142 104.523 135.952 108.371 138.533 111.677C141.114 114.983 144.401 117.662 148.15 119.515L154.54 127.485C157.89 121.594 159.931 115.041 160.523 108.28C161.114 101.518 160.243 94.7072 157.969 88.317C156.657 84.7448 154.904 81.3531 152.751 78.2219C148.954 82.7154 144.52 86.9153 144.52 86.9153Z" fill="#F2F2F2"/>
<path d="M121.369 88.679L119.022 74.4335C112.001 71.6842 104.419 70.7018 96.9355 71.5715C108.243 78.795 108.911 95.2821 117.254 105.828C119.881 109.098 123.205 111.73 126.98 113.53C130.755 115.33 134.884 116.252 139.061 116.228L148.31 120.492C148.698 113.715 147.622 106.935 145.157 100.617C142.691 94.2988 138.894 88.5942 134.027 83.8958C131.27 81.2873 128.199 79.0386 124.884 77.2027C123.477 82.9292 121.369 88.679 121.369 88.679Z" fill="#F2F2F2"/>
<path d="M201.955 46.842L206.279 41.4004C207.017 40.4726 207.367 39.2927 207.257 38.1097C207.146 36.9267 206.583 35.8332 205.687 35.0599C205.083 34.5381 204.352 34.1852 203.57 34.0365C202.787 33.8878 201.979 33.9484 201.227 34.2124C200.475 34.4764 199.805 34.9345 199.284 35.5408C198.763 36.1472 198.409 36.8806 198.257 37.6678L197.092 43.727L192.672 55.7419L197.976 58.4118L201.955 46.842Z" fill="#FFB8B8"/>
<path d="M188.692 62.4168L180.004 43.7824C179.539 42.8299 178.88 41.9866 178.07 41.3074C177.259 40.6283 176.316 40.1285 175.301 39.8406C174.286 39.5527 173.223 39.4831 172.179 39.6364C171.136 39.7897 170.137 40.1624 169.246 40.7303C167.59 41.7863 166.409 43.4523 165.957 45.3725C165.504 47.2927 165.816 49.315 166.824 51.0072L181.057 75.5659C181.861 76.9152 183.072 77.9716 184.512 78.5819C185.953 79.1923 187.55 79.3248 189.07 78.9603C190.304 78.6648 191.44 78.0534 192.369 77.1856C193.299 76.3177 193.99 75.2229 194.375 74.0071L199.743 57.0768L192.67 53.5169L188.692 62.4168Z" fill="#2F2E41"/>
<path d="M205.085 56.4195L199.394 55.9391C198.5 55.8627 197.674 55.4327 197.095 54.7434C196.516 54.0541 196.233 53.1619 196.306 52.2624L198.496 25.9748C198.572 25.0755 198.999 24.2433 199.684 23.6606C200.369 23.078 201.255 22.7926 202.148 22.867L207.84 23.3474C208.733 23.4238 209.56 23.8538 210.139 24.5431C210.717 25.2324 211.001 26.1247 210.927 27.0241L208.737 53.3117C208.661 54.211 208.234 55.0433 207.55 55.6259C206.865 56.2085 205.979 56.4939 205.085 56.4195Z" fill="#3F3D56"/>
<path d="M201.371 24.1515C200.89 24.1115 200.412 24.2653 200.043 24.5792C199.674 24.8932 199.444 25.3417 199.403 25.8263L197.213 52.1139C197.173 52.5986 197.326 53.0794 197.638 53.4508C197.95 53.8223 198.396 54.054 198.877 54.0952L204.568 54.5756C205.05 54.6157 205.527 54.4619 205.896 54.1479C206.265 53.834 206.495 53.3855 206.536 52.9009L208.726 26.6133C208.766 26.1286 208.613 25.6478 208.301 25.2763C207.989 24.9049 207.544 24.6732 207.062 24.632L201.371 24.1515Z" fill="#468335"/>
<path d="M189.727 80.0804H166.049V103.916H189.727V80.0804Z" fill="#FFB8B8"/>
<path d="M194.333 78.0418C195.033 78.0418 195.601 77.4701 195.601 76.7649C195.601 76.0597 195.033 75.488 194.333 75.488C193.632 75.488 193.064 76.0597 193.064 76.7649C193.064 77.4701 193.632 78.0418 194.333 78.0418Z" fill="#2F2E41"/>
<path d="M215.466 180.763L221.781 180.763L224.786 156.242L215.465 156.242L215.466 180.763Z" fill="#FFB6B6"/>
<path d="M213.901 177.627L223.884 177.027V181.333L233.376 187.932C233.845 188.257 234.198 188.726 234.383 189.268C234.569 189.81 234.578 190.398 234.408 190.945C234.239 191.493 233.9 191.971 233.441 192.311C232.982 192.651 232.427 192.834 231.858 192.834H219.972L217.924 188.575L217.124 192.834H212.643L213.901 177.627Z" fill="#2F2E41"/>
<path d="M168.6 198.268L174.015 201.539L189.126 182.071L181.135 177.243L168.6 198.268Z" fill="#FFB6B6"/>
<path d="M168.86 194.767L177.726 199.425L175.525 203.117L180.289 213.692C180.524 214.214 180.588 214.798 180.47 215.359C180.352 215.921 180.059 216.429 179.634 216.811C179.208 217.192 178.673 217.427 178.106 217.481C177.539 217.534 176.969 217.404 176.481 217.109L166.29 210.951L166.711 206.238L163.848 209.476L160.006 207.154L168.86 194.767Z" fill="#2F2E41"/>
<path d="M41.6151 196.134C41.5527 196.134 41.4904 196.132 41.4275 196.13C40.6934 196.103 39.9766 195.898 39.3381 195.533C38.6996 195.167 38.1583 194.652 37.7602 194.03C34.7783 189.544 31.1189 185.553 26.9142 182.203C24.3688 180.155 21.7089 178.251 19.1368 176.409C12.501 171.659 6.2518 167.186 2.78284 161.005C-4.78053 147.526 4.12645 128.753 16.8509 120.333C31.1231 110.891 49.896 109.41 68.0566 109.215C69.944 109.195 71.8325 109.185 73.7222 109.185C106.444 109.198 139.097 112.204 171.278 118.165C181.979 120.153 193.18 122.587 202.181 128.496C211.129 134.369 216.568 143.619 216.037 152.061C215.262 164.385 202.285 173.593 190.468 176C179.204 178.293 167.503 176.744 155.116 175.103C152.381 174.741 149.553 174.366 146.757 174.041C116.368 170.505 59.2798 181.404 56.8646 181.869L54.4685 182.331L45.1712 194.375C44.753 194.924 44.2145 195.369 43.5977 195.674C42.9808 195.979 42.3023 196.136 41.6151 196.134Z" fill="#468335"/>
<path d="M176.941 136.014H48.4959C47.7547 136.014 47.0438 135.718 46.5197 135.19C45.9956 134.663 45.7012 133.947 45.7012 133.201C45.7012 132.455 45.9956 131.739 46.5197 131.212C47.0438 130.684 47.7547 130.388 48.4959 130.388H176.941C177.682 130.388 178.393 130.684 178.917 131.212C179.441 131.739 179.735 132.455 179.735 133.201C179.735 133.947 179.441 134.663 178.917 135.19C178.393 135.718 177.682 136.014 176.941 136.014Z" fill="white"/>
<path d="M176.942 153.283H48.4974C48.1301 153.283 47.7664 153.211 47.4269 153.07C47.0874 152.929 46.7788 152.723 46.5188 152.462C46.2587 152.201 46.0523 151.891 45.9114 151.549C45.7704 151.208 45.6977 150.842 45.6973 150.472C45.6969 150.103 45.7689 149.737 45.9091 149.395C46.0494 149.053 46.2551 148.743 46.5146 148.481C46.7741 148.22 47.0823 148.012 47.4215 147.871C47.7607 147.729 48.1243 147.656 48.4915 147.656H176.942C177.683 147.657 178.392 147.954 178.916 148.481C179.439 149.009 179.733 149.724 179.733 150.469C179.733 151.215 179.439 151.93 178.916 152.457C178.392 152.985 177.683 153.282 176.942 153.283Z" fill="white"/>
<path d="M63.4642 170.551H48.4959C47.7554 170.55 47.0455 170.253 46.5223 169.725C45.999 169.198 45.7051 168.483 45.7051 167.737C45.7051 166.992 45.999 166.277 46.5223 165.749C47.0455 165.222 47.7554 164.925 48.4959 164.924H63.4642C64.2048 164.925 64.9146 165.222 65.4379 165.749C65.9612 166.277 66.2551 166.992 66.2551 167.737C66.2551 168.483 65.9612 169.198 65.4379 169.725C64.9146 170.253 64.2048 170.55 63.4642 170.551Z" fill="white"/>
<path d="M190.564 97.0925L165.249 94.0513L165.977 98.8829C165.977 98.8829 148.835 112.788 160.57 128.13L166.235 133.693L165.714 136.306H169.352L169.742 139.46L185.393 152.501L186.292 155.17H188.869L187.61 158.204L175.99 185.408L185.617 189.927L203.346 155.711L198.805 145.399L182.468 124.583L207.772 134.645L208.203 136.854L210.529 136.41L210.08 139.661L215.017 165.237L225.477 163.839L224.401 132.015C224.32 130.276 223.784 128.589 222.846 127.126C221.908 125.663 220.602 124.475 219.061 123.684C213.699 120.912 193.894 113.21 193.894 113.21L190.564 97.0925Z" fill="#2F2E41"/>
<path d="M180.425 41.3469L175.659 35.1799L168.861 34.8831L168.182 40.6833L164.813 42.247C161.45 55.1108 160.93 68.5608 163.292 81.6487C163.743 82.0766 164.073 82.618 164.247 83.217C164.421 83.8161 164.434 84.4511 164.283 85.0566L164.065 85.933L164.085 85.9651C164.802 87.1037 165.045 88.4804 164.762 89.798L158.604 100.814C171.681 106.179 181.268 96.1731 190.15 83.0598L195.647 63.9059L180.425 41.3469Z" fill="#3F3D56"/>
<path d="M194.752 76.8072L196.036 63.8847L178.996 38.492L178.295 38.9682L195.164 64.1066L193.911 76.7223L194.752 76.8072Z" fill="#2F2E41"/>
<path d="M175.992 34.6736C182.934 34.6736 188.562 29.0083 188.562 22.0198C188.562 15.0313 182.934 9.36604 175.992 9.36604C169.05 9.36604 163.422 15.0313 163.422 22.0198C163.422 29.0083 169.05 34.6736 175.992 34.6736Z" fill="#FFB8B8"/>
<path d="M177.608 6.5873L176.03 6.63768L175.495 6.65479L169.492 6.84653C164.171 7.01647 160.012 12.039 160.202 18.0646C156.315 22.251 157.68 27.2965 161.038 32.6679C166.81 33.2043 172.48 34.5386 177.89 36.6334L178.545 33.3528L180.175 37.5937C181.524 38.1994 182.864 38.8661 184.195 39.5937C182.442 32.4309 181.588 25.2562 182.459 19.6339L185.208 19.5461L185.112 16.5178L186.141 19.5163L191.124 19.3571C191.07 17.6252 190.677 15.9211 189.968 14.342C189.259 12.763 188.248 11.3399 186.993 10.1541C185.738 8.96833 184.263 8.04302 182.653 7.43102C181.042 6.81903 179.328 6.53233 177.608 6.5873Z" fill="#2F2E41"/>
<path d="M166.755 11.918C170.025 11.918 172.675 9.25011 172.675 5.95905C172.675 2.66799 170.025 6.10352e-05 166.755 6.10352e-05C163.486 6.10352e-05 160.836 2.66799 160.836 5.95905C160.836 9.25011 163.486 11.918 166.755 11.918Z" fill="#2F2E41"/>
<path d="M205.644 53.2119L209.969 47.7703C210.706 46.8425 211.056 45.6626 210.946 44.4796C210.836 43.2967 210.273 42.2031 209.377 41.4299C208.772 40.9081 208.042 40.5552 207.259 40.4064C206.476 40.2577 205.669 40.3184 204.917 40.5824C204.164 40.8464 203.494 41.3044 202.973 41.9108C202.452 42.5172 202.098 43.2506 201.947 44.0378L200.782 50.097L196.361 62.1118L201.666 64.7818L205.644 53.2119Z" fill="#FFB8B8"/>
<path d="M192.383 68.7868L183.696 50.1524C183.231 49.1998 182.571 48.3565 181.761 47.6774C180.951 46.9982 180.008 46.4984 178.993 46.2105C177.978 45.9226 176.914 45.8531 175.871 46.0064C174.828 46.1597 173.828 46.5324 172.937 47.1003C171.281 48.1562 170.101 49.8222 169.648 51.7425C169.196 53.6627 169.507 55.6849 170.516 57.3772L184.749 81.9358C185.553 83.2851 186.763 84.3415 188.204 84.9519C189.645 85.5622 191.241 85.6948 192.762 85.3303C193.995 85.0347 195.131 84.4234 196.061 83.5555C196.99 82.6877 197.681 81.5928 198.067 80.3771L203.434 63.4468L196.361 59.8869L192.383 68.7868Z" fill="#2F2E41"/>
<path d="M375.087 245.366C374.54 246.25 373.981 247.131 373.418 248.003C372.372 249.628 371.297 251.228 370.195 252.804C370.195 252.808 370.191 252.808 370.187 252.812C369.544 253.412 368.834 253.934 368.07 254.368C368.038 254.392 368.002 254.408 367.97 254.428C367.408 254.741 366.81 254.983 366.189 255.148C365.965 255.204 365.738 255.26 365.514 255.317C364.707 255.51 363.909 255.674 363.114 255.819C361.7 256.072 360.302 256.253 358.912 256.366C358.8 256.378 358.689 256.386 358.577 256.394C352.862 256.816 347.298 256.137 341.491 255.023C338.623 254.476 335.696 253.821 332.665 253.141C331.674 252.916 330.68 252.695 329.673 252.474C329.597 252.458 329.517 252.438 329.438 252.422C328 252.104 326.538 251.791 325.04 251.481C323.155 251.091 324.122 251.068 322.101 250.711C322.101 250.711 326.763 255.477 327.538 257.543C328.401 260.084 329.084 262.095 327.642 266.28L332.12 275.129L316.553 277.786C307.974 260.863 301.117 249.719 304.18 243.156C304.192 242.85 304.216 242.54 304.256 242.235C304.419 240.846 304.855 239.503 305.538 238.286C306.222 237.068 307.14 235.999 308.238 235.143C309.291 234.315 310.496 233.706 311.784 233.351C313.073 232.996 314.418 232.903 315.743 233.076L318.798 233.474L342.493 232.315L343.424 228.496L343.596 228.432L349.055 226.417L367.938 219.45L367.986 219.434L369.228 218.975L369.376 219.217C369.42 219.289 369.464 219.361 369.504 219.434C370.732 221.649 371.731 223.985 372.487 226.405C373.759 230.358 374.806 234.381 375.623 238.455C375.659 238.632 375.691 238.792 375.718 238.937L375.73 238.981C375.742 239.05 375.75 239.094 375.754 239.106C376.19 240.931 375.886 243.159 375.087 245.366Z" fill="#2F2E41"/>
<path d="M371.104 171.076L370.967 163.456L358.975 162.052L357.718 168.486L345.115 180.408C336.154 191.436 342.665 199.041 343.055 200.172L344.163 214.078L344.86 218.909L342.139 232.132L376.494 239.551C377.594 230.409 376.369 221.915 369.197 215.078L372.821 203.726C374.658 200.762 375.81 197.42 376.191 193.948L376.322 192.761C379.524 182.716 377.627 179.334 371.104 171.076Z" fill="#E6E6E6"/>
<path d="M387.928 147.262C387.936 147.459 387.94 147.656 387.94 147.849C387.936 149.978 387.432 152.076 386.469 153.972C385.506 155.868 384.111 157.508 382.398 158.757C380.685 160.006 378.702 160.829 376.613 161.16C374.523 161.49 372.385 161.318 370.374 160.658L367.91 159.85C367.89 159.842 367.866 159.838 367.846 159.83L363.785 158.495C363.771 158.322 363.774 158.149 363.793 157.976C357.734 155.371 366.109 146.811 368.19 140.383C368.513 139.381 357.39 140.129 357.918 139.273C357.802 139.213 357.686 139.152 357.578 139.092C359.457 136.107 362.235 133.805 365.505 132.522C368.776 131.239 372.368 131.042 375.758 131.96C375.846 131.98 375.938 132.008 376.026 132.032C383.918 132.229 388.063 137.765 388.063 144.954C388.063 145.725 388.018 146.496 387.928 147.262Z" fill="#2F2E41"/>
<path d="M381.09 150.092C380.031 153.357 377.728 156.064 374.686 157.619C371.645 159.175 368.114 159.451 364.871 158.386C364.503 158.266 364.144 158.129 363.793 157.976C360.841 156.703 358.469 154.364 357.144 151.419C355.819 148.474 355.636 145.137 356.632 142.063C356.947 141.084 357.379 140.148 357.918 139.273C359.571 136.577 362.149 134.586 365.163 133.675C368.177 132.764 371.419 132.997 374.274 134.33C377.129 135.663 379.399 138.003 380.655 140.908C381.911 143.813 382.066 147.08 381.09 150.092Z" fill="#A0616A"/>
<path d="M367.906 159.849C367.885 159.843 367.863 159.836 367.843 159.827L363.783 158.495C363.772 158.32 356.316 163.288 356.337 163.113C356.453 161.77 364.853 155.22 366.108 153.696C366.92 152.723 367.484 151.566 367.753 150.325C368.021 149.084 367.986 147.795 367.649 146.571C367.313 145.346 366.686 144.222 365.822 143.296C364.958 142.37 363.884 141.669 362.691 141.254C362.655 141.244 362.62 141.232 362.586 141.217C361.8 140.94 361.046 140.659 360.339 140.378C359.991 138.918 359.812 139.401 358.974 138.164C359.126 139.29 357.708 140.139 357.687 141.275C357.397 141.142 357.123 141.004 356.859 140.866C356.743 140.802 356.632 140.744 356.522 140.686C355.708 140.305 354.997 139.734 354.449 139.019C356.479 132.739 364.247 127.712 370.485 129.767L372.842 130.536C375.815 131.508 378.285 133.624 379.713 136.423C381.432 137.75 382.804 139.479 383.71 141.461C388.867 151.892 378.906 163.405 367.906 159.849Z" fill="#2F2E41"/>
<path d="M384.963 142.393C388.051 142.393 390.554 139.873 390.554 136.764C390.554 133.655 388.051 131.135 384.963 131.135C381.874 131.135 379.371 133.655 379.371 136.764C379.371 139.873 381.874 142.393 384.963 142.393Z" fill="#2F2E41"/>
<path d="M456.001 148.245C454.816 153.668 452.443 158.756 449.057 163.139C445.671 167.522 441.356 171.089 436.427 173.581C435.8 173.894 435.162 174.186 434.518 174.457C434.576 171.832 433.827 169.253 432.372 167.073C432.608 168.84 432.637 170.629 432.456 172.403C432.358 173.42 432.191 174.429 431.956 175.423C427.819 176.797 423.474 177.427 419.121 177.286C418.872 175.339 418.173 173.477 417.08 171.851C417.316 173.618 417.345 175.407 417.164 177.18C412.789 176.823 408.513 175.67 404.546 173.778C402.484 172.79 400.459 171.553 399.13 169.685C397.364 167.195 397.069 163.909 397.501 160.884C397.933 157.853 399.014 154.96 399.768 151.998C400.522 149.036 400.95 145.867 400.064 142.942C399.183 140.012 396.71 137.405 393.678 137.177C392.296 137.071 390.91 137.453 389.528 137.326C388.146 137.193 386.649 136.264 386.617 134.868L387.941 132.702C388.5 128.912 390.419 125.154 393.71 123.227C396.995 121.295 401.719 121.709 404.066 124.724C406.043 127.261 405.97 130.786 406.618 133.944C408.126 141.28 413.953 147.183 420.724 150.294C427.5 153.399 435.125 154.052 442.57 153.925C445.123 153.877 447.717 153.739 450.143 152.927C452.573 152.109 454.841 150.538 456.001 148.245Z" fill="#2F2E41"/>
<path d="M329.191 182.073L327.002 155.786C326.928 154.886 327.211 153.994 327.79 153.305C328.369 152.615 329.196 152.185 330.089 152.109L335.78 151.629C336.674 151.554 337.56 151.84 338.245 152.422C338.93 153.005 339.357 153.837 339.433 154.736L341.622 181.024C341.696 181.923 341.413 182.816 340.834 183.505C340.255 184.194 339.428 184.624 338.535 184.701L332.844 185.181C331.95 185.255 331.064 184.97 330.379 184.387C329.695 183.805 329.267 182.973 329.191 182.073Z" fill="#3F3D56"/>
<path d="M330.865 153.393C330.384 153.435 329.938 153.666 329.626 154.038C329.315 154.409 329.162 154.89 329.202 155.375L331.391 181.662C331.432 182.147 331.662 182.595 332.031 182.909C332.4 183.223 332.878 183.377 333.359 183.337L339.051 182.857C339.532 182.816 339.978 182.584 340.289 182.212C340.601 181.841 340.754 181.36 340.714 180.875L338.525 154.588C338.484 154.103 338.254 153.655 337.885 153.341C337.516 153.027 337.038 152.873 336.556 152.913L330.865 153.393Z" fill="#468335"/>
<path d="M340.463 191.093L346.003 188.964L342.785 176.568L342.222 170.423C342.148 169.624 341.868 168.859 341.409 168.204C340.95 167.549 340.328 167.026 339.606 166.689C338.883 166.351 338.086 166.21 337.292 166.28C336.499 166.35 335.737 166.629 335.084 167.088C334.117 167.768 333.449 168.8 333.223 169.966C332.997 171.132 333.23 172.342 333.872 173.338L337.641 179.184L340.463 191.093Z" fill="#A0616A"/>
<path d="M346.222 186.75L338.834 189.589L342.511 206.97C342.775 208.218 343.355 209.377 344.195 210.333C345.035 211.289 346.106 212.011 347.304 212.427C348.781 212.942 350.383 212.969 351.876 212.505C353.37 212.041 354.678 211.11 355.611 209.848L372.188 186.827C373.358 185.243 373.866 183.262 373.605 181.306C373.343 179.35 372.332 177.575 370.788 176.359C369.957 175.705 368.999 175.235 367.976 174.978C366.953 174.722 365.887 174.685 364.849 174.871C363.811 175.056 362.823 175.46 361.95 176.055C361.077 176.65 360.339 177.423 359.782 178.325L349.306 196.003L346.222 186.75Z" fill="#E6E6E6"/>
<path opacity="0.2" d="M340.213 196.107L343.947 211.374L344.722 212.323C345.336 213.075 346.12 213.667 347.008 214.051C347.896 214.434 348.863 214.597 349.827 214.526C350.792 214.455 351.725 214.152 352.548 213.642C353.371 213.132 354.061 212.431 354.56 211.597L366.394 191.789L355.724 206.651C355.126 207.485 354.327 208.152 353.403 208.59C352.479 209.028 351.459 209.223 350.44 209.156C349.42 209.089 348.435 208.763 347.575 208.209C346.714 207.654 346.008 206.888 345.522 205.984L340.213 196.107Z" fill="black"/>
</g>
<defs>
<clipPath id="clip0_88_72">
<rect width="456" height="352" fill="white"/>
</clipPath>
</defs>
</svg>
